0
SECTION
2
HEADER
9
$INSUNITS
70
4
0
ENDSEC
0
SECTION
2
ENTITIES
0
LWPOLYLINE
8
STAMP_FACE
90
690
70
1
10
-1.1940
20
14.1334
10
-0.9718
20
14.1334
10
-0.9718
20
14.0779
10
-0.6942
20
14.0779
10
-0.6942
20
14.1334
10
0.0278
20
14.0779
10
0.0278
20
14.1334
10
0.1944
20
14.1334
10
0.1944
20
14.0779
10
1.4161
20
14.0779
10
1.4161
20
14.0223
10
1.7493
20
14.0779
10
1.7493
20
14.0223
10
2.3047
20
14.0223
10
2.3047
20
13.9668
10
2.6934
20
13.9668
10
2.6934
20
13.9113
10
3.9707
20
13.8557
10
3.9707
20
13.8002
10
4.4705
20
13.7447
10
4.4705
20
13.6891
10
4.9703
20
13.6891
10
4.9703
20
13.6336
10
5.1369
20
13.6336
10
5.1369
20
13.5781
10
5.5256
20
13.5781
10
5.5256
20
13.5225
10
5.6922
20
13.5225
10
5.6922
20
13.4670
10
6.3031
20
13.4670
10
6.3031
20
13.4115
10
6.4697
20
13.3559
10
6.4697
20
13.3004
10
6.8584
20
13.3004
10
6.8584
20
13.2449
10
6.9695
20
13.2449
10
6.9695
20
13.1893
10
7.3583
20
13.1893
10
7.3583
20
13.1338
10
7.4693
20
13.1338
10
7.4693
20
13.0783
10
8.0802
20
13.0227
10
8.1357
20
12.9117
10
8.3579
20
12.9117
10
8.3579
20
12.8561
10
8.4689
20
12.8561
10
8.4689
20
12.8006
10
8.8021
20
12.8006
10
8.8021
20
12.7450
10
8.9132
20
12.7450
10
8.9132
20
12.6895
10
9.1353
20
12.6895
10
9.1353
20
12.6340
10
9.3019
20
12.5784
10
9.3019
20
12.5229
10
9.5241
20
12.5229
10
9.5241
20
12.4674
10
9.6351
20
12.4674
10
9.6351
20
12.4118
10
9.9683
20
12.4118
10
10.0239
20
12.3008
10
10.3571
20
12.2452
10
10.4126
20
12.1342
10
10.6903
20
12.1342
10
10.7458
20
12.0231
10
11.1346
20
11.9676
10
11.1901
20
11.8565
10
11.3567
20
11.8565
10
11.3567
20
11.8010
10
11.4678
20
11.8010
10
11.5233
20
11.6899
10
11.8010
20
11.6344
10
11.8565
20
11.5233
10
11.9676
20
11.5233
10
11.9676
20
11.4678
10
12.0786
20
11.4678
10
12.0786
20
11.4122
10
12.4118
20
11.3567
10
12.5229
20
11.1901
10
12.6895
20
11.1901
10
12.6895
20
11.1346
10
12.9672
20
11.0790
10
12.9672
20
11.0235
10
13.1338
20
10.9680
10
13.3004
20
10.7458
10
13.5225
20
10.7458
10
13.5225
20
10.6903
10
13.5781
20
10.6903
10
13.6336
20
10.5792
10
13.7447
20
10.5792
10
13.8002
20
10.4682
10
13.9668
20
10.4682
10
14.0223
20
10.3571
10
14.1334
20
10.3571
10
14.3000
20
10.1350
10
14.6332
20
10.0239
10
14.6332
20
9.9683
10
14.6887
20
9.9683
10
14.7443
20
9.8573
10
14.8553
20
9.8573
10
15.0219
20
9.6351
10
15.1885
20
9.6351
10
15.2441
20
9.4685
10
15.3551
20
9.4685
10
15.5217
20
9.2464
10
15.6328
20
9.2464
10
15.6883
20
9.1353
10
15.9105
20
9.0798
10
15.9660
20
8.8577
10
16.0216
20
8.8577
10
16.0771
20
8.7466
10
16.1882
20
8.7466
10
16.2992
20
8.5800
10
16.4103
20
8.5800
10
16.4103
20
8.5245
10
16.5214
20
8.4689
10
16.5214
20
8.3579
10
16.6880
20
8.3023
10
16.6880
20
8.1913
10
16.7990
20
8.1913
10
16.8546
20
8.0247
10
17.1878
20
7.8025
10
17.1878
20
7.6915
10
17.2433
20
7.6915
10
17.2433
20
7.5804
10
17.3544
20
7.5249
10
17.3544
20
7.4138
10
17.4654
20
7.4138
10
17.4654
20
7.3583
10
17.7986
20
7.0806
10
17.7986
20
6.9140
10
18.0208
20
6.8029
10
18.0208
20
6.6918
10
18.1318
20
6.6363
10
18.1874
20
6.4142
10
18.4095
20
6.2476
10
18.5206
20
5.8588
10
18.6872
20
5.8033
10
18.7427
20
5.5256
10
18.9093
20
5.4146
10
18.9093
20
5.2480
10
18.9649
20
5.2480
10
19.0204
20
5.0814
10
19.0759
20
5.0814
10
19.0759
20
4.8592
10
19.2425
20
4.7482
10
19.2981
20
4.4150
10
19.4091
20
4.3594
10
19.4091
20
4.1928
10
19.4647
20
4.1928
10
19.4647
20
4.0817
10
19.5202
20
4.0817
10
19.5202
20
3.9707
10
19.5757
20
3.9707
10
19.5757
20
3.7485
10
19.6313
20
3.7485
10
19.6313
20
3.5819
10
19.6868
20
3.5819
10
19.6868
20
3.3043
10
19.7979
20
3.2487
10
19.8534
20
2.9155
10
19.9645
20
2.8600
10
19.9645
20
2.4157
10
20.0200
20
2.4157
10
20.0200
20
2.1936
10
20.0755
20
2.1936
10
20.0755
20
1.8049
10
20.1311
20
1.8049
10
20.1866
20
1.3606
10
20.2421
20
1.3606
10
20.2421
20
0.6942
10
20.2977
20
0.6942
10
20.2977
20
0.4720
10
20.2421
20
0.4720
10
20.2421
20
0.0278
10
20.2977
20
0.0278
10
20.2421
20
-0.4165
10
20.2977
20
-0.4165
10
20.2977
20
-0.6386
10
20.2421
20
-0.6386
10
20.2421
20
-0.8052
10
20.1866
20
-0.8052
10
20.1866
20
-1.4161
10
20.1311
20
-1.4161
10
20.0755
20
-2.0270
10
20.0200
20
-2.0270
10
20.0200
20
-2.1936
10
19.9645
20
-2.1936
10
19.9645
20
-2.4713
10
19.9089
20
-2.4713
10
19.9089
20
-2.5823
10
19.8534
20
-2.5823
10
19.8534
20
-2.9711
10
19.7979
20
-2.9711
10
19.7423
20
-3.1377
10
19.6868
20
-3.1377
10
19.6868
20
-3.3598
10
19.6313
20
-3.3598
10
19.6313
20
-3.4709
10
19.5757
20
-3.4709
10
19.5757
20
-3.8041
10
19.4647
20
-3.8596
10
19.4647
20
-3.9707
10
19.4091
20
-3.9707
10
19.4091
20
-4.0817
10
19.3536
20
-4.0817
10
19.3536
20
-4.1928
10
19.2981
20
-4.1928
10
19.2981
20
-4.3594
10
19.2425
20
-4.3594
10
19.2425
20
-4.4705
10
19.1315
20
-4.5260
10
19.1315
20
-4.7482
10
19.0759
20
-4.7482
10
19.0204
20
-4.9148
10
18.9093
20
-4.9703
10
18.9093
20
-5.1369
10
18.7427
20
-5.2480
10
18.6317
20
-5.5812
10
18.5206
20
-5.6367
10
18.5206
20
-5.8033
10
18.1874
20
-6.0810
10
18.1318
20
-6.3031
10
17.9652
20
-6.4142
10
17.9097
20
-6.6363
10
17.8542
20
-6.6363
10
17.8542
20
-6.6918
10
17.5765
20
-6.9140
10
17.5765
20
-7.0250
10
17.4654
20
-7.0250
10
17.4654
20
-7.1361
10
16.9101
20
-7.6359
10
16.9101
20
-7.7470
10
16.8546
20
-7.7470
10
16.6880
20
-7.9691
10
16.5769
20
-7.9691
10
16.5769
20
-8.0802
10
16.5214
20
-8.0802
10
16.4658
20
-8.1913
10
16.2992
20
-8.2468
10
16.2437
20
-8.4134
10
16.1326
20
-8.4134
10
16.0771
20
-8.5245
10
15.9660
20
-8.5245
10
15.9660
20
-8.5800
10
15.8550
20
-8.6355
10
15.8550
20
-8.7466
10
15.7994
20
-8.7466
10
15.7439
20
-8.8577
10
15.5217
20
-8.9132
10
15.1885
20
-9.3019
10
14.9664
20
-9.3575
10
14.7443
20
-9.6351
10
14.6332
20
-9.6351
10
14.6332
20
-9.6907
10
14.5221
20
-9.6907
10
14.4111
20
-9.8573
10
14.3000
20
-9.8573
10
14.1889
20
-10.0794
10
13.9113
20
-10.1350
10
13.8557
20
-10.2460
10
13.6336
20
-10.3016
10
13.4670
20
-10.5237
10
13.3004
20
-10.5237
10
13.3004
20
-10.5792
10
13.0783
20
-10.6348
10
13.0783
20
-10.6903
10
12.9117
20
-10.7458
10
12.8561
20
-10.8569
10
12.6340
20
-10.8569
10
12.5229
20
-11.0235
10
12.4118
20
-11.0235
10
12.4118
20
-11.0790
10
12.2452
20
-11.1346
10
12.2452
20
-11.1901
10
11.9676
20
-11.2456
10
11.9676
20
-11.3012
10
11.8010
20
-11.3567
10
11.7454
20
-11.4678
10
11.6344
20
-11.4678
10
11.6344
20
-11.5233
10
11.5233
20
-11.5233
10
11.5233
20
-11.5788
10
11.4122
20
-11.5788
10
11.4122
20
-11.6344
10
11.1901
20
-11.6344
10
11.0790
20
-11.8010
10
10.9124
20
-11.8010
10
10.9124
20
-11.8565
10
10.8014
20
-11.8565
10
10.8014
20
-11.9120
10
10.6348
20
-11.9120
10
10.6348
20
-11.9676
10
10.5237
20
-11.9676
10
10.5237
20
-12.0231
10
10.3571
20
-12.0231
10
10.3571
20
-12.0786
10
10.2460
20
-12.0786
10
10.2460
20
-12.1342
10
10.1350
20
-12.1342
10
10.1350
20
-12.1897
10
10.0239
20
-12.1897
10
10.0239
20
-12.2452
10
9.9128
20
-12.2452
10
9.9128
20
-12.3008
10
9.6907
20
-12.3008
10
9.6907
20
-12.3563
10
9.5796
20
-12.3563
10
9.5796
20
-12.4118
10
9.4685
20
-12.4118
10
9.4685
20
-12.4674
10
9.2464
20
-12.4674
10
9.2464
20
-12.5229
10
9.1353
20
-12.5229
10
9.1353
20
-12.5784
10
9.0243
20
-12.5784
10
9.0243
20
-12.6340
10
8.7466
20
-12.6340
10
8.6911
20
-12.7450
10
8.3579
20
-12.7450
10
8.2468
20
-12.9117
10
7.9691
20
-12.9117
10
7.9691
20
-12.9672
10
7.8581
20
-12.9672
10
7.8581
20
-13.0227
10
7.5249
20
-13.0227
10
7.5249
20
-13.0783
10
7.4138
20
-13.0783
10
7.4138
20
-13.1338
10
6.9695
20
-13.1893
10
6.9695
20
-13.2449
10
6.8029
20
-13.2449
10
6.8029
20
-13.3004
10
6.6363
20
-13.3004
10
6.6363
20
-13.3559
10
6.1920
20
-13.3559
10
6.1365
20
-13.4670
10
5.5812
20
-13.5225
10
5.5812
20
-13.5781
10
5.3590
20
-13.5781
10
5.3590
20
-13.6336
10
4.9703
20
-13.6336
10
4.9703
20
-13.6891
10
4.8037
20
-13.6891
10
4.8037
20
-13.7447
10
4.4705
20
-13.6891
10
4.4150
20
-13.8002
10
4.0262
20
-13.8002
10
4.0262
20
-13.8557
10
3.7485
20
-13.8557
10
3.7485
20
-13.9113
10
3.3598
20
-13.8557
10
3.3043
20
-13.9668
10
2.1936
20
-14.0223
10
2.1936
20
-14.0779
10
1.8049
20
-14.0223
10
1.8049
20
-14.0779
10
1.1940
20
-14.0779
10
1.1940
20
-14.1334
10
0.8608
20
-14.1334
10
0.8608
20
-14.0779
10
0.3610
20
-14.0779
10
0.3610
20
-14.1334
10
0.0833
20
-14.1334
10
0.0833
20
-14.0779
10
-0.4165
20
-14.0779
10
-0.4165
20
-14.1334
10
-1.4161
20
-14.0779
10
-1.4161
20
-14.1334
10
-1.5272
20
-14.1334
10
-1.5272
20
-14.0779
10
-1.9715
20
-14.0779
10
-1.9715
20
-14.0223
10
-2.6934
20
-14.0223
10
-2.6934
20
-13.9668
10
-3.6930
20
-13.9113
10
-3.6930
20
-13.8557
10
-4.0262
20
-13.8557
10
-4.0262
20
-13.8002
10
-4.5260
20
-13.8002
10
-4.5260
20
-13.7447
10
-4.8037
20
-13.7447
10
-4.8037
20
-13.6891
10
-5.0814
20
-13.6891
10
-5.0814
20
-13.6336
10
-5.9699
20
-13.5781
10
-5.9699
20
-13.5225
10
-6.0810
20
-13.5225
10
-6.0810
20
-13.4670
10
-6.1920
20
-13.4670
10
-6.1920
20
-13.4115
10
-6.6363
20
-13.4115
10
-6.6918
20
-13.3004
10
-7.1917
20
-13.3004
10
-7.2472
20
-13.1893
10
-7.5804
20
-13.1893
10
-7.5804
20
-13.1338
10
-7.7470
20
-13.1338
10
-7.8025
20
-13.0227
10
-8.0802
20
-13.0227
10
-8.0802
20
-12.9672
10
-8.2468
20
-12.9672
10
-8.2468
20
-12.9117
10
-8.3579
20
-12.9117
10
-8.3579
20
-12.8561
10
-8.6355
20
-12.8561
10
-8.6355
20
-12.8006
10
-8.8577
20
-12.8006
10
-8.8577
20
-12.7450
10
-9.1353
20
-12.6895
10
-9.1353
20
-12.6340
10
-9.3575
20
-12.6340
10
-9.4130
20
-12.5229
10
-9.7462
20
-12.4674
10
-9.7462
20
-12.4118
10
-9.8573
20
-12.4118
10
-9.8573
20
-12.3563
10
-10.0794
20
-12.3563
10
-10.1350
20
-12.2452
10
-10.4126
20
-12.2452
10
-10.4682
20
-12.1342
10
-10.5792
20
-12.1342
10
-10.5792
20
-12.0786
10
-10.6903
20
-12.0786
10
-10.6903
20
-12.0231
10
-10.9680
20
-12.0231
10
-11.0790
20
-11.8565
10
-11.4122
20
-11.8010
10
-11.4678
20
-11.6899
10
-11.6344
20
-11.6899
10
-11.6899
20
-11.5788
10
-11.8010
20
-11.5788
10
-11.8565
20
-11.4678
10
-12.1342
20
-11.4122
10
-12.1897
20
-11.3012
10
-12.4118
20
-11.3012
10
-12.5784
20
-11.0790
10
-12.9117
20
-11.0235
10
-13.0227
20
-10.8569
10
-13.1338
20
-10.8569
10
-13.1338
20
-10.8014
10
-13.3004
20
-10.7458
10
-13.3004
20
-10.6903
10
-13.4670
20
-10.6903
10
-13.4670
20
-10.6348
10
-13.5225
20
-10.6348
10
-13.5781
20
-10.5237
10
-13.6891
20
-10.5237
10
-13.8002
20
-10.3571
10
-13.9668
20
-10.3571
10
-14.1889
20
-10.0794
10
-14.5221
20
-9.9683
10
-14.5777
20
-9.8017
10
-14.7998
20
-9.7462
10
-14.9664
20
-9.5241
10
-15.1885
20
-9.4685
10
-15.3551
20
-9.2464
10
-15.4662
20
-9.2464
10
-15.5773
20
-9.0798
10
-15.6883
20
-9.0798
10
-15.8550
20
-8.8021
10
-15.9660
20
-8.8021
10
-16.1326
20
-8.5800
10
-16.2437
20
-8.5800
10
-16.2437
20
-8.5245
10
-16.3548
20
-8.4689
10
-16.3548
20
-8.3579
10
-16.4658
20
-8.3579
10
-16.4658
20
-8.3023
10
-16.6324
20
-8.1913
10
-16.6324
20
-8.0802
10
-16.7435
20
-8.0802
10
-16.7435
20
-8.0247
10
-16.8546
20
-7.9691
10
-16.8546
20
-7.8581
10
-16.9101
20
-7.8581
10
-17.1322
20
-7.5804
10
-17.2433
20
-7.5804
10
-17.2988
20
-7.3583
10
-17.7431
20
-6.9695
10
-17.7431
20
-6.8584
10
-17.7986
20
-6.8584
10
-17.8542
20
-6.6918
10
-17.9652
20
-6.6363
10
-18.0208
20
-6.4142
10
-18.1874
20
-6.3031
10
-18.1874
20
-6.1365
10
-18.5206
20
-5.8588
10
-18.5206
20
-5.6922
10
-18.5761
20
-5.6922
10
-18.6317
20
-5.4701
10
-18.8538
20
-5.3035
10
-18.8538
20
-5.0814
10
-18.9093
20
-5.0814
10
-18.9093
20
-4.9703
10
-19.0204
20
-4.9148
10
-19.0204
20
-4.7482
10
-19.1870
20
-4.6371
10
-19.1870
20
-4.4705
10
-19.2425
20
-4.4705
10
-19.2425
20
-4.3594
10
-19.2981
20
-4.3594
10
-19.2981
20
-4.1928
10
-19.3536
20
-4.1928
10
-19.4091
20
-3.9707
10
-19.5202
20
-3.9151
10
-19.5757
20
-3.5264
10
-19.6868
20
-3.4709
10
-19.6868
20
-3.1932
10
-19.7979
20
-3.1377
10
-19.7979
20
-2.9155
10
-19.8534
20
-2.9155
10
-19.8534
20
-2.8045
10
-19.9089
20
-2.8045
10
-19.9089
20
-2.5823
10
-19.9645
20
-2.5823
10
-19.9645
20
-2.3602
10
-20.0200
20
-2.3602
10
-20.0755
20
-1.8604
10
-20.1311
20
-1.8604
10
-20.1311
20
-1.7493
10
-20.1866
20
-1.7493
10
-20.2421
20
-0.4165
10
-20.2977
20
-0.4165
10
-20.2977
20
0.3054
10
-20.2421
20
0.3054
10
-20.2421
20
1.1384
10
-20.1866
20
1.1384
10
-20.2421
20
1.4717
10
-20.1866
20
1.4717
10
-20.1866
20
1.5827
10
-20.1311
20
1.5827
10
-20.1311
20
2.1936
10
-20.0755
20
2.1936
10
-20.0755
20
2.4157
10
-20.0200
20
2.4157
10
-20.0200
20
2.5823
10
-19.9645
20
2.5823
10
-19.9645
20
2.8600
10
-19.9089
20
2.8600
10
-19.8534
20
3.1377
10
-19.7979
20
3.1377
10
-19.7423
20
3.6375
10
-19.6868
20
3.6375
10
-19.6868
20
3.7485
10
-19.5757
20
3.8041
10
-19.5757
20
4.0262
10
-19.5202
20
4.0262
10
-19.5202
20
4.1928
10
-19.4647
20
4.1928
10
-19.4647
20
4.3039
10
-19.4091
20
4.3039
10
-19.4091
20
4.4150
10
-19.3536
20
4.4150
10
-19.3536
20
4.6371
10
-19.2981
20
4.6371
10
-19.2981
20
4.7482
10
-19.1870
20
4.8037
10
-19.1315
20
5.0814
10
-19.0759
20
5.0814
10
-19.0204
20
5.2480
10
-18.9093
20
5.3035
10
-18.9093
20
5.5256
10
-18.7983
20
5.5812
10
-18.7427
20
5.8033
10
-18.5761
20
5.9144
10
-18.5206
20
6.1920
10
-18.2984
20
6.3586
10
-18.2984
20
6.5252
10
-18.1874
20
6.5808
10
-18.1874
20
6.6918
10
-17.9097
20
6.9140
10
-17.8542
20
7.1361
10
-17.5210
20
7.4138
10
-17.5210
20
7.5249
10
-17.2988
20
7.6915
10
-17.2988
20
7.8025
10
-17.2433
20
7.8025
10
-16.6880
20
8.4134
10
-16.5769
20
8.4134
10
-16.5769
20
8.5245
10
-16.5214
20
8.5245
10
-16.4103
20
8.6911
10
-16.2437
20
8.7466
10
-16.2437
20
8.9132
10
-16.0771
20
8.9687
10
-16.0771
20
9.0243
10
-15.9660
20
9.0243
10
-15.9660
20
9.0798
10
-15.8550
20
9.0798
10
-15.8550
20
9.1353
10
-15.6328
20
9.3019
10
-15.5773
20
9.4685
10
-15.3551
20
9.5241
10
-15.3551
20
9.5796
10
-15.2996
20
9.5796
10
-15.1885
20
9.7462
10
-15.0775
20
9.7462
10
-14.9664
20
9.9128
10
-14.7443
20
9.9683
10
-14.4666
20
10.3016
10
-14.1889
20
10.3571
10
-14.1334
20
10.4682
10
-14.0223
20
10.4682
10
-14.0223
20
10.5792
10
-13.8002
20
10.6348
10
-13.6891
20
10.8014
10
-13.4115
20
10.8569
10
-13.2449
20
11.0790
10
-13.0227
20
11.0790
10
-12.9117
20
11.2456
10
-12.8006
20
11.2456
10
-12.8006
20
11.3012
10
-12.6895
20
11.3012
10
-12.6895
20
11.3567
10
-12.5229
20
11.3567
10
-12.4674
20
11.4678
10
-12.3563
20
11.4678
10
-12.3563
20
11.5233
10
-12.2452
20
11.5233
10
-12.2452
20
11.5788
10
-12.0786
20
11.5788
10
-12.0786
20
11.6344
10
-11.9676
20
11.6344
10
-11.9676
20
11.6899
10
-11.8010
20
11.6899
10
-11.6899
20
11.8565
10
-11.5233
20
11.8565
10
-11.4678
20
11.9676
10
-11.0790
20
12.0231
10
-11.0235
20
12.1342
10
-10.8569
20
12.1342
10
-10.8569
20
12.1897
10
-10.6903
20
12.2452
10
-10.6903
20
12.3008
10
-10.4682
20
12.3008
10
-10.4682
20
12.3563
10
-10.3571
20
12.3563
10
-10.3571
20
12.4118
10
-9.9683
20
12.4674
10
-9.9128
20
12.5784
10
-9.6351
20
12.5784
10
-9.6351
20
12.6340
10
-9.4685
20
12.6340
10
-9.4685
20
12.6895
10
-9.3575
20
12.6895
10
-9.3575
20
12.7450
10
-9.1353
20
12.7450
10
-9.1353
20
12.8006
10
-9.0243
20
12.8006
10
-9.0243
20
12.8561
10
-8.8021
20
12.8561
10
-8.8021
20
12.9117
10
-8.6911
20
12.9117
10
-8.6911
20
12.9672
10
-8.4689
20
12.9672
10
-8.4134
20
13.0783
10
-8.1357
20
13.0783
10
-8.1357
20
13.1338
10
-7.9136
20
13.1338
10
-7.9136
20
13.1893
10
-7.5804
20
13.1893
10
-7.5804
20
13.2449
10
-7.4693
20
13.2449
10
-7.4693
20
13.3004
10
-7.0806
20
13.3004
10
-7.0806
20
13.3559
10
-6.9140
20
13.3559
10
-6.9140
20
13.4115
10
-6.6363
20
13.4115
10
-6.6363
20
13.4670
10
-6.3586
20
13.4670
10
-6.3586
20
13.5225
10
-5.5256
20
13.6336
10
-5.5256
20
13.6891
10
-5.3035
20
13.6891
10
-5.3035
20
13.7447
10
-4.9148
20
13.7447
10
-4.9148
20
13.8002
10
-4.1373
20
13.8557
10
-4.1373
20
13.9113
10
-3.5264
20
13.9113
10
-3.5264
20
13.9668
10
-3.0821
20
13.9668
10
-3.0821
20
14.0223
10
-2.6379
20
13.9668
10
-2.5823
20
14.0779
10
-2.1381
20
14.0223
10
-2.1381
20
14.0779
10
-1.1940
20
14.0779
0
LWPOLYLINE
8
STAMP_FACE
90
685
70
1
10
-1.6383
20
13.6336
10
-1.6938
20
13.6336
10
-1.6938
20
13.5781
10
-2.2491
20
13.5781
10
-2.2491
20
13.5225
10
-2.6934
20
13.5781
10
-2.6934
20
13.5225
10
-2.9155
20
13.5225
10
-2.9155
20
13.4670
10
-3.7485
20
13.4670
10
-3.7485
20
13.4115
10
-4.0262
20
13.4115
10
-4.0262
20
13.3559
10
-4.1373
20
13.3559
10
-4.1373
20
13.4115
10
-4.5260
20
13.4115
10
-4.5260
20
13.3559
10
-4.6371
20
13.3559
10
-4.6371
20
13.3004
10
-5.5812
20
13.2449
10
-5.5812
20
13.1893
10
-5.6922
20
13.1893
10
-5.6922
20
13.1338
10
-5.9699
20
13.1338
10
-5.9699
20
13.0783
10
-6.1365
20
13.0783
10
-6.1365
20
13.0227
10
-6.5252
20
13.0227
10
-6.5252
20
12.9672
10
-7.1361
20
12.9117
10
-7.2472
20
12.7450
10
-7.8025
20
12.7450
10
-7.8581
20
12.6340
10
-8.1357
20
12.6340
10
-8.1357
20
12.5784
10
-8.4134
20
12.5784
10
-8.4134
20
12.5229
10
-8.5245
20
12.5229
10
-8.5245
20
12.4674
10
-8.8021
20
12.4674
10
-8.8021
20
12.4118
10
-8.9132
20
12.4118
10
-8.9132
20
12.3563
10
-9.1353
20
12.3563
10
-9.1353
20
12.3008
10
-9.4130
20
12.2452
10
-9.4130
20
12.1897
10
-9.5241
20
12.1897
10
-9.5241
20
12.1342
10
-9.8017
20
12.1342
10
-9.8017
20
12.0786
10
-9.9128
20
12.0786
10
-9.9128
20
12.0231
10
-10.0239
20
12.0231
10
-10.0239
20
11.9676
10
-10.1350
20
11.9676
10
-10.1350
20
11.9120
10
-10.4126
20
11.9120
10
-10.4126
20
11.8565
10
-10.5237
20
11.8565
10
-10.5237
20
11.8010
10
-10.6348
20
11.8010
10
-10.6348
20
11.7454
10
-10.7458
20
11.7454
10
-10.7458
20
11.6899
10
-10.9680
20
11.6899
10
-11.0790
20
11.5233
10
-11.3012
20
11.5233
10
-11.3012
20
11.4678
10
-11.4122
20
11.4678
10
-11.4122
20
11.4122
10
-11.5788
20
11.4122
10
-11.5788
20
11.3567
10
-11.6344
20
11.3567
10
-11.6899
20
11.2456
10
-11.8010
20
11.2456
10
-11.8010
20
11.1901
10
-12.0231
20
11.1901
10
-12.0786
20
11.0790
10
-12.3008
20
11.0235
10
-12.3563
20
10.9124
10
-12.6340
20
10.8569
10
-12.7450
20
10.6903
10
-13.0227
20
10.6348
10
-13.1338
20
10.4682
10
-13.4115
20
10.4126
10
-13.5225
20
10.2460
10
-13.7447
20
10.1905
10
-13.7447
20
10.1350
10
-13.9113
20
10.0794
10
-13.9668
20
9.9683
10
-14.1889
20
9.9128
10
-14.3000
20
9.7462
10
-14.5221
20
9.6907
10
-14.6887
20
9.4685
10
-14.9109
20
9.4130
10
-15.1330
20
9.1353
10
-15.2441
20
9.1353
10
-15.4662
20
8.8577
10
-15.5773
20
8.8577
10
-15.8550
20
8.5245
10
-15.9660
20
8.5245
10
-16.0216
20
8.3579
10
-16.1882
20
8.3023
10
-16.1882
20
8.2468
10
-16.5769
20
7.9136
10
-16.5769
20
7.8025
10
-16.6324
20
7.8025
10
-16.6880
20
7.6915
10
-16.7990
20
7.6915
10
-16.7990
20
7.5804
10
-16.8546
20
7.5804
10
-16.9101
20
7.4693
10
-17.0212
20
7.4693
10
-17.0767
20
7.2472
10
-17.1322
20
7.2472
10
-17.1878
20
7.1361
10
-17.2988
20
7.1361
10
-17.2988
20
7.0250
10
-17.3544
20
7.0250
10
-17.3544
20
6.9695
10
-17.5210
20
6.8584
10
-17.5210
20
6.7474
10
-17.7431
20
6.5808
10
-17.7431
20
6.4142
10
-17.9652
20
6.2476
10
-18.0208
20
6.0254
10
-18.0763
20
6.0254
10
-18.0763
20
5.9699
10
-18.1874
20
5.9144
10
-18.1874
20
5.8033
10
-18.2984
20
5.7478
10
-18.3540
20
5.4701
10
-18.4095
20
5.4701
10
-18.4650
20
5.3035
10
-18.5761
20
5.2480
10
-18.6317
20
4.9703
10
-18.6872
20
4.9703
10
-18.6872
20
4.8592
10
-18.7983
20
4.8037
10
-18.7983
20
4.6926
10
-18.8538
20
4.6926
10
-18.8538
20
4.5816
10
-18.9093
20
4.5816
10
-18.9093
20
4.4150
10
-18.9649
20
4.4150
10
-18.9649
20
4.3039
10
-19.0204
20
4.3039
10
-19.0204
20
4.1373
10
-19.1315
20
4.0817
10
-19.1870
20
3.6930
10
-19.2425
20
3.6930
10
-19.2425
20
3.5819
10
-19.2981
20
3.5819
10
-19.3536
20
3.1932
10
-19.4091
20
3.1932
10
-19.4091
20
3.0821
10
-19.4647
20
3.0821
10
-19.4647
20
2.7489
10
-19.5202
20
2.7489
10
-19.5757
20
2.3047
10
-19.6313
20
2.3047
10
-19.6313
20
2.1381
10
-19.6868
20
2.1381
10
-19.6868
20
1.6938
10
-19.7423
20
1.6938
10
-19.7423
20
1.5827
10
-19.7979
20
1.5827
10
-19.7979
20
0.9163
10
-19.8534
20
0.9163
10
-19.8534
20
-0.7497
10
-19.7979
20
-0.7497
10
-19.7979
20
-1.4161
10
-19.7423
20
-1.4161
10
-19.7423
20
-1.6383
10
-19.6868
20
-1.6383
10
-19.6313
20
-2.2491
10
-19.5757
20
-2.2491
10
-19.5757
20
-2.4157
10
-19.5202
20
-2.4157
10
-19.5202
20
-2.5823
10
-19.4647
20
-2.5823
10
-19.4647
20
-2.8600
10
-19.4091
20
-2.8600
10
-19.4091
20
-2.9711
10
-19.3536
20
-2.9711
10
-19.2981
20
-3.3598
10
-19.1870
20
-3.4153
10
-19.1870
20
-3.6375
10
-19.1315
20
-3.6375
10
-19.1315
20
-3.7485
10
-19.0759
20
-3.7485
10
-19.0204
20
-4.0817
10
-18.9093
20
-4.1373
10
-18.8538
20
-4.4150
10
-18.7427
20
-4.4705
10
-18.7427
20
-4.6371
10
-18.6872
20
-4.6371
10
-18.6872
20
-4.7482
10
-18.5761
20
-4.8037
10
-18.5761
20
-4.9148
10
-18.5206
20
-4.9148
10
-18.4650
20
-5.1369
10
-18.3540
20
-5.1924
10
-18.2984
20
-5.4146
10
-18.1874
20
-5.4701
10
-18.1318
20
-5.6922
10
-17.9652
20
-5.8033
10
-17.9652
20
-5.9144
10
-17.9097
20
-5.9144
10
-17.9097
20
-6.0254
10
-17.7431
20
-6.1365
10
-17.6876
20
-6.3586
10
-17.5210
20
-6.4697
10
-17.5210
20
-6.5808
10
-17.3544
20
-6.6918
10
-17.3544
20
-6.8029
10
-17.1322
20
-6.9695
10
-17.1322
20
-7.0806
10
-16.9101
20
-7.2472
10
-16.9101
20
-7.3583
10
-16.7990
20
-7.3583
10
-16.7435
20
-7.5249
10
-16.5769
20
-7.5804
10
-16.5769
20
-7.6915
10
-16.5214
20
-7.6915
10
-16.4658
20
-7.8025
10
-16.3548
20
-7.8025
10
-16.2992
20
-7.9691
10
-16.1882
20
-7.9691
10
-16.1326
20
-8.1357
10
-16.0771
20
-8.1357
10
-15.9660
20
-8.3023
10
-15.8550
20
-8.3023
10
-15.4662
20
-8.7466
10
-15.3551
20
-8.7466
10
-15.0219
20
-9.1353
10
-14.7998
20
-9.1909
10
-14.7443
20
-9.3575
10
-14.6332
20
-9.3575
10
-14.6332
20
-9.4130
10
-14.5221
20
-9.4130
10
-14.4111
20
-9.5796
10
-14.3000
20
-9.5796
10
-14.1334
20
-9.8017
10
-13.9668
20
-9.8017
10
-13.9113
20
-9.9128
10
-13.8002
20
-9.9128
10
-13.8002
20
-9.9683
10
-13.7447
20
-9.9683
10
-13.6891
20
-10.0794
10
-13.5781
20
-10.0794
10
-13.5225
20
-10.1905
10
-13.3559
20
-10.1905
10
-13.2449
20
-10.3571
10
-12.9117
20
-10.4682
10
-12.8561
20
-10.5792
10
-12.6895
20
-10.5792
10
-12.5784
20
-10.7458
10
-12.3008
20
-10.8014
10
-12.1897
20
-10.9680
10
-11.9120
20
-11.0235
10
-11.8565
20
-11.1346
10
-11.7454
20
-11.1346
10
-11.7454
20
-11.1901
10
-11.6344
20
-11.1901
10
-11.6344
20
-11.2456
10
-11.5233
20
-11.2456
10
-11.5233
20
-11.3012
10
-11.4122
20
-11.3012
10
-11.4122
20
-11.3567
10
-11.2456
20
-11.3567
10
-11.1901
20
-11.4678
10
-11.0790
20
-11.4678
10
-11.0790
20
-11.5233
10
-10.9680
20
-11.5233
10
-10.9680
20
-11.5788
10
-10.7458
20
-11.5788
10
-10.6348
20
-11.7454
10
-10.4126
20
-11.7454
10
-10.4126
20
-11.8010
10
-10.3016
20
-11.8010
10
-10.2460
20
-11.9120
10
-9.8017
20
-11.9676
10
-9.8017
20
-12.0231
10
-9.6907
20
-12.0231
10
-9.6351
20
-12.1342
10
-9.4685
20
-12.1342
10
-9.4685
20
-12.1897
10
-9.3575
20
-12.1897
10
-9.3575
20
-12.2452
10
-9.1353
20
-12.2452
10
-9.1353
20
-12.3008
10
-9.0243
20
-12.3008
10
-9.0243
20
-12.3563
10
-8.6355
20
-12.4118
10
-8.6355
20
-12.4674
10
-8.5245
20
-12.4674
10
-8.5245
20
-12.5229
10
-8.1913
20
-12.5229
10
-8.1913
20
-12.5784
10
-7.9136
20
-12.6340
10
-7.9136
20
-12.6895
10
-7.6359
20
-12.6895
10
-7.6359
20
-12.7450
10
-7.4693
20
-12.7450
10
-7.4693
20
-12.8006
10
-7.3027
20
-12.8006
10
-7.3027
20
-12.8561
10
-6.8029
20
-12.9117
10
-6.8029
20
-12.9672
10
-6.4697
20
-12.9672
10
-6.4697
20
-13.0227
10
-6.3586
20
-13.0227
10
-6.3586
20
-13.0783
10
-6.0254
20
-13.0783
10
-6.0254
20
-13.1338
10
-5.9144
20
-13.1338
10
-5.9144
20
-13.1893
10
-5.4146
20
-13.1893
10
-5.4146
20
-13.2449
10
-5.3035
20
-13.2449
10
-5.3035
20
-13.3004
10
-4.9148
20
-13.3004
10
-4.9148
20
-13.3559
10
-4.6926
20
-13.3559
10
-4.6926
20
-13.4115
10
-4.0262
20
-13.4115
10
-4.0262
20
-13.4670
10
-3.8596
20
-13.4670
10
-3.8596
20
-13.5225
10
-2.6379
20
-13.5781
10
-2.6379
20
-13.6336
10
-1.8604
20
-13.6336
10
-1.8604
20
-13.6891
10
-0.3054
20
-13.6891
10
-0.3054
20
-13.7447
10
-0.0833
20
-13.7447
10
-0.0833
20
-13.6891
10
1.5827
20
-13.6891
10
1.5827
20
-13.6336
10
2.4713
20
-13.6336
10
2.4713
20
-13.5781
10
3.5819
20
-13.5225
10
3.5819
20
-13.4670
10
3.7485
20
-13.4670
10
3.7485
20
-13.4115
10
4.6926
20
-13.3559
10
4.6926
20
-13.3004
10
4.8592
20
-13.3004
10
4.8592
20
-13.2449
10
5.1924
20
-13.2449
10
5.1924
20
-13.1893
10
5.4146
20
-13.1893
10
5.4146
20
-13.1338
10
5.8588
20
-13.1338
10
5.8588
20
-13.0783
10
5.9699
20
-13.0783
10
5.9699
20
-13.0227
10
6.5252
20
-12.9672
10
6.5252
20
-12.9117
10
6.8029
20
-12.8561
10
6.8029
20
-12.8006
10
7.1361
20
-12.8006
10
7.1361
20
-12.7450
10
7.3027
20
-12.7450
10
7.3027
20
-12.6895
10
7.5804
20
-12.6895
10
7.5804
20
-12.6340
10
7.7470
20
-12.6340
10
7.7470
20
-12.5784
10
8.0247
20
-12.5229
10
8.0247
20
-12.4674
10
8.3579
20
-12.4674
10
8.3579
20
-12.4118
10
8.5245
20
-12.3563
10
8.5245
20
-12.3008
10
8.8577
20
-12.3008
10
8.9132
20
-12.1897
10
9.1353
20
-12.1897
10
9.1909
20
-12.0786
10
9.4130
20
-12.0786
10
9.4130
20
-12.0231
10
9.5241
20
-12.0231
10
9.5796
20
-11.9120
10
9.8017
20
-11.9120
10
9.8017
20
-11.8565
10
9.9128
20
-11.8565
10
9.9128
20
-11.8010
10
10.0239
20
-11.8010
10
10.0239
20
-11.7454
10
10.3571
20
-11.6899
10
10.3571
20
-11.6344
10
10.4682
20
-11.6344
10
10.4682
20
-11.5788
10
10.6348
20
-11.5233
10
10.6348
20
-11.4678
10
10.8569
20
-11.4678
10
10.8569
20
-11.4122
10
10.9680
20
-11.4122
10
11.0235
20
-11.3012
10
11.2456
20
-11.3012
10
11.3012
20
-11.1901
10
11.6344
20
-11.0790
10
11.6899
20
-10.9680
10
11.9676
20
-10.9124
10
12.0231
20
-10.8014
10
12.2452
20
-10.7458
10
12.3008
20
-10.6348
10
12.5784
20
-10.5792
10
12.5784
20
-10.5237
10
12.6895
20
-10.5237
10
12.7450
20
-10.4126
10
12.9672
20
-10.3571
10
13.0227
20
-10.2460
10
13.2449
20
-10.1905
10
13.3559
20
-10.0239
10
13.5225
20
-10.0239
10
13.5781
20
-9.9128
10
13.8002
20
-9.8573
10
13.8002
20
-9.7462
10
13.9113
20
-9.7462
10
13.9113
20
-9.6907
10
14.0779
20
-9.6351
10
14.1334
20
-9.5241
10
14.3555
20
-9.4685
10
14.4111
20
-9.3019
10
14.5221
20
-9.3019
10
14.5777
20
-9.1909
10
14.6887
20
-9.1909
10
14.6887
20
-9.1353
10
14.7443
20
-9.1353
10
14.7998
20
-9.0243
10
14.9109
20
-9.0243
10
15.0775
20
-8.8021
10
15.1885
20
-8.8021
10
15.4662
20
-8.4689
10
15.5773
20
-8.4689
10
15.9660
20
-8.0247
10
16.1326
20
-7.9691
10
16.1882
20
-7.8025
10
16.3548
20
-7.7470
10
16.3548
20
-7.6359
10
16.4103
20
-7.6359
10
16.5214
20
-7.4693
10
16.6880
20
-7.4138
10
16.6880
20
-7.3027
10
16.7990
20
-7.3027
10
16.7990
20
-7.2472
10
16.9656
20
-7.1361
10
17.0212
20
-6.9140
10
17.4099
20
-6.5808
10
17.4099
20
-6.4697
10
17.6320
20
-6.3031
10
17.6320
20
-6.1920
10
17.6876
20
-6.1920
10
17.6876
20
-6.1365
10
17.7986
20
-6.0810
10
17.7986
20
-5.9699
10
17.9652
20
-5.8588
10
18.0208
20
-5.6367
10
18.0763
20
-5.6367
10
18.0763
20
-5.5812
10
18.1874
20
-5.5256
10
18.1874
20
-5.4146
10
18.2984
20
-5.3590
10
18.2984
20
-5.2480
10
18.3540
20
-5.2480
10
18.4650
20
-4.9148
10
18.5761
20
-4.9148
10
18.6317
20
-4.6371
10
18.6872
20
-4.6371
10
18.7427
20
-4.4150
10
18.8538
20
-4.3594
10
18.8538
20
-4.1928
10
18.9649
20
-4.1373
10
18.9649
20
-3.9707
10
19.0204
20
-3.9707
10
19.0204
20
-3.8596
10
19.0759
20
-3.8596
10
19.1315
20
-3.5264
10
19.1870
20
-3.5264
10
19.2425
20
-3.2487
10
19.2981
20
-3.2487
10
19.2981
20
-3.1377
10
19.3536
20
-3.1377
10
19.3536
20
-2.8600
10
19.4091
20
-2.8600
10
19.4091
20
-2.7489
10
19.4647
20
-2.7489
10
19.5202
20
-2.2491
10
19.5757
20
-2.2491
10
19.5757
20
-2.0270
10
19.6313
20
-2.0270
10
19.7423
20
-1.0274
10
19.7979
20
-1.0274
10
19.7979
20
-0.8052
10
19.8534
20
-0.8052
10
19.8534
20
-0.5831
10
19.7979
20
-0.5831
10
19.7979
20
-0.3610
10
19.8534
20
-0.3610
10
19.8534
20
0.5831
10
19.7979
20
0.5831
10
19.7423
20
1.6383
10
19.6868
20
1.6383
10
19.6868
20
1.9715
10
19.6313
20
1.9715
10
19.5757
20
2.3602
10
19.5202
20
2.3602
10
19.5202
20
2.6934
10
19.4647
20
2.6934
10
19.4647
20
2.8045
10
19.4091
20
2.8045
10
19.4091
20
3.1377
10
19.3536
20
3.1377
10
19.3536
20
3.2487
10
19.2981
20
3.2487
10
19.2981
20
3.3598
10
19.2425
20
3.3598
10
19.2425
20
3.6375
10
19.1870
20
3.6375
10
19.1870
20
3.7485
10
19.1315
20
3.7485
10
19.1315
20
3.8596
10
19.0759
20
3.8596
10
19.0759
20
3.9707
10
19.0204
20
3.9707
10
18.9649
20
4.3039
10
18.8538
20
4.3594
10
18.8538
20
4.5816
10
18.7983
20
4.5816
10
18.7427
20
4.7482
10
18.6872
20
4.7482
10
18.6872
20
4.9703
10
18.5206
20
5.0814
10
18.5206
20
5.1924
10
18.4650
20
5.1924
10
18.4095
20
5.3590
10
18.2984
20
5.4146
10
18.2429
20
5.6922
10
18.1874
20
5.6922
10
18.1318
20
5.8588
10
17.9097
20
6.0254
10
17.9097
20
6.1920
10
17.8542
20
6.1920
10
17.7986
20
6.3586
10
17.4654
20
6.6363
10
17.4654
20
6.7474
10
17.3544
20
6.8029
10
17.3544
20
6.9140
10
17.1878
20
6.9695
10
17.1878
20
7.0806
10
17.1322
20
7.0806
10
17.1322
20
7.1917
10
16.9656
20
7.3027
10
16.9656
20
7.4138
10
16.8546
20
7.4138
10
16.8546
20
7.4693
10
16.6880
20
7.5804
10
16.6880
20
7.6915
10
16.5769
20
7.6915
10
16.5769
20
7.7470
10
16.2992
20
7.9691
10
16.2992
20
8.0802
10
16.2437
20
8.0802
10
16.1882
20
8.1913
10
16.0771
20
8.1913
10
15.9105
20
8.4134
10
15.7994
20
8.4134
10
15.6328
20
8.6911
10
15.5217
20
8.6911
10
15.4107
20
8.8577
10
15.2996
20
8.8577
10
15.1330
20
9.0798
10
14.9109
20
9.1353
10
14.7998
20
9.3575
10
14.6887
20
9.3575
10
14.5777
20
9.5241
10
14.3555
20
9.5241
10
14.2445
20
9.7462
10
13.9668
20
9.8017
10
13.9668
20
9.8573
10
13.9113
20
9.8573
10
13.8002
20
10.0239
10
13.6891
20
10.0239
10
13.6336
20
10.1350
10
13.4670
20
10.1350
10
13.3559
20
10.3016
10
13.1893
20
10.3016
10
13.1338
20
10.4682
10
12.8006
20
10.5237
10
12.7450
20
10.6348
10
12.6340
20
10.6348
10
12.6340
20
10.7458
10
12.3008
20
10.8014
10
12.3008
20
10.8569
10
12.1342
20
10.9124
10
12.0786
20
11.0235
10
11.7454
20
11.0790
10
11.6344
20
11.2456
10
11.4122
20
11.2456
10
11.4122
20
11.3012
10
11.2456
20
11.3567
10
11.2456
20
11.4122
10
10.9680
20
11.4122
10
10.9124
20
11.5233
10
10.6903
20
11.5233
10
10.6348
20
11.6344
10
10.3571
20
11.6899
10
10.3571
20
11.7454
10
10.1905
20
11.7454
10
10.1350
20
11.8565
10
9.8017
20
11.8565
10
9.8017
20
11.9120
10
9.6907
20
11.9120
10
9.6907
20
11.9676
10
9.5241
20
12.0231
10
9.5241
20
12.0786
10
9.2464
20
12.0786
10
9.2464
20
12.1342
10
9.0798
20
12.1342
10
9.0798
20
12.1897
10
8.9687
20
12.1897
10
8.9687
20
12.2452
10
8.8577
20
12.2452
10
8.8577
20
12.3008
10
8.5245
20
12.3008
10
8.5245
20
12.3563
10
8.4134
20
12.3563
10
8.4134
20
12.4118
10
8.3023
20
12.4118
10
8.3023
20
12.4674
10
8.0247
20
12.4674
10
8.0247
20
12.5229
10
7.8025
20
12.5229
10
7.8025
20
12.5784
10
7.6915
20
12.5784
10
7.6915
20
12.6340
10
7.1361
20
12.6895
10
7.0806
20
12.8006
10
6.4142
20
12.8561
10
6.4142
20
12.9117
10
6.0254
20
12.9672
10
6.0254
20
13.0227
10
5.6367
20
13.0227
10
5.5812
20
13.1338
10
5.0258
20
13.1338
10
5.0258
20
13.1893
10
4.3039
20
13.2449
10
4.3039
20
13.3004
10
3.9707
20
13.3004
10
3.9707
20
13.3559
10
3.4153
20
13.3559
10
3.4153
20
13.4115
10
3.2487
20
13.4115
10
3.2487
20
13.4670
10
3.0266
20
13.4670
10
3.0266
20
13.4115
10
2.9711
20
13.4115
10
2.9711
20
13.4670
10
2.5823
20
13.4670
10
2.5823
20
13.5225
10
2.2491
20
13.4670
10
2.2491
20
13.5225
10
2.1381
20
13.5225
10
2.1381
20
13.5781
10
1.6383
20
13.5225
10
1.6383
20
13.5781
10
1.1384
20
13.5781
10
1.1384
20
13.6336
10
0.9718
20
13.6336
10
0.9718
20
13.5781
10
0.5276
20
13.5781
10
0.5276
20
13.6336
10
0.1944
20
13.6336
10
0.1944
20
13.5781
10
-0.0833
20
13.5781
10
-0.0833
20
13.6336
10
-0.4165
20
13.6336
10
-0.4165
20
13.5781
10
-1.0829
20
13.6336
10
-1.0829
20
13.5781
10
-1.3050
20
13.5781
10
-1.3050
20
13.6336
0
LWPOLYLINE
8
STAMP_FACE
90
662
70
1
10
-1.1940
20
13.4115
10
-1.0274
20
13.4115
10
-1.0274
20
13.3559
10
-0.6386
20
13.3559
10
-0.6386
20
13.4115
10
-0.4720
20
13.4115
10
-0.4720
20
13.3559
10
-0.0833
20
13.3559
10
-0.0833
20
13.4115
10
1.6383
20
13.3559
10
1.6383
20
13.3004
10
2.0825
20
13.3004
10
2.0825
20
13.2449
10
2.4157
20
13.3004
10
2.4157
20
13.2449
10
2.9155
20
13.2449
10
2.9155
20
13.1893
10
3.4709
20
13.1893
10
3.4709
20
13.1338
10
3.6930
20
13.1338
10
3.6930
20
13.0783
10
4.4150
20
13.0227
10
4.4150
20
12.9672
10
4.6371
20
12.9672
10
4.6371
20
12.9117
10
5.1369
20
12.9117
10
5.1369
20
12.8561
10
5.2480
20
12.8561
10
5.2480
20
12.8006
10
5.6922
20
12.8006
10
5.6922
20
12.7450
10
5.8588
20
12.7450
10
5.8588
20
12.6895
10
6.4697
20
12.6340
10
6.4697
20
12.5784
10
6.5808
20
12.5784
10
6.5808
20
12.5229
10
6.9695
20
12.5229
10
6.9695
20
12.4674
10
7.3583
20
12.4118
10
7.3583
20
12.3563
10
7.5249
20
12.3563
10
7.5249
20
12.3008
10
7.8581
20
12.3008
10
7.8581
20
12.2452
10
8.1357
20
12.1897
10
8.1357
20
12.1342
10
8.4134
20
12.1342
10
8.4134
20
12.0786
10
8.5800
20
12.0786
10
8.5800
20
12.0231
10
8.6911
20
12.0231
10
8.6911
20
11.9676
10
9.1353
20
11.9120
10
9.1909
20
11.8010
10
9.6351
20
11.7454
10
9.6351
20
11.6899
10
9.7462
20
11.6899
10
9.7462
20
11.6344
10
9.8573
20
11.6344
10
9.8573
20
11.5788
10
9.9683
20
11.5788
10
9.9683
20
11.5233
10
10.1905
20
11.5233
10
10.1905
20
11.4678
10
10.3016
20
11.4678
10
10.3016
20
11.4122
10
10.4126
20
11.4122
10
10.4126
20
11.3567
10
10.6348
20
11.3567
10
10.6903
20
11.2456
10
10.9124
20
11.2456
10
10.9680
20
11.1346
10
11.0790
20
11.1346
10
11.0790
20
11.0790
10
11.1901
20
11.0790
10
11.1901
20
11.0235
10
11.4122
20
11.0235
10
11.4122
20
10.9680
10
11.7454
20
10.8569
10
11.8010
20
10.7458
10
12.1342
20
10.6903
10
12.2452
20
10.5237
10
12.3563
20
10.5237
10
12.3563
20
10.4682
10
12.4674
20
10.4682
10
12.4674
20
10.4126
10
12.6340
20
10.4126
10
12.7450
20
10.2460
10
13.0227
20
10.1905
10
13.0227
20
10.1350
10
13.0783
20
10.1350
10
13.1338
20
10.0239
10
13.2449
20
10.0239
10
13.3559
20
9.8573
10
13.5225
20
9.8573
10
13.6336
20
9.6907
10
13.7447
20
9.6907
10
13.8002
20
9.5796
10
13.9113
20
9.5796
10
13.9113
20
9.5241
10
14.0223
20
9.5241
10
14.0779
20
9.4130
10
14.1889
20
9.4130
10
14.1889
20
9.3575
10
14.2445
20
9.3575
10
14.3000
20
9.2464
10
14.4111
20
9.2464
10
14.5777
20
9.0243
10
14.6887
20
9.0243
10
14.9664
20
8.6911
10
15.0775
20
8.6911
10
15.0775
20
8.6355
10
15.1330
20
8.6355
10
15.1885
20
8.5245
10
15.2996
20
8.5245
10
15.4662
20
8.3023
10
15.5773
20
8.3023
10
15.6328
20
8.1357
10
15.7439
20
8.1357
10
16.1326
20
7.6915
10
16.2437
20
7.6915
10
16.2992
20
7.5249
10
16.7435
20
7.1361
10
16.7435
20
7.0250
10
16.9656
20
6.9140
10
16.9656
20
6.8029
10
17.1878
20
6.6363
10
17.1878
20
6.5252
10
17.2988
20
6.4697
10
17.2988
20
6.3586
10
17.5210
20
6.1920
10
17.5210
20
6.0810
10
17.5765
20
6.0810
10
17.5765
20
5.9699
10
17.6876
20
5.9144
10
17.6876
20
5.8033
10
17.9097
20
5.6367
10
17.9652
20
5.3590
10
18.1318
20
5.2480
10
18.1318
20
5.0814
10
18.2429
20
5.0258
10
18.2984
20
4.8037
10
18.4095
20
4.7482
10
18.4095
20
4.5816
10
18.4650
20
4.5816
10
18.5206
20
4.3594
10
18.6317
20
4.3039
10
18.6317
20
4.1373
10
18.6872
20
4.1373
10
18.6872
20
4.0262
10
18.7427
20
4.0262
10
18.7427
20
3.9151
10
18.7983
20
3.9151
10
18.7983
20
3.6930
10
18.9093
20
3.6375
10
19.0204
20
3.1377
10
19.0759
20
3.1377
10
19.0759
20
3.0266
10
19.1315
20
3.0266
10
19.1315
20
2.7489
10
19.2425
20
2.6934
10
19.2425
20
2.4157
10
19.2981
20
2.4157
10
19.2981
20
2.1936
10
19.3536
20
2.1936
10
19.3536
20
1.8049
10
19.4091
20
1.8049
10
19.4091
20
1.6383
10
19.4647
20
1.6383
10
19.5202
20
0.5276
10
19.5757
20
0.5276
10
19.5757
20
0.0833
10
19.6313
20
0.0833
10
19.5757
20
-0.2499
10
19.5202
20
-0.2499
10
19.5202
20
-0.4165
10
19.5757
20
-0.4165
10
19.5757
20
-0.5831
10
19.5202
20
-0.5831
10
19.5202
20
-1.1940
10
19.4647
20
-1.1940
10
19.4647
20
-1.4161
10
19.4091
20
-1.4161
10
19.3536
20
-2.0270
10
19.2425
20
-2.0825
10
19.2425
20
-2.4713
10
19.1870
20
-2.4713
10
19.1870
20
-2.5823
10
19.1315
20
-2.5823
10
19.1315
20
-2.8045
10
19.0759
20
-2.8045
10
19.0204
20
-3.0821
10
18.9649
20
-3.0821
10
18.9649
20
-3.1932
10
18.9093
20
-3.1932
10
18.9093
20
-3.4153
10
18.7983
20
-3.4709
10
18.7983
20
-3.6375
10
18.7427
20
-3.6375
10
18.7427
20
-3.8041
10
18.6872
20
-3.8041
10
18.6872
20
-3.9151
10
18.6317
20
-3.9151
10
18.6317
20
-4.0817
10
18.4650
20
-4.1928
10
18.4650
20
-4.3594
10
18.4095
20
-4.3594
10
18.3540
20
-4.5816
10
18.2429
20
-4.6371
10
18.2429
20
-4.8037
10
18.1318
20
-4.8592
10
18.1318
20
-5.0258
10
17.9097
20
-5.1924
10
17.8542
20
-5.4146
10
17.7986
20
-5.4146
10
17.7431
20
-5.5812
10
17.5765
20
-5.6922
10
17.5210
20
-5.9144
10
17.2433
20
-6.1365
10
17.1878
20
-6.3586
10
17.0767
20
-6.3586
10
17.0767
20
-6.4142
10
16.9656
20
-6.4697
10
16.9656
20
-6.6363
10
16.2437
20
-7.3027
10
16.2437
20
-7.4138
10
16.1326
20
-7.4138
10
15.9660
20
-7.6915
10
15.8550
20
-7.6915
10
15.4662
20
-8.1357
10
15.3551
20
-8.1357
10
15.3551
20
-8.1913
10
15.2996
20
-8.1913
10
15.1330
20
-8.4134
10
15.0219
20
-8.4134
10
14.7998
20
-8.6911
10
14.6887
20
-8.6911
10
14.5221
20
-8.9132
10
14.4111
20
-8.9132
10
14.1889
20
-9.1909
10
13.9668
20
-9.2464
10
13.8002
20
-9.4685
10
13.6336
20
-9.4685
10
13.5225
20
-9.6351
10
13.4115
20
-9.6351
10
13.4115
20
-9.6907
10
13.2449
20
-9.7462
10
13.1893
20
-9.8573
10
12.9672
20
-9.9128
10
12.9672
20
-9.9683
10
12.8006
20
-10.0239
10
12.7450
20
-10.1350
10
12.4674
20
-10.1905
10
12.4674
20
-10.2460
10
12.3008
20
-10.3016
10
12.1897
20
-10.4682
10
11.9676
20
-10.4682
10
11.9676
20
-10.5237
10
11.8010
20
-10.5792
10
11.7454
20
-10.6903
10
11.5788
20
-10.6903
10
11.5233
20
-10.8014
10
11.2456
20
-10.8569
10
11.2456
20
-10.9124
10
11.1346
20
-10.9124
10
11.0790
20
-11.0235
10
10.9124
20
-11.0235
10
10.8569
20
-11.1346
10
10.6903
20
-11.1346
10
10.6348
20
-11.2456
10
10.4682
20
-11.2456
10
10.4682
20
-11.3012
10
10.3571
20
-11.3012
10
10.3571
20
-11.3567
10
10.2460
20
-11.3567
10
10.2460
20
-11.4122
10
10.0794
20
-11.4122
10
10.0794
20
-11.4678
10
9.9683
20
-11.4678
10
9.9683
20
-11.5233
10
9.8017
20
-11.5233
10
9.8017
20
-11.5788
10
9.6907
20
-11.5788
10
9.6907
20
-11.6344
10
9.4685
20
-11.6344
10
9.4130
20
-11.7454
10
9.0798
20
-11.8010
10
9.0243
20
-11.9120
10
8.6911
20
-11.9676
10
8.6911
20
-12.0231
10
8.5800
20
-12.0231
10
8.5800
20
-12.0786
10
8.1357
20
-12.1342
10
8.1357
20
-12.1897
10
8.0247
20
-12.1897
10
8.0247
20
-12.2452
10
7.8581
20
-12.2452
10
7.8581
20
-12.3008
10
7.6915
20
-12.3008
10
7.6915
20
-12.3563
10
7.4693
20
-12.3563
10
7.4693
20
-12.4118
10
7.3027
20
-12.4118
10
7.3027
20
-12.4674
10
7.0250
20
-12.4674
10
7.0250
20
-12.5229
10
6.9140
20
-12.5229
10
6.9140
20
-12.5784
10
6.4142
20
-12.6340
10
6.4142
20
-12.6895
10
6.2476
20
-12.6895
10
6.2476
20
-12.7450
10
5.6922
20
-12.8006
10
5.6922
20
-12.8561
10
5.4701
20
-12.8561
10
5.4701
20
-12.9117
10
5.1369
20
-12.9117
10
5.1369
20
-12.9672
10
4.9703
20
-12.9672
10
4.9703
20
-13.0227
10
4.5260
20
-13.0227
10
4.5260
20
-13.0783
10
4.3594
20
-13.0783
10
4.3594
20
-13.1338
10
3.4153
20
-13.1893
10
3.4153
20
-13.2449
10
3.1377
20
-13.2449
10
3.1377
20
-13.3004
10
2.3602
20
-13.3004
10
2.3602
20
-13.3559
10
2.1381
20
-13.3559
10
2.1381
20
-13.4115
10
2.0270
20
-13.4115
10
2.0270
20
-13.3559
10
1.8604
20
-13.3559
10
1.8604
20
-13.4115
10
1.2495
20
-13.4115
10
1.2495
20
-13.4670
10
0.9163
20
-13.4670
10
0.9163
20
-13.4115
10
0.5831
20
-13.4115
10
0.5831
20
-13.4670
10
-0.3054
20
-13.4670
10
-0.3054
20
-13.4115
10
-0.6942
20
-13.4670
10
-0.6942
20
-13.4115
10
-0.9718
20
-13.4115
10
-0.9718
20
-13.4670
10
-1.1940
20
-13.4670
10
-1.1940
20
-13.4115
10
-2.9155
20
-13.3559
10
-2.9155
20
-13.3004
10
-3.1377
20
-13.3004
10
-3.1377
20
-13.2449
10
-3.5819
20
-13.2449
10
-3.5819
20
-13.1893
10
-4.0817
20
-13.1893
10
-4.0817
20
-13.1338
10
-4.9703
20
-13.0783
10
-4.9703
20
-13.0227
10
-5.0814
20
-13.0227
10
-5.0814
20
-12.9672
10
-5.5256
20
-12.9672
10
-5.5256
20
-12.9117
10
-5.6922
20
-12.9117
10
-5.6922
20
-12.8561
10
-6.3586
20
-12.8006
10
-6.4142
20
-12.6895
10
-7.0250
20
-12.6340
10
-7.0806
20
-12.5229
10
-7.4138
20
-12.5229
10
-7.4138
20
-12.4674
10
-7.5804
20
-12.4674
10
-7.5804
20
-12.4118
10
-7.6915
20
-12.4118
10
-7.6915
20
-12.3563
10
-8.1913
20
-12.3008
10
-8.1913
20
-12.2452
10
-8.3023
20
-12.2452
10
-8.3023
20
-12.1897
10
-8.4134
20
-12.1897
10
-8.4134
20
-12.1342
10
-8.6911
20
-12.1342
10
-8.6911
20
-12.0786
10
-8.8021
20
-12.0786
10
-8.8021
20
-12.0231
10
-9.0243
20
-12.0231
10
-9.0243
20
-11.9676
10
-9.1353
20
-11.9676
10
-9.1353
20
-11.9120
10
-9.5241
20
-11.8565
10
-9.5241
20
-11.8010
10
-9.6351
20
-11.8010
10
-9.6351
20
-11.7454
10
-9.9128
20
-11.6899
10
-9.9683
20
-11.5788
10
-10.1905
20
-11.5788
10
-10.1905
20
-11.5233
10
-10.3016
20
-11.5233
10
-10.3571
20
-11.4122
10
-10.7458
20
-11.3567
10
-10.8014
20
-11.2456
10
-10.9124
20
-11.2456
10
-10.9124
20
-11.1901
10
-11.0235
20
-11.1901
10
-11.0235
20
-11.1346
10
-11.1901
20
-11.1346
10
-11.1901
20
-11.0790
10
-11.3012
20
-11.0790
10
-11.3567
20
-10.9680
10
-11.7454
20
-10.8569
10
-11.8010
20
-10.7458
10
-12.0786
20
-10.6903
10
-12.1897
20
-10.5237
10
-12.4674
20
-10.4682
10
-12.5229
20
-10.3571
10
-12.7450
20
-10.3016
10
-12.8561
20
-10.1350
10
-13.0783
20
-10.1350
10
-13.1893
20
-9.9683
10
-13.3004
20
-9.9683
10
-13.3559
20
-9.8573
10
-13.5781
20
-9.8017
10
-13.7447
20
-9.5796
10
-13.9668
20
-9.5241
10
-14.1334
20
-9.3019
10
-14.2445
20
-9.3019
10
-14.2445
20
-9.2464
10
-14.3555
20
-9.2464
10
-14.4666
20
-9.0798
10
-14.5777
20
-9.0798
10
-14.7443
20
-8.8577
10
-14.8553
20
-8.8577
10
-15.0219
20
-8.6355
10
-15.1330
20
-8.6355
10
-15.4662
20
-8.2468
10
-15.5773
20
-8.2468
10
-15.9660
20
-7.8025
10
-16.0771
20
-7.8025
10
-16.0771
20
-7.7470
10
-16.1882
20
-7.6915
10
-16.1882
20
-7.5804
10
-16.4658
20
-7.3583
10
-16.4658
20
-7.2472
10
-16.5769
20
-7.2472
10
-16.6324
20
-7.0806
10
-16.7990
20
-7.0250
10
-16.8546
20
-6.8029
10
-17.1322
20
-6.6363
10
-17.1322
20
-6.4697
10
-17.2988
20
-6.4142
10
-17.3544
20
-6.1920
10
-17.5765
20
-6.0254
10
-17.5765
20
-5.8588
10
-17.7986
20
-5.6922
10
-17.7986
20
-5.5256
10
-17.9652
20
-5.4146
10
-18.0763
20
-5.0814
10
-18.1874
20
-5.0258
10
-18.2984
20
-4.6926
10
-18.4095
20
-4.6371
10
-18.4095
20
-4.5260
10
-18.4650
20
-4.5260
10
-18.4650
20
-4.4150
10
-18.5206
20
-4.4150
10
-18.5206
20
-4.3039
10
-18.5761
20
-4.3039
10
-18.5761
20
-4.1373
10
-18.6317
20
-4.1373
10
-18.6872
20
-3.9707
10
-18.7427
20
-3.9707
10
-18.7427
20
-3.7485
10
-18.7983
20
-3.7485
10
-18.8538
20
-3.5819
10
-18.9093
20
-3.5819
10
-18.9093
20
-3.3598
10
-18.9649
20
-3.3598
10
-18.9649
20
-3.1932
10
-19.0204
20
-3.1932
10
-19.0759
20
-2.9155
10
-19.1315
20
-2.9155
10
-19.1315
20
-2.6379
10
-19.1870
20
-2.6379
10
-19.1870
20
-2.5268
10
-19.2425
20
-2.5268
10
-19.2425
20
-2.4157
10
-19.2981
20
-2.4157
10
-19.2981
20
-2.0270
10
-19.3536
20
-2.0270
10
-19.3536
20
-1.9159
10
-19.4091
20
-1.9159
10
-19.4091
20
-1.5272
10
-19.4647
20
-1.5272
10
-19.4647
20
-1.3606
10
-19.5202
20
-1.3606
10
-19.5202
20
-0.8608
10
-19.5757
20
-0.8608
10
-19.5757
20
0.9163
10
-19.5202
20
0.9163
10
-19.5202
20
1.4161
10
-19.4647
20
1.4161
10
-19.4647
20
1.5827
10
-19.4091
20
1.5827
10
-19.4091
20
1.9715
10
-19.3536
20
1.9715
10
-19.2981
20
2.4713
10
-19.2425
20
2.4713
10
-19.2425
20
2.6379
10
-19.1870
20
2.6379
10
-19.1870
20
2.9155
10
-19.1315
20
2.9155
10
-19.1315
20
3.0266
10
-19.0759
20
3.0266
10
-19.0759
20
3.3043
10
-19.0204
20
3.3043
10
-19.0204
20
3.4153
10
-18.9649
20
3.4153
10
-18.9649
20
3.6375
10
-18.9093
20
3.6375
10
-18.9093
20
3.7485
10
-18.8538
20
3.7485
10
-18.8538
20
3.9707
10
-18.7983
20
3.9707
10
-18.7983
20
4.0817
10
-18.7427
20
4.0817
10
-18.6872
20
4.2483
10
-18.6317
20
4.2483
10
-18.6317
20
4.4705
10
-18.5206
20
4.5260
10
-18.4650
20
4.7482
10
-18.3540
20
4.8037
10
-18.3540
20
4.9703
10
-18.2984
20
4.9703
10
-18.2984
20
5.0814
10
-18.2429
20
5.0814
10
-18.1318
20
5.4146
10
-18.0208
20
5.4701
10
-17.9652
20
5.6922
10
-17.9097
20
5.6922
10
-17.8542
20
5.8588
10
-17.6320
20
6.0254
10
-17.6320
20
6.1920
10
-17.4099
20
6.3586
10
-17.4099
20
6.4697
10
-17.2433
20
6.5808
10
-17.2433
20
6.6918
10
-17.0767
20
6.8029
10
-17.0767
20
6.9140
10
-16.8546
20
7.0806
10
-16.8546
20
7.1917
10
-16.7990
20
7.1917
10
-16.6324
20
7.4138
10
-16.5214
20
7.4138
10
-16.4658
20
7.5804
10
-16.2992
20
7.6359
10
-16.2992
20
7.7470
10
-16.2437
20
7.7470
10
-16.0771
20
7.9691
10
-15.9660
20
7.9691
10
-15.7994
20
8.2468
10
-15.6883
20
8.2468
10
-15.5217
20
8.4689
10
-15.4107
20
8.4689
10
-14.9664
20
8.9687
10
-14.8553
20
8.9687
10
-14.7998
20
9.0798
10
-14.6887
20
9.0798
10
-14.5221
20
9.3019
10
-14.3000
20
9.3575
10
-14.1334
20
9.5796
10
-14.0223
20
9.5796
10
-13.9113
20
9.7462
10
-13.6891
20
9.8017
10
-13.5781
20
9.9683
10
-13.3004
20
10.0239
10
-13.2449
20
10.1350
10
-13.1338
20
10.1350
10
-13.1338
20
10.1905
10
-13.0783
20
10.1905
10
-13.0227
20
10.3016
10
-12.9117
20
10.3016
10
-12.8561
20
10.4126
10
-12.6895
20
10.4126
10
-12.6340
20
10.5237
10
-12.3563
20
10.5792
10
-12.2452
20
10.7458
10
-12.0786
20
10.7458
10
-12.0231
20
10.8569
10
-11.9120
20
10.8569
10
-11.9120
20
10.9124
10
-11.8010
20
10.9124
10
-11.8010
20
10.9680
10
-11.6344
20
10.9680
10
-11.5788
20
11.0790
10
-11.3012
20
11.1346
10
-11.2456
20
11.2456
10
-10.9680
20
11.3012
10
-10.9680
20
11.3567
10
-10.8569
20
11.3567
10
-10.8569
20
11.4122
10
-10.6903
20
11.4122
10
-10.6903
20
11.4678
10
-10.5792
20
11.4678
10
-10.5792
20
11.5233
10
-10.4682
20
11.5233
10
-10.4682
20
11.5788
10
-10.0794
20
11.6344
10
-10.0794
20
11.6899
10
-9.9128
20
11.7454
10
-9.9128
20
11.8010
10
-9.6907
20
11.8010
10
-9.6907
20
11.8565
10
-9.5796
20
11.8565
10
-9.5796
20
11.9120
10
-9.3575
20
11.9120
10
-9.3575
20
11.9676
10
-9.0243
20
12.0231
10
-9.0243
20
12.0786
10
-8.7466
20
12.0786
10
-8.6911
20
12.1897
10
-8.4134
20
12.1897
10
-8.4134
20
12.2452
10
-8.3023
20
12.2452
10
-8.3023
20
12.3008
10
-8.1913
20
12.3008
10
-8.1913
20
12.3563
10
-7.8581
20
12.3563
10
-7.8581
20
12.4118
10
-7.7470
20
12.4118
10
-7.7470
20
12.4674
10
-7.4693
20
12.4674
10
-7.4693
20
12.5229
10
-7.3583
20
12.5229
10
-7.3583
20
12.5784
10
-7.1361
20
12.5784
10
-7.1361
20
12.6340
10
-6.9140
20
12.6340
10
-6.9140
20
12.6895
10
-6.5252
20
12.6895
10
-6.5252
20
12.7450
10
-6.3586
20
12.7450
10
-6.3586
20
12.8006
10
-5.9144
20
12.8006
10
-5.9144
20
12.8561
10
-5.7478
20
12.8561
10
-5.7478
20
12.9117
10
-5.3590
20
12.9117
10
-5.3590
20
12.9672
10
-5.2480
20
12.9672
10
-5.2480
20
13.0227
10
-4.9703
20
13.0227
10
-4.9703
20
13.0783
10
-4.2483
20
13.1338
10
-4.2483
20
13.1893
10
-3.1377
20
13.2449
10
-3.1377
20
13.3004
10
-2.5823
20
13.3004
10
-2.5823
20
13.3559
10
-1.9715
20
13.3004
10
-1.9715
20
13.3559
10
-1.1940
20
13.3559
0
LWPOLYLINE
8
STAMP_FACE
90
651
70
1
10
-0.8608
20
13.0783
10
-0.9163
20
13.0783
10
-0.9163
20
13.0227
10
-2.3602
20
13.0227
10
-2.3602
20
12.9672
10
-3.4709
20
12.9117
10
-3.4709
20
12.8561
10
-3.9151
20
12.8561
10
-3.9151
20
12.8006
10
-4.4705
20
12.8006
10
-4.4705
20
12.7450
10
-5.0814
20
12.6895
10
-5.0814
20
12.6340
10
-5.5256
20
12.6340
10
-5.5256
20
12.5784
10
-5.7478
20
12.5784
10
-5.7478
20
12.5229
10
-5.9699
20
12.5229
10
-5.9699
20
12.4674
10
-6.6918
20
12.4118
10
-6.6918
20
12.3563
10
-6.9695
20
12.3008
10
-6.9695
20
12.2452
10
-7.3027
20
12.2452
10
-7.3027
20
12.1897
10
-7.4693
20
12.1897
10
-7.4693
20
12.1342
10
-7.9691
20
12.0786
10
-8.0247
20
11.9676
10
-8.1913
20
11.9676
10
-8.1913
20
11.9120
10
-8.4689
20
11.9120
10
-8.4689
20
11.8565
10
-8.9132
20
11.8010
10
-8.9687
20
11.6899
10
-9.3575
20
11.6344
10
-9.3575
20
11.5788
10
-9.6907
20
11.5233
10
-9.6907
20
11.4678
10
-9.8017
20
11.4678
10
-9.8017
20
11.4122
10
-10.0239
20
11.4122
10
-10.0239
20
11.3567
10
-10.3016
20
11.3012
10
-10.3571
20
11.1901
10
-10.6348
20
11.1346
10
-10.6348
20
11.0790
10
-10.7458
20
11.0790
10
-10.7458
20
11.0235
10
-10.9124
20
11.0235
10
-10.9124
20
10.9680
10
-11.0235
20
10.9680
10
-11.0235
20
10.9124
10
-11.1346
20
10.9124
10
-11.1346
20
10.8569
10
-11.2456
20
10.8569
10
-11.2456
20
10.8014
10
-11.4678
20
10.8014
10
-11.4678
20
10.7458
10
-11.5788
20
10.7458
10
-11.6344
20
10.6348
10
-11.7454
20
10.6348
10
-11.7454
20
10.5792
10
-11.8565
20
10.5792
10
-11.8565
20
10.5237
10
-11.9676
20
10.5237
10
-11.9676
20
10.4682
10
-12.0786
20
10.4682
10
-12.0786
20
10.4126
10
-12.3563
20
10.3571
10
-12.5229
20
10.1350
10
-12.8006
20
10.0794
10
-12.8006
20
10.0239
10
-12.9672
20
9.9683
10
-13.0227
20
9.8573
10
-13.3004
20
9.8017
10
-13.4670
20
9.5796
10
-13.6336
20
9.5796
10
-13.6336
20
9.5241
10
-13.6891
20
9.5241
10
-13.7447
20
9.4130
10
-13.8557
20
9.4130
10
-13.9668
20
9.2464
10
-14.1889
20
9.1909
10
-14.2445
20
9.0243
10
-14.4666
20
8.9687
10
-14.6332
20
8.7466
10
-14.7443
20
8.7466
10
-14.8553
20
8.5800
10
-14.9664
20
8.5800
10
-14.9664
20
8.5245
10
-15.0775
20
8.4689
10
-15.0775
20
8.3579
10
-15.2996
20
8.3023
10
-15.2996
20
8.2468
10
-15.4107
20
8.1913
10
-15.4107
20
8.0802
10
-15.5217
20
8.0802
10
-15.7994
20
7.7470
10
-15.9105
20
7.7470
10
-15.9105
20
7.6359
10
-15.9660
20
7.6359
10
-16.0216
20
7.4693
10
-16.1882
20
7.4693
10
-16.1882
20
7.3583
10
-16.4658
20
7.1917
10
-16.4658
20
7.0806
10
-16.5214
20
7.0806
10
-16.5214
20
7.0250
10
-16.6324
20
6.9695
10
-16.6324
20
6.8584
10
-16.8546
20
6.6918
10
-16.8546
20
6.5808
10
-17.0212
20
6.5252
10
-17.0212
20
6.4142
10
-17.1878
20
6.3031
10
-17.2433
20
6.0810
10
-17.5210
20
5.8588
10
-17.5210
20
5.6922
10
-17.6876
20
5.5812
10
-17.6876
20
5.4146
10
-17.7986
20
5.3590
10
-17.9097
20
5.0258
10
-17.9652
20
5.0258
10
-18.0208
20
4.8592
10
-18.0763
20
4.8592
10
-18.0763
20
4.6926
10
-18.1318
20
4.6926
10
-18.2429
20
4.3594
10
-18.3540
20
4.3039
10
-18.3540
20
4.1373
10
-18.4650
20
4.0817
10
-18.4650
20
3.8596
10
-18.5206
20
3.8596
10
-18.5761
20
3.5819
10
-18.6317
20
3.5819
10
-18.6317
20
3.4153
10
-18.6872
20
3.4153
10
-18.6872
20
3.3043
10
-18.7427
20
3.3043
10
-18.7427
20
3.0821
10
-18.8538
20
3.0266
10
-18.8538
20
2.7489
10
-18.9649
20
2.6934
10
-18.9649
20
2.3602
10
-19.0204
20
2.3602
10
-19.0204
20
2.1936
10
-19.0759
20
2.1936
10
-19.0759
20
1.7493
10
-19.1315
20
1.7493
10
-19.1315
20
1.4717
10
-19.1870
20
1.4717
10
-19.1870
20
1.1940
10
-19.2425
20
1.1940
10
-19.2981
20
-0.5831
10
-19.2425
20
-0.5831
10
-19.2425
20
-0.9163
10
-19.1870
20
-0.9163
10
-19.1870
20
-1.2495
10
-19.1315
20
-1.2495
10
-19.1315
20
-1.6938
10
-19.0759
20
-1.6938
10
-19.0204
20
-2.1936
10
-18.9649
20
-2.1936
10
-18.9649
20
-2.3047
10
-18.9093
20
-2.3047
10
-18.9093
20
-2.6379
10
-18.7983
20
-2.6934
10
-18.7427
20
-3.1932
10
-18.6872
20
-3.1932
10
-18.6872
20
-3.3043
10
-18.6317
20
-3.3043
10
-18.6317
20
-3.4153
10
-18.5761
20
-3.4153
10
-18.5761
20
-3.5264
10
-18.5206
20
-3.5264
10
-18.5206
20
-3.8041
10
-18.4095
20
-3.8596
10
-18.4095
20
-4.0262
10
-18.2984
20
-4.0817
10
-18.2429
20
-4.3594
10
-18.1318
20
-4.4150
10
-18.1318
20
-4.5816
10
-17.9652
20
-4.6926
10
-17.9097
20
-4.9703
10
-17.6876
20
-5.1369
10
-17.6876
20
-5.3590
10
-17.6320
20
-5.3590
10
-17.6320
20
-5.4146
10
-17.5210
20
-5.4701
10
-17.5210
20
-5.5812
10
-17.2988
20
-5.7478
10
-17.2433
20
-6.0254
10
-17.0767
20
-6.0810
10
-17.0212
20
-6.3031
10
-16.7435
20
-6.5252
10
-16.7435
20
-6.6363
10
-16.5214
20
-6.8029
10
-16.5214
20
-6.9140
10
-16.4103
20
-6.9140
10
-16.3548
20
-7.0806
10
-16.2992
20
-7.0806
10
-15.4662
20
-7.9691
10
-15.3551
20
-7.9691
10
-15.3551
20
-8.0247
10
-15.2441
20
-8.0802
10
-15.2441
20
-8.1913
10
-15.1330
20
-8.1913
10
-14.9109
20
-8.4689
10
-14.7998
20
-8.4689
10
-14.6332
20
-8.6911
10
-14.5221
20
-8.6911
10
-14.3000
20
-8.9687
10
-14.0779
20
-9.0243
10
-13.9113
20
-9.2464
10
-13.7447
20
-9.2464
10
-13.6891
20
-9.4130
10
-13.5225
20
-9.4130
10
-13.4115
20
-9.5796
10
-13.2449
20
-9.5796
10
-13.1338
20
-9.7462
10
-12.9117
20
-9.8017
10
-12.9117
20
-9.8573
10
-12.7450
20
-9.9128
10
-12.6895
20
-10.0239
10
-12.5229
20
-10.0239
10
-12.5229
20
-10.0794
10
-12.3563
20
-10.1350
10
-12.3008
20
-10.2460
10
-12.0231
20
-10.3016
10
-12.0231
20
-10.3571
10
-11.9120
20
-10.3571
10
-11.8565
20
-10.4682
10
-11.6899
20
-10.4682
10
-11.6344
20
-10.5792
10
-11.4122
20
-10.6348
10
-11.3567
20
-10.7458
10
-11.1346
20
-10.7458
10
-11.0790
20
-10.8569
10
-10.8014
20
-10.9124
10
-10.7458
20
-11.0235
10
-10.5792
20
-11.0235
10
-10.5237
20
-11.1346
10
-10.3571
20
-11.1346
10
-10.3571
20
-11.1901
10
-10.2460
20
-11.1901
10
-10.2460
20
-11.2456
10
-10.0794
20
-11.2456
10
-10.0239
20
-11.3567
10
-9.6907
20
-11.4122
10
-9.6907
20
-11.4678
10
-9.5796
20
-11.4678
10
-9.5796
20
-11.5233
10
-9.3575
20
-11.5233
10
-9.3019
20
-11.6344
10
-8.9687
20
-11.6899
10
-8.9687
20
-11.7454
10
-8.8577
20
-11.7454
10
-8.8577
20
-11.8010
10
-8.5245
20
-11.8010
10
-8.5245
20
-11.8565
10
-8.3579
20
-11.9120
10
-8.3579
20
-11.9676
10
-7.8025
20
-12.0231
10
-7.8025
20
-12.0786
10
-7.5249
20
-12.1342
10
-7.5249
20
-12.1897
10
-7.4138
20
-12.1897
10
-7.4138
20
-12.2452
10
-7.0806
20
-12.2452
10
-7.0806
20
-12.3008
10
-6.8584
20
-12.3008
10
-6.8584
20
-12.3563
10
-6.5808
20
-12.3563
10
-6.5808
20
-12.4118
10
-6.4697
20
-12.4118
10
-6.4697
20
-12.4674
10
-6.1920
20
-12.4674
10
-6.1920
20
-12.5229
10
-5.9699
20
-12.5229
10
-5.9699
20
-12.5784
10
-5.6367
20
-12.5784
10
-5.6367
20
-12.6340
10
-5.3035
20
-12.6340
10
-5.3035
20
-12.6895
10
-5.0814
20
-12.6895
10
-5.0814
20
-12.7450
10
-4.7482
20
-12.7450
10
-4.7482
20
-12.8006
10
-4.4150
20
-12.8006
10
-4.4150
20
-12.8561
10
-3.9707
20
-12.8561
10
-3.9707
20
-12.9117
10
-3.4709
20
-12.9117
10
-3.4709
20
-12.9672
10
-3.0266
20
-12.9672
10
-3.0266
20
-13.0227
10
-2.5823
20
-13.0227
10
-2.5823
20
-13.0783
10
-0.9163
20
-13.1338
10
-0.9163
20
-13.1893
10
-0.7497
20
-13.1893
10
-0.7497
20
-13.1338
10
-0.4720
20
-13.1338
10
-0.4720
20
-13.1893
10
-0.3054
20
-13.1893
10
-0.3054
20
-13.1338
10
1.1384
20
-13.1338
10
1.1384
20
-13.0783
10
1.5272
20
-13.1338
10
1.5272
20
-13.0783
10
2.2491
20
-13.0783
10
2.2491
20
-13.0227
10
3.3598
20
-12.9672
10
3.3598
20
-12.9117
10
4.2483
20
-12.8561
10
4.2483
20
-12.8006
10
4.6926
20
-12.7450
10
4.6926
20
-12.6895
10
5.1924
20
-12.6895
10
5.1924
20
-12.6340
10
5.3590
20
-12.6340
10
5.3590
20
-12.5784
10
5.6922
20
-12.5784
10
5.6922
20
-12.5229
10
5.8588
20
-12.5229
10
5.8588
20
-12.4674
10
6.3586
20
-12.4118
10
6.3586
20
-12.3563
10
6.4697
20
-12.3563
10
6.4697
20
-12.3008
10
6.8029
20
-12.3008
10
6.8029
20
-12.2452
10
7.0250
20
-12.2452
10
7.0250
20
-12.1897
10
7.1361
20
-12.1897
10
7.1361
20
-12.1342
10
7.3583
20
-12.1342
10
7.3583
20
-12.0786
10
7.5249
20
-12.0786
10
7.5249
20
-12.0231
10
7.7470
20
-12.0231
10
7.7470
20
-11.9676
10
7.9136
20
-11.9676
10
7.9691
20
-11.8565
10
8.3023
20
-11.8565
10
8.3023
20
-11.8010
10
8.4134
20
-11.8010
10
8.4134
20
-11.7454
10
8.5245
20
-11.7454
10
8.5245
20
-11.6899
10
8.7466
20
-11.6899
10
8.7466
20
-11.6344
10
8.8577
20
-11.6344
10
8.8577
20
-11.5788
10
9.0798
20
-11.5788
10
9.0798
20
-11.5233
10
9.1909
20
-11.5233
10
9.1909
20
-11.4678
10
9.3575
20
-11.4678
10
9.3575
20
-11.4122
10
9.4685
20
-11.4122
10
9.4685
20
-11.3567
10
9.5796
20
-11.3567
10
9.5796
20
-11.3012
10
9.8017
20
-11.3012
10
9.8573
20
-11.1901
10
10.0239
20
-11.1901
10
10.0239
20
-11.1346
10
10.1350
20
-11.1346
10
10.1350
20
-11.0790
10
10.3016
20
-11.0790
10
10.3016
20
-11.0235
10
10.4126
20
-11.0235
10
10.4682
20
-10.9124
10
10.5792
20
-10.9124
10
10.5792
20
-10.8569
10
10.6903
20
-10.8569
10
10.6903
20
-10.8014
10
10.9124
20
-10.8014
10
10.9680
20
-10.6903
10
11.0790
20
-10.6903
10
11.0790
20
-10.6348
10
11.1901
20
-10.6348
10
11.1901
20
-10.5792
10
11.3012
20
-10.5792
10
11.3012
20
-10.5237
10
11.4678
20
-10.5237
10
11.5788
20
-10.3571
10
11.8010
20
-10.3571
10
11.8565
20
-10.2460
10
12.0786
20
-10.1905
10
12.1897
20
-10.0239
10
12.3563
20
-10.0239
10
12.3563
20
-9.9683
10
12.4674
20
-9.9683
10
12.5229
20
-9.8573
10
12.6340
20
-9.8573
10
12.6895
20
-9.7462
10
12.8561
20
-9.7462
10
12.9672
20
-9.5796
10
13.3004
20
-9.4685
10
13.5225
20
-9.1909
10
13.6891
20
-9.1909
10
13.6891
20
-9.1353
10
13.8557
20
-9.0798
10
14.0223
20
-8.8577
10
14.1334
20
-8.8577
10
14.1889
20
-8.7466
10
14.3000
20
-8.7466
10
14.5221
20
-8.4689
10
14.7443
20
-8.4134
10
14.9109
20
-8.1357
10
15.1330
20
-8.0802
10
15.1330
20
-8.0247
10
15.4107
20
-7.8025
10
15.4107
20
-7.6915
10
15.6328
20
-7.6359
10
15.6883
20
-7.4693
10
15.7439
20
-7.4693
10
15.7994
20
-7.3583
10
15.9105
20
-7.3583
10
15.9105
20
-7.2472
10
15.9660
20
-7.2472
10
16.2437
20
-6.9140
10
16.3548
20
-6.9140
10
16.3548
20
-6.8029
10
16.5769
20
-6.6363
10
16.5769
20
-6.5252
10
16.7990
20
-6.3586
10
16.7990
20
-6.2476
10
17.0767
20
-6.0254
10
17.0767
20
-5.9144
10
17.1878
20
-5.8588
10
17.1878
20
-5.7478
10
17.4099
20
-5.5812
10
17.4099
20
-5.4146
10
17.5765
20
-5.3035
10
17.5765
20
-5.1924
10
17.6876
20
-5.1369
10
17.7986
20
-4.8037
10
17.9097
20
-4.8037
10
17.9097
20
-4.6926
10
17.9652
20
-4.6926
10
17.9652
20
-4.5816
10
18.0208
20
-4.5816
10
18.0208
20
-4.4705
10
18.0763
20
-4.4705
10
18.1874
20
-4.1373
10
18.2984
20
-4.0817
10
18.3540
20
-3.6930
10
18.5206
20
-3.5819
10
18.5206
20
-3.3043
10
18.6317
20
-3.2487
10
18.7427
20
-2.6934
10
18.7983
20
-2.6934
10
18.8538
20
-2.5268
10
18.9093
20
-2.5268
10
18.9093
20
-2.2491
10
18.9649
20
-2.2491
10
18.9649
20
-2.0825
10
19.0204
20
-2.0825
10
19.0204
20
-1.8049
10
19.0759
20
-1.8049
10
19.0759
20
-1.5272
10
19.1315
20
-1.5272
10
19.1315
20
-1.0274
10
19.1870
20
-1.0274
10
19.1870
20
-0.8052
10
19.2425
20
-0.8052
10
19.2425
20
-0.3054
10
19.2981
20
-0.3054
10
19.2981
20
-0.1388
10
19.2425
20
-0.1388
10
19.2425
20
0.0278
10
19.2981
20
0.0278
10
19.2981
20
0.2499
10
19.2425
20
0.2499
10
19.2981
20
0.5831
10
19.2425
20
0.5831
10
19.2425
20
1.0274
10
19.1870
20
1.0274
10
19.1870
20
1.4161
10
19.1315
20
1.4161
10
19.1315
20
1.6938
10
19.0759
20
1.6938
10
19.0759
20
2.0825
10
19.0204
20
2.0825
10
19.0204
20
2.2491
10
18.9649
20
2.2491
10
18.9649
20
2.5823
10
18.9093
20
2.5823
10
18.9093
20
2.6934
10
18.8538
20
2.6934
10
18.8538
20
2.8045
10
18.7983
20
2.8045
10
18.7427
20
3.2487
10
18.6317
20
3.3043
10
18.6317
20
3.5264
10
18.5761
20
3.5264
10
18.5761
20
3.6375
10
18.5206
20
3.6375
10
18.5206
20
3.7485
10
18.4650
20
3.7485
10
18.4650
20
3.8596
10
18.4095
20
3.8596
10
18.4095
20
4.0262
10
18.3540
20
4.0262
10
18.2429
20
4.3594
10
18.1318
20
4.4150
10
18.0763
20
4.7482
10
18.0208
20
4.7482
10
17.9652
20
4.9148
10
17.7986
20
5.0258
10
17.7431
20
5.3035
10
17.5210
20
5.4701
10
17.5210
20
5.6922
10
17.2988
20
5.8588
10
17.2988
20
5.9699
10
17.2433
20
5.9699
10
17.1878
20
6.1365
10
16.9656
20
6.3031
10
16.9656
20
6.4142
10
16.7435
20
6.5808
10
16.7435
20
6.6918
10
16.4103
20
6.9695
10
16.4103
20
7.0806
10
16.3548
20
7.0806
10
16.0771
20
7.4138
10
15.9105
20
7.4693
10
15.9105
20
7.5804
10
15.8550
20
7.5804
10
15.7994
20
7.6915
10
15.6883
20
7.6915
10
15.6883
20
7.7470
10
15.5773
20
7.8025
10
15.5773
20
7.9136
10
15.4662
20
7.9136
10
15.3551
20
8.0802
10
15.2441
20
8.0802
10
15.2441
20
8.1357
10
15.1330
20
8.1913
10
15.1330
20
8.3023
10
14.9664
20
8.3023
10
14.5777
20
8.7466
10
14.4111
20
8.7466
10
14.4111
20
8.8021
10
14.3555
20
8.8021
10
14.3000
20
8.9132
10
14.1889
20
8.9132
10
13.9668
20
9.1909
10
13.8002
20
9.1909
10
13.7447
20
9.3575
10
13.6336
20
9.3575
10
13.6336
20
9.4130
10
13.4115
20
9.4685
10
13.3004
20
9.6351
10
12.9672
20
9.7462
10
12.8006
20
9.9683
10
12.5784
20
9.9683
10
12.4118
20
10.1905
10
12.2452
20
10.1905
10
12.2452
20
10.2460
10
12.0231
20
10.3016
10
11.9120
20
10.4682
10
11.6899
20
10.4682
10
11.6899
20
10.5237
10
11.5788
20
10.5237
10
11.5788
20
10.5792
10
11.4678
20
10.5792
10
11.4678
20
10.6348
10
11.3567
20
10.6348
10
11.3567
20
10.6903
10
11.2456
20
10.6903
10
11.2456
20
10.7458
10
11.0790
20
10.7458
10
11.0235
20
10.8569
10
10.8569
20
10.8569
10
10.8569
20
10.9124
10
10.7458
20
10.9124
10
10.7458
20
10.9680
10
10.6348
20
10.9680
10
10.6348
20
11.0235
10
10.4682
20
11.0235
10
10.4126
20
11.1346
10
10.1350
20
11.1346
10
10.0239
20
11.3012
10
9.6907
20
11.3012
10
9.6907
20
11.3567
10
9.5796
20
11.3567
10
9.5796
20
11.4122
10
9.4685
20
11.4122
10
9.4685
20
11.4678
10
9.0798
20
11.5233
10
9.0798
20
11.5788
10
8.9132
20
11.5788
10
8.9132
20
11.6344
10
8.7466
20
11.6344
10
8.7466
20
11.6899
10
8.5245
20
11.6899
10
8.5245
20
11.7454
10
8.4134
20
11.7454
10
8.4134
20
11.8010
10
8.0247
20
11.8565
10
8.0247
20
11.9120
10
7.9136
20
11.9120
10
7.9136
20
11.9676
10
7.3027
20
12.0231
10
7.3027
20
12.0786
10
7.1917
20
12.0786
10
7.1917
20
12.1342
10
6.8584
20
12.1342
10
6.8584
20
12.1897
10
6.7474
20
12.1897
10
6.7474
20
12.2452
10
6.1920
20
12.3008
10
6.1920
20
12.3563
10
6.0254
20
12.3563
10
6.0254
20
12.4118
10
5.5812
20
12.4118
10
5.5812
20
12.4674
10
5.4146
20
12.4674
10
5.4146
20
12.5229
10
5.3035
20
12.5229
10
5.3035
20
12.5784
10
5.1369
20
12.5784
10
5.1369
20
12.5229
10
5.0814
20
12.5229
10
5.0814
20
12.5784
10
4.6926
20
12.5784
10
4.6371
20
12.6895
10
4.1373
20
12.6895
10
4.1373
20
12.7450
10
3.8041
20
12.7450
10
3.8041
20
12.8006
10
3.2487
20
12.8006
10
3.2487
20
12.8561
10
2.2491
20
12.9117
10
2.2491
20
12.9672
10
1.3050
20
12.9672
10
1.3050
20
13.0227
10
1.0274
20
13.0227
10
1.0274
20
13.0783
10
0.8608
20
13.0783
10
0.8608
20
13.0227
10
0.1944
20
13.0227
10
0.1944
20
13.0783
10
-0.0278
20
13.0783
10
-0.0278
20
13.0227
10
-0.6386
20
13.0227
10
-0.6386
20
13.0783
0
LWPOLYLINE
8
STAMP_FACE
90
70
70
1
10
-0.1388
20
12.3563
10
0.1388
20
12.3563
10
0.1388
20
12.3008
10
0.1944
20
12.3008
10
0.1944
20
12.1342
10
0.0833
20
12.0786
10
0.0833
20
11.7454
10
0.0278
20
11.7454
10
0.0278
20
11.3012
10
0.0833
20
11.3012
10
0.0833
20
9.9683
10
0.0278
20
9.9683
10
-0.0278
20
9.6351
10
-0.0833
20
9.6351
10
-0.1944
20
9.4685
10
-0.4720
20
9.4130
10
-0.4720
20
9.3575
10
-1.1940
20
9.3575
10
-1.1940
20
9.4130
10
-1.3606
20
9.4130
10
-1.3606
20
9.4685
10
-1.6383
20
9.5241
10
-1.6383
20
9.5796
10
-1.7493
20
9.6351
10
-1.7493
20
9.9128
10
-1.5827
20
10.0239
10
-1.5827
20
10.4682
10
-1.5272
20
10.4682
10
-1.5272
20
10.5237
10
-1.3606
20
10.4682
10
-1.3606
20
10.3571
10
-1.3050
20
10.3571
10
-1.3050
20
9.9683
10
-1.2495
20
9.9683
10
-1.1384
20
9.8017
10
-0.6386
20
9.7462
10
-0.6386
20
9.8017
10
-0.4720
20
9.8017
10
-0.4720
20
9.8573
10
-0.3054
20
9.9128
10
-0.3054
20
10.0239
10
-0.2499
20
10.0239
10
-0.2499
20
10.8014
10
-0.4165
20
10.8014
10
-0.4165
20
10.8569
10
-0.5276
20
10.8569
10
-0.5276
20
10.9124
10
-0.8608
20
10.9680
10
-0.8608
20
11.0235
10
-0.9718
20
11.0235
10
-0.9718
20
11.0790
10
-1.1940
20
11.0790
10
-1.3050
20
11.3012
10
-1.2495
20
11.3012
10
-1.1384
20
11.4678
10
-1.0274
20
11.4678
10
-0.9718
20
11.5788
10
-0.7497
20
11.5788
10
-0.6942
20
11.4122
10
-0.6386
20
11.4122
10
-0.4720
20
11.1901
10
-0.3054
20
11.1901
10
-0.3054
20
11.5788
10
-0.3610
20
11.5788
10
-0.3610
20
11.7454
10
-0.4165
20
11.7454
10
-0.4720
20
12.1342
10
-0.4165
20
12.1342
10
-0.3610
20
12.2452
10
-0.1388
20
12.3008
0
LWPOLYLINE
8
STAMP_FACE
90
58
70
1
10
0.6942
20
12.0231
10
0.9163
20
12.0231
10
0.9163
20
11.9676
10
0.9718
20
11.9676
10
0.9718
20
11.8010
10
0.8608
20
11.7454
10
0.8052
20
11.1901
10
0.9163
20
11.1901
10
0.9163
20
11.1346
10
1.1940
20
11.1346
10
1.1940
20
11.0790
10
1.5272
20
11.0790
10
1.5272
20
11.0235
10
1.6383
20
10.9680
10
1.6383
20
10.8569
10
1.5827
20
10.8569
10
1.4717
20
10.6903
10
0.8052
20
10.7458
10
0.8052
20
10.0794
10
0.9718
20
10.0794
10
0.9718
20
10.0239
10
1.1384
20
10.0239
10
1.1384
20
9.9683
10
1.3606
20
9.9683
10
1.3606
20
9.9128
10
1.6938
20
9.9128
10
1.6938
20
9.8573
10
1.7493
20
9.8573
10
1.7493
20
9.7462
10
1.6938
20
9.7462
10
1.6938
20
9.6907
10
1.5827
20
9.6351
10
1.5827
20
9.5241
10
1.4161
20
9.4685
10
1.4161
20
9.4130
10
1.3050
20
9.4130
10
1.3050
20
9.4685
10
0.9718
20
9.5796
10
0.9163
20
9.6907
10
0.6942
20
9.7462
10
0.6386
20
9.8573
10
0.5276
20
9.8573
10
0.4165
20
10.0239
10
0.2499
20
10.0794
10
0.2499
20
10.2460
10
0.3054
20
10.2460
10
0.3054
20
10.3016
10
0.4720
20
10.3016
10
0.4720
20
10.9124
10
0.4165
20
10.9124
10
0.4720
20
11.3567
10
0.4165
20
11.3567
10
0.3610
20
11.8565
10
0.4165
20
11.8565
10
0.4165
20
11.9120
10
0.5831
20
11.9120
10
0.5831
20
11.9676
10
0.6942
20
11.9676
0
LWPOLYLINE
8
STAMP_FACE
90
56
70
1
10
-9.1353
20
11.0235
10
-8.9132
20
11.0235
10
-8.8577
20
10.7458
10
-8.8021
20
10.7458
10
-8.4134
20
10.3016
10
-8.3023
20
10.3016
10
-8.2468
20
10.1905
10
-8.1357
20
10.1905
10
-8.0247
20
10.0239
10
-7.7470
20
9.9683
10
-7.7470
20
9.9128
10
-7.5249
20
9.9128
10
-7.5249
20
9.8573
10
-7.4693
20
9.8573
10
-7.4693
20
9.4685
10
-7.5249
20
9.4685
10
-7.5804
20
9.3575
10
-7.6915
20
9.3575
10
-7.6915
20
9.4130
10
-9.4130
20
9.4130
10
-9.4130
20
9.3575
10
-9.5796
20
9.3575
10
-9.5796
20
9.3019
10
-9.6351
20
9.3019
10
-9.6351
20
9.1353
10
-9.6907
20
9.1353
10
-9.7462
20
8.9687
10
-10.0239
20
9.0243
10
-10.0239
20
9.1353
10
-10.0794
20
9.1353
10
-10.0794
20
9.4130
10
-10.0239
20
9.4130
10
-9.9683
20
9.7462
10
-9.9128
20
9.7462
10
-9.5241
20
10.1905
10
-9.3019
20
10.1350
10
-9.3019
20
9.9128
10
-9.4130
20
9.8573
10
-9.4130
20
9.6907
10
-9.1909
20
9.6907
10
-9.1909
20
9.7462
10
-8.5800
20
9.7462
10
-8.5800
20
9.8017
10
-8.4689
20
9.8017
10
-8.4689
20
9.9683
10
-8.5245
20
9.9683
10
-8.5800
20
10.0794
10
-8.8021
20
10.1350
10
-8.8577
20
10.2460
10
-8.9687
20
10.2460
10
-8.9687
20
10.3016
10
-9.1353
20
10.3571
10
-9.1909
20
10.4682
10
-9.3575
20
10.4682
10
-9.3575
20
10.8014
10
-9.3019
20
10.8014
0
LWPOLYLINE
8
STAMP_FACE
90
166
70
1
10
9.4685
20
10.8569
10
9.6907
20
10.8569
10
9.6907
20
10.8014
10
9.7462
20
10.8014
10
9.7462
20
10.5792
10
9.6351
20
10.5792
10
9.5796
20
10.4682
10
9.4685
20
10.4682
10
9.4130
20
10.3571
10
9.3019
20
10.3571
10
9.3019
20
10.1905
10
9.5241
20
10.1905
10
9.5796
20
10.0794
10
9.7462
20
10.0794
10
9.7462
20
10.0239
10
10.0239
20
9.9683
10
10.0239
20
9.9128
10
10.1350
20
9.9128
10
10.1350
20
9.8573
10
10.3016
20
9.8573
10
10.3016
20
9.8017
10
10.4126
20
9.8017
10
10.4126
20
9.7462
10
10.7458
20
9.6907
10
10.7458
20
9.4130
10
10.6348
20
9.4130
10
10.6348
20
9.3575
10
10.3571
20
9.3575
10
10.3571
20
9.4130
10
10.2460
20
9.4130
10
10.2460
20
9.4685
10
10.0794
20
9.4685
10
10.0794
20
9.5241
10
9.8573
20
9.5796
10
9.8017
20
9.6907
10
9.6351
20
9.6907
10
9.5796
20
9.8017
10
9.2464
20
9.8573
10
9.1909
20
9.4685
10
9.3575
20
9.4685
10
9.3575
20
9.4130
10
9.5241
20
9.4130
10
9.5241
20
9.3575
10
9.8017
20
9.3575
10
9.8017
20
9.3019
10
9.9128
20
9.3019
10
9.9128
20
9.1909
10
9.9683
20
9.1909
10
9.9128
20
9.0243
10
9.8573
20
9.0243
10
9.8017
20
8.8577
10
9.7462
20
8.8577
10
9.7462
20
8.6355
10
9.6907
20
8.6355
10
9.6907
20
8.4689
10
9.7462
20
8.4689
10
9.7462
20
8.4134
10
9.6907
20
8.4134
10
9.5796
20
8.0802
10
9.3575
20
8.0247
10
9.3575
20
8.0802
10
9.2464
20
8.1357
10
9.3019
20
8.6355
10
9.3575
20
8.6355
10
9.3575
20
8.7466
10
9.4130
20
8.7466
10
9.4130
20
9.0798
10
9.2464
20
9.1353
10
9.2464
20
9.1909
10
9.0243
20
9.1909
10
8.9687
20
8.8021
10
8.9132
20
8.8021
10
8.9132
20
8.6355
10
8.8577
20
8.6355
10
8.8577
20
8.4134
10
8.7466
20
8.3579
10
8.6911
20
7.9136
10
8.6355
20
7.9136
10
8.6355
20
7.8025
10
8.5800
20
7.8025
10
8.5245
20
7.4693
10
8.3579
20
7.3583
10
8.3579
20
7.4138
10
8.2468
20
7.4693
10
8.2468
20
7.8581
10
8.3023
20
7.8581
10
8.3023
20
8.0802
10
8.3579
20
8.0802
10
8.3579
20
8.2468
10
8.4134
20
8.2468
10
8.4134
20
8.4134
10
8.4689
20
8.4134
10
8.4689
20
8.6355
10
8.5245
20
8.6355
10
8.5245
20
8.7466
10
8.5800
20
8.7466
10
8.5800
20
8.9687
10
8.6355
20
8.9687
10
8.6355
20
9.1353
10
8.6911
20
9.1353
10
8.6911
20
9.4130
10
8.4134
20
9.4685
10
8.4134
20
9.5241
10
8.1913
20
9.5241
10
8.1913
20
9.3575
10
8.1357
20
9.3575
10
8.1357
20
9.2464
10
8.0802
20
9.2464
10
8.0802
20
8.8577
10
8.3023
20
8.8577
10
8.3579
20
8.6911
10
8.1913
20
8.6355
10
8.1913
20
8.5800
10
8.0247
20
8.5800
10
8.0247
20
8.5245
10
7.8581
20
8.4689
10
7.8581
20
8.4134
10
7.6359
20
8.4689
10
7.5804
20
8.9687
10
7.6359
20
8.9687
10
7.6359
20
9.1353
10
7.6915
20
9.1353
10
7.6915
20
9.2464
10
7.7470
20
9.2464
10
7.8025
20
9.8017
10
7.8581
20
9.8017
10
7.8581
20
9.8573
10
8.3023
20
9.9128
10
8.3023
20
9.8573
10
8.4689
20
9.8573
10
8.4689
20
9.8017
10
8.5800
20
9.8017
10
8.5800
20
9.7462
10
8.6911
20
9.7462
10
8.6911
20
9.6907
10
8.8577
20
9.6907
10
8.8577
20
10.0794
10
8.6911
20
10.0794
10
8.6911
20
10.1350
10
8.5245
20
10.1350
10
8.5245
20
10.1905
10
8.3023
20
10.1905
10
8.3023
20
10.2460
10
8.1357
20
10.2460
10
8.1357
20
10.3016
10
7.6915
20
10.3016
10
7.6915
20
10.3571
10
7.5249
20
10.3571
10
7.5249
20
10.4126
10
7.4693
20
10.4126
10
7.4693
20
10.6348
10
7.6359
20
10.6903
10
7.6359
20
10.7458
10
8.0802
20
10.7458
10
8.1357
20
10.6348
10
8.4134
20
10.6348
10
8.4689
20
10.5237
10
8.6355
20
10.5237
10
8.6355
20
10.4682
10
8.7466
20
10.4682
10
8.7466
20
10.4126
10
8.9687
20
10.4126
10
9.0243
20
10.6903
10
9.0798
20
10.6903
10
9.1353
20
10.8014
10
9.4685
20
10.8014
0
LWPOLYLINE
8
STAMP_FACE
90
26
70
1
10
-7.9136
20
9.0798
10
-7.6359
20
9.0798
10
-7.5804
20
7.7470
10
-7.7470
20
7.6915
10
-7.8025
20
7.8025
10
-8.3023
20
7.8025
10
-8.3023
20
7.7470
10
-8.5800
20
7.7470
10
-8.5800
20
7.6915
10
-8.8021
20
7.6915
10
-8.8021
20
7.6359
10
-8.9687
20
7.6359
10
-8.9687
20
7.5804
10
-9.1909
20
7.6359
10
-9.1909
20
8.0247
10
-9.2464
20
8.0247
10
-9.4130
20
8.2468
10
-9.5241
20
8.2468
10
-9.5241
20
8.3023
10
-9.6907
20
8.3579
10
-9.6907
20
8.5800
10
-9.6351
20
8.5800
10
-9.3575
20
8.9132
10
-8.0247
20
8.9687
10
-8.0247
20
9.0243
10
-7.9136
20
9.0243
0
LWPOLYLINE
8
STAMP_FACE
90
17
70
1
10
-8.3023
20
8.6911
10
-8.3579
20
8.6911
10
-8.3579
20
8.6355
10
-8.9687
20
8.6355
10
-8.9687
20
8.3579
10
-8.9132
20
8.3579
10
-8.9132
20
8.2468
10
-8.8577
20
8.2468
10
-8.8577
20
8.1357
10
-8.8021
20
8.1357
10
-8.7466
20
8.0247
10
-8.4689
20
8.0247
10
-8.4689
20
8.0802
10
-8.0802
20
8.0802
10
-8.0802
20
8.1357
10
-7.9691
20
8.1357
10
-8.0247
20
8.6911
0
LWPOLYLINE
8
STAMP_FACE
90
462
70
1
10
-0.1944
20
8.5800
10
0.0278
20
8.5800
10
0.0278
20
8.5245
10
0.2499
20
8.5245
10
0.2499
20
8.5800
10
0.4165
20
8.5800
10
0.4165
20
8.5245
10
1.2495
20
8.5245
10
1.2495
20
8.4689
10
1.7493
20
8.5245
10
1.7493
20
8.4689
10
2.3047
20
8.4689
10
2.3047
20
8.4134
10
2.6379
20
8.4134
10
2.6379
20
8.3579
10
3.4709
20
8.3023
10
3.4709
20
8.2468
10
4.0262
20
8.1913
10
4.0262
20
8.1357
10
4.2483
20
8.1357
10
4.2483
20
8.0802
10
4.5816
20
8.0802
10
4.5816
20
8.0247
10
4.8037
20
8.0247
10
4.8037
20
7.9691
10
5.1924
20
7.9691
10
5.1924
20
7.9136
10
5.3035
20
7.9136
10
5.3035
20
7.8581
10
5.4146
20
7.8581
10
5.4146
20
7.8025
10
5.9699
20
7.7470
10
5.9699
20
7.6915
10
6.0810
20
7.6915
10
6.0810
20
7.6359
10
6.4142
20
7.6359
10
6.4697
20
7.5249
10
6.6363
20
7.5249
10
6.6363
20
7.4693
10
6.8029
20
7.4693
10
6.8029
20
7.4138
10
7.0806
20
7.4138
10
7.1361
20
7.3027
10
7.3027
20
7.3027
10
7.3027
20
7.2472
10
7.5804
20
7.2472
10
7.6359
20
7.1361
10
7.8581
20
7.1361
10
7.8581
20
7.0806
10
8.1357
20
7.0250
10
8.1357
20
6.9695
10
8.2468
20
6.9695
10
8.2468
20
6.9140
10
8.3579
20
6.9140
10
8.3579
20
6.8584
10
8.5800
20
6.8584
10
8.6355
20
6.7474
10
8.7466
20
6.7474
10
8.7466
20
6.6918
10
8.8577
20
6.6918
10
8.8577
20
6.6363
10
9.0798
20
6.6363
10
9.0798
20
6.5808
10
9.2464
20
6.5252
10
9.3019
20
6.4142
10
9.5241
20
6.4142
10
9.6907
20
6.1920
10
9.8573
20
6.1920
10
9.9128
20
6.0810
10
10.0794
20
6.0810
10
10.1905
20
5.9144
10
10.3016
20
5.9144
10
10.3571
20
5.8033
10
10.5792
20
5.7478
10
10.5792
20
5.6367
10
10.7458
20
5.6367
10
10.9680
20
5.3590
10
11.0790
20
5.3590
10
11.2456
20
5.1369
10
11.3567
20
5.1369
10
11.3567
20
5.0814
10
11.4678
20
5.0258
10
11.4678
20
4.9148
10
11.5788
20
4.9148
10
11.5788
20
4.8592
10
11.8010
20
4.6926
10
11.8010
20
4.5816
10
12.0231
20
4.5260
10
12.0231
20
4.3594
10
12.3563
20
4.1373
10
12.3563
20
3.9707
10
12.6895
20
3.6930
10
12.6895
20
3.5819
10
12.8006
20
3.5264
10
12.8561
20
3.3043
10
13.0227
20
3.1932
10
13.0227
20
3.0266
10
13.1338
20
2.9711
10
13.1338
20
2.8600
10
13.1893
20
2.8600
10
13.1893
20
2.7489
10
13.2449
20
2.7489
10
13.2449
20
2.5823
10
13.3559
20
2.5268
10
13.3559
20
2.3602
10
13.4115
20
2.3602
10
13.4115
20
2.2491
10
13.5225
20
2.1936
10
13.5225
20
1.9159
10
13.5781
20
1.9159
10
13.5781
20
1.8049
10
13.6336
20
1.8049
10
13.6336
20
1.5827
10
13.7447
20
1.5272
10
13.8002
20
0.5276
10
13.8557
20
0.5276
10
13.8557
20
0.0833
10
13.9113
20
0.0833
10
13.9113
20
-0.0278
10
13.8557
20
-0.0278
10
13.8002
20
-0.9163
10
13.7447
20
-0.9163
10
13.7447
20
-1.1940
10
13.6891
20
-1.1940
10
13.6891
20
-1.4161
10
13.6336
20
-1.4161
10
13.6336
20
-1.6938
10
13.4670
20
-1.8049
10
13.4670
20
-2.0270
10
13.4115
20
-2.0270
10
13.4115
20
-2.1381
10
13.3559
20
-2.1381
10
13.3559
20
-2.3047
10
13.3004
20
-2.3047
10
13.3004
20
-2.4157
10
13.1893
20
-2.4713
10
13.1893
20
-2.6379
10
13.0783
20
-2.6934
10
13.0227
20
-2.9155
10
12.8561
20
-3.0266
10
12.8006
20
-3.3043
10
12.5784
20
-3.4709
10
12.5229
20
-3.6930
10
12.3563
20
-3.7485
10
12.3563
20
-3.8596
10
12.1897
20
-3.9707
10
12.1897
20
-4.0817
10
12.0231
20
-4.1373
10
11.9676
20
-4.3039
10
11.9120
20
-4.3039
10
11.5788
20
-4.6926
10
11.4678
20
-4.6926
10
11.4678
20
-4.8037
10
11.3567
20
-4.8037
10
11.1901
20
-5.0258
10
11.0790
20
-5.0258
10
11.0790
20
-5.1369
10
10.9124
20
-5.1924
10
10.7458
20
-5.4146
10
10.5792
20
-5.4146
10
10.5792
20
-5.5256
10
10.3571
20
-5.5812
10
10.2460
20
-5.7478
10
10.0239
20
-5.8033
10
9.9128
20
-5.9699
10
9.6907
20
-6.0254
10
9.5796
20
-6.1920
10
9.4130
20
-6.1920
10
9.3019
20
-6.3586
10
9.1353
20
-6.3586
10
9.0243
20
-6.5252
10
8.8577
20
-6.5252
10
8.8577
20
-6.5808
10
8.7466
20
-6.5808
10
8.7466
20
-6.6363
10
8.5800
20
-6.6363
10
8.4689
20
-6.8029
10
8.2468
20
-6.8029
10
8.2468
20
-6.8584
10
8.1357
20
-6.8584
10
8.1357
20
-6.9140
10
7.9691
20
-6.9140
10
7.8581
20
-7.0806
10
7.6359
20
-7.0806
10
7.6359
20
-7.1361
10
7.4693
20
-7.1361
10
7.4693
20
-7.1917
10
7.3583
20
-7.1917
10
7.3583
20
-7.2472
10
7.1361
20
-7.2472
10
7.0806
20
-7.3583
10
6.8584
20
-7.3583
10
6.8029
20
-7.4693
10
6.5252
20
-7.4693
10
6.5252
20
-7.5249
10
6.4142
20
-7.5249
10
6.4142
20
-7.5804
10
6.3031
20
-7.5804
10
6.3031
20
-7.6359
10
5.9144
20
-7.6915
10
5.9144
20
-7.7470
10
5.7478
20
-7.7470
10
5.7478
20
-7.8025
10
5.5812
20
-7.8025
10
5.5812
20
-7.8581
10
5.3590
20
-7.8581
10
5.3590
20
-7.9136
10
5.1924
20
-7.9136
10
5.1924
20
-7.9691
10
5.0258
20
-7.9691
10
5.0258
20
-8.0247
10
4.6371
20
-8.0247
10
4.6371
20
-8.0802
10
4.5260
20
-8.0802
10
4.5260
20
-8.1357
10
3.9151
20
-8.1913
10
3.9151
20
-8.2468
10
3.8041
20
-8.2468
10
3.8041
20
-8.3023
10
3.3598
20
-8.3023
10
3.3598
20
-8.3579
10
3.0821
20
-8.3579
10
3.0821
20
-8.4134
10
2.6379
20
-8.4134
10
2.6379
20
-8.4689
10
2.4157
20
-8.4689
10
2.4157
20
-8.5245
10
1.8049
20
-8.5245
10
1.8049
20
-8.5800
10
1.1940
20
-8.5800
10
1.1940
20
-8.6355
10
0.9163
20
-8.6355
10
0.9163
20
-8.5800
10
0.6942
20
-8.5800
10
0.6942
20
-8.6355
10
-0.9718
20
-8.6355
10
-0.9718
20
-8.5800
10
-1.5272
20
-8.6355
10
-1.5272
20
-8.5800
10
-1.9159
20
-8.5800
10
-1.9159
20
-8.6355
10
-2.0270
20
-8.6355
10
-2.0270
20
-8.5800
10
-2.3047
20
-8.5800
10
-2.3047
20
-8.5245
10
-3.0266
20
-8.5245
10
-3.0266
20
-8.4689
10
-3.3598
20
-8.4689
10
-3.3598
20
-8.4134
10
-3.7485
20
-8.4134
10
-3.7485
20
-8.3579
10
-4.0262
20
-8.3579
10
-4.0262
20
-8.3023
10
-4.2483
20
-8.3023
10
-4.2483
20
-8.2468
10
-4.5816
20
-8.2468
10
-4.5816
20
-8.1913
10
-4.8592
20
-8.1913
10
-4.8592
20
-8.1357
10
-5.0258
20
-8.1357
10
-5.0258
20
-8.0802
10
-5.5256
20
-8.0247
10
-5.5256
20
-7.9691
10
-5.6922
20
-7.9691
10
-5.6922
20
-7.9136
10
-6.0254
20
-7.9136
10
-6.0810
20
-7.8025
10
-6.5808
20
-7.7470
10
-6.5808
20
-7.6915
10
-6.6918
20
-7.6915
10
-6.7474
20
-7.5804
10
-6.9695
20
-7.5804
10
-6.9695
20
-7.5249
10
-7.3027
20
-7.4693
10
-7.3027
20
-7.4138
10
-7.4138
20
-7.4138
10
-7.4138
20
-7.3583
10
-7.6915
20
-7.3027
10
-7.6915
20
-7.2472
10
-7.8581
20
-7.1917
10
-7.8581
20
-7.1361
10
-8.0802
20
-7.1361
10
-8.1357
20
-7.0250
10
-8.3579
20
-7.0250
10
-8.3579
20
-6.9695
10
-8.4689
20
-6.9695
10
-8.5245
20
-6.8584
10
-8.6911
20
-6.8584
10
-8.8021
20
-6.6918
10
-9.0798
20
-6.6918
10
-9.0798
20
-6.6363
10
-9.2464
20
-6.5808
10
-9.3019
20
-6.4697
10
-9.5796
20
-6.4142
10
-9.6907
20
-6.2476
10
-9.9683
20
-6.1920
10
-10.0239
20
-6.0254
10
-10.1905
20
-6.0254
10
-10.3016
20
-5.8588
10
-10.5237
20
-5.8033
10
-10.6903
20
-5.5812
10
-10.8569
20
-5.5812
10
-10.8569
20
-5.5256
10
-10.9680
20
-5.4701
10
-10.9680
20
-5.3590
10
-11.1901
20
-5.3035
10
-11.3012
20
-5.0814
10
-11.5233
20
-5.0258
10
-11.5788
20
-4.8592
10
-11.6344
20
-4.8592
10
-11.6899
20
-4.7482
10
-11.8010
20
-4.7482
10
-11.8010
20
-4.6926
10
-11.9120
20
-4.6371
10
-11.9120
20
-4.5260
10
-12.0786
20
-4.4705
10
-12.0786
20
-4.3594
10
-12.3008
20
-4.1928
10
-12.3008
20
-4.0817
10
-12.4118
20
-4.0817
10
-12.4118
20
-4.0262
10
-12.5229
20
-3.9707
10
-12.5229
20
-3.8596
10
-12.5784
20
-3.8596
10
-12.5784
20
-3.7485
10
-12.6895
20
-3.6930
10
-12.6895
20
-3.5819
10
-12.9117
20
-3.4709
10
-12.9672
20
-3.1932
10
-13.0783
20
-3.1377
10
-13.0783
20
-3.0266
10
-13.1893
20
-2.9711
10
-13.1893
20
-2.8600
10
-13.2449
20
-2.8600
10
-13.2449
20
-2.7489
10
-13.3004
20
-2.7489
10
-13.3004
20
-2.5823
10
-13.4670
20
-2.4713
10
-13.5225
20
-2.1381
10
-13.6336
20
-2.0825
10
-13.6336
20
-1.9159
10
-13.6891
20
-1.9159
10
-13.6891
20
-1.6383
10
-13.7447
20
-1.6383
10
-13.7447
20
-1.5272
10
-13.8002
20
-1.5272
10
-13.8002
20
-1.4161
10
-13.8557
20
-1.4161
10
-13.9113
20
-0.6942
10
-13.9668
20
-0.6942
10
-13.9668
20
-0.5276
10
-14.0223
20
-0.5276
10
-14.0223
20
0.4720
10
-13.9668
20
0.4720
10
-14.0223
20
0.7497
10
-13.9668
20
0.7497
10
-13.9668
20
0.9163
10
-13.9113
20
0.9163
10
-13.8557
20
1.6383
10
-13.8002
20
1.6383
10
-13.8002
20
1.7493
10
-13.7447
20
1.7493
10
-13.7447
20
1.8604
10
-13.6891
20
1.8604
10
-13.6891
20
2.1381
10
-13.6336
20
2.1381
10
-13.6336
20
2.2491
10
-13.5781
20
2.2491
10
-13.5781
20
2.4713
10
-13.4115
20
2.5823
10
-13.4115
20
2.8045
10
-13.3004
20
2.8600
10
-13.1893
20
3.1932
10
-13.0783
20
3.2487
10
-13.0783
20
3.4153
10
-12.8561
20
3.5819
10
-12.8006
20
3.8041
10
-12.6340
20
3.9151
10
-12.6340
20
4.0262
10
-12.4674
20
4.1373
10
-12.4674
20
4.2483
10
-12.3008
20
4.3039
10
-12.2452
20
4.4705
10
-12.1897
20
4.4705
10
-12.1342
20
4.5816
10
-12.0231
20
4.5816
10
-11.9676
20
4.7482
10
-11.9120
20
4.7482
10
-11.8010
20
4.9148
10
-11.6899
20
4.9148
10
-11.6899
20
5.0258
10
-11.6344
20
5.0258
10
-11.5788
20
5.1369
10
-11.4678
20
5.1369
10
-11.3567
20
5.3035
10
-11.2456
20
5.3035
10
-11.1901
20
5.4701
10
-11.0235
20
5.4701
10
-10.9124
20
5.6367
10
-10.8014
20
5.6367
10
-10.6903
20
5.8033
10
-10.5792
20
5.8033
10
-10.5792
20
5.8588
10
-10.4126
20
5.9144
10
-10.3571
20
6.0254
10
-10.1350
20
6.0810
10
-10.0239
20
6.2476
10
-9.7462
20
6.3031
10
-9.7462
20
6.3586
10
-9.5796
20
6.4142
10
-9.5241
20
6.5252
10
-9.2464
20
6.5808
10
-9.2464
20
6.6363
10
-9.1353
20
6.6363
10
-9.1353
20
6.6918
10
-8.9687
20
6.6918
10
-8.9687
20
6.7474
10
-8.8021
20
6.8029
10
-8.8021
20
6.8584
10
-8.5800
20
6.8584
10
-8.5800
20
6.9140
10
-8.4689
20
6.9140
10
-8.4134
20
7.0250
10
-8.1913
20
7.0250
10
-8.1913
20
7.0806
10
-7.8581
20
7.1361
10
-7.8025
20
7.2472
10
-7.4138
20
7.3027
10
-7.3583
20
7.4138
10
-7.1917
20
7.4138
10
-7.1917
20
7.4693
10
-7.0806
20
7.4693
10
-7.0806
20
7.5249
10
-6.5808
20
7.5804
10
-6.5808
20
7.6359
10
-6.4697
20
7.6359
10
-6.4697
20
7.6915
10
-6.2476
20
7.6915
10
-6.2476
20
7.7470
10
-6.0810
20
7.7470
10
-6.0810
20
7.8025
10
-5.8033
20
7.8025
10
-5.8033
20
7.8581
10
-5.5812
20
7.8581
10
-5.5812
20
7.9136
10
-5.1369
20
7.9691
10
-5.1369
20
8.0247
10
-4.9148
20
8.0247
10
-4.9148
20
8.0802
10
-4.3039
20
8.1357
10
-4.3039
20
8.1913
10
-4.1928
20
8.1913
10
-4.1928
20
8.2468
10
-3.6930
20
8.2468
10
-3.6930
20
8.3023
10
-3.3598
20
8.3023
10
-3.3598
20
8.3579
10
-3.0821
20
8.3579
10
-3.0821
20
8.4134
10
-1.9159
20
8.4689
10
-1.9159
20
8.5245
10
-0.1944
20
8.5245
0
LWPOLYLINE
8
STAMP_FACE
90
437
70
1
10
-0.3610
20
8.1913
10
-0.4165
20
8.1913
10
-0.4165
20
8.1357
10
-2.4713
20
8.0802
10
-2.4713
20
8.0247
10
-2.6934
20
8.0247
10
-2.6934
20
7.9691
10
-4.0262
20
7.8581
10
-4.0262
20
7.8025
10
-4.3039
20
7.8025
10
-4.3039
20
7.7470
10
-4.6371
20
7.7470
10
-4.6371
20
7.6915
10
-5.1924
20
7.6359
10
-5.1924
20
7.5804
10
-5.3035
20
7.5804
10
-5.3035
20
7.5249
10
-5.4146
20
7.5249
10
-5.4146
20
7.4693
10
-6.0254
20
7.4138
10
-6.0810
20
7.3027
10
-6.4697
20
7.3027
10
-6.4697
20
7.2472
10
-6.8029
20
7.1917
10
-6.8029
20
7.1361
10
-6.9140
20
7.1361
10
-6.9140
20
7.0806
10
-7.1917
20
7.0806
10
-7.1917
20
7.0250
10
-7.3027
20
7.0250
10
-7.3027
20
6.9695
10
-7.4138
20
6.9695
10
-7.4138
20
6.9140
10
-7.5249
20
6.9140
10
-7.5249
20
6.8584
10
-7.8025
20
6.8584
10
-7.8025
20
6.8029
10
-7.9136
20
6.8029
10
-7.9136
20
6.7474
10
-8.0802
20
6.7474
10
-8.1357
20
6.6363
10
-8.4134
20
6.6363
10
-8.4134
20
6.5808
10
-8.5245
20
6.5808
10
-8.5245
20
6.5252
10
-8.6911
20
6.4697
10
-8.6911
20
6.4142
10
-8.9132
20
6.4142
10
-8.9132
20
6.3586
10
-9.0243
20
6.3586
10
-9.0243
20
6.3031
10
-9.1353
20
6.3031
10
-9.1353
20
6.2476
10
-9.3019
20
6.2476
10
-9.4130
20
6.0810
10
-9.5796
20
6.0810
10
-9.5796
20
6.0254
10
-9.8017
20
5.9699
10
-9.9128
20
5.8033
10
-10.1350
20
5.7478
10
-10.1905
20
5.6367
10
-10.3016
20
5.6367
10
-10.3016
20
5.5812
10
-10.3571
20
5.5812
10
-10.4126
20
5.4701
10
-10.5237
20
5.4701
10
-10.5792
20
5.3590
10
-10.7458
20
5.3590
10
-10.9124
20
5.1369
10
-11.0235
20
5.1369
10
-11.1346
20
4.9703
10
-11.2456
20
4.9703
10
-11.2456
20
4.8592
10
-11.3012
20
4.8592
10
-11.3567
20
4.7482
10
-11.4678
20
4.7482
10
-11.6899
20
4.4705
10
-11.8010
20
4.4705
10
-11.8010
20
4.3594
10
-12.1897
20
4.0262
10
-12.1897
20
3.8596
10
-12.2452
20
3.8596
10
-12.3008
20
3.7485
10
-12.4118
20
3.7485
10
-12.4118
20
3.6375
10
-12.5229
20
3.5819
10
-12.5784
20
3.3598
10
-12.7450
20
3.2487
10
-12.8006
20
3.0266
10
-12.8561
20
3.0266
10
-12.9117
20
2.8600
10
-13.0227
20
2.8045
10
-13.0227
20
2.5823
10
-13.1893
20
2.4713
10
-13.1893
20
2.2491
10
-13.3004
20
2.1936
10
-13.3004
20
2.0825
10
-13.3559
20
2.0825
10
-13.3559
20
1.8049
10
-13.4115
20
1.8049
10
-13.4115
20
1.6938
10
-13.4670
20
1.6938
10
-13.5225
20
1.0829
10
-13.5781
20
1.0829
10
-13.5781
20
0.6942
10
-13.6336
20
0.6942
10
-13.6336
20
0.1944
10
-13.6891
20
0.1944
10
-13.6891
20
-0.0278
10
-13.6336
20
-0.0278
10
-13.6336
20
-0.7497
10
-13.5781
20
-0.7497
10
-13.5225
20
-1.2495
10
-13.4670
20
-1.2495
10
-13.4670
20
-1.3606
10
-13.4115
20
-1.3606
10
-13.4115
20
-1.6383
10
-13.3559
20
-1.6383
10
-13.3559
20
-1.8049
10
-13.3004
20
-1.8049
10
-13.3004
20
-1.9159
10
-13.2449
20
-1.9159
10
-13.1893
20
-2.2491
10
-13.0783
20
-2.3047
10
-13.0783
20
-2.4713
10
-13.0227
20
-2.4713
10
-13.0227
20
-2.5823
10
-12.9117
20
-2.6379
10
-12.9117
20
-2.8045
10
-12.6895
20
-2.9711
10
-12.6895
20
-3.1377
10
-12.4674
20
-3.3043
10
-12.4674
20
-3.4709
10
-12.3008
20
-3.5264
10
-12.3008
20
-3.6375
10
-12.2452
20
-3.6375
10
-12.1897
20
-3.8041
10
-12.0786
20
-3.8041
10
-12.0231
20
-4.0262
10
-11.9120
20
-4.0262
10
-11.9120
20
-4.0817
10
-11.8010
20
-4.1373
10
-11.8010
20
-4.2483
10
-11.6344
20
-4.3039
10
-11.5788
20
-4.4705
10
-11.1901
20
-4.7482
10
-11.1346
20
-4.9148
10
-10.9680
20
-4.9148
10
-10.7458
20
-5.1924
10
-10.6348
20
-5.1924
10
-10.6348
20
-5.2480
10
-10.5792
20
-5.2480
10
-10.5237
20
-5.3590
10
-10.4126
20
-5.3590
10
-10.3016
20
-5.5256
10
-10.1350
20
-5.5256
10
-10.0794
20
-5.6367
10
-9.9683
20
-5.6367
10
-9.8573
20
-5.8033
10
-9.6351
20
-5.8588
10
-9.5241
20
-6.0254
10
-9.3575
20
-6.0254
10
-9.2464
20
-6.1920
10
-9.0243
20
-6.1920
10
-9.0243
20
-6.2476
10
-8.8577
20
-6.3031
10
-8.8021
20
-6.4142
10
-8.5800
20
-6.4142
10
-8.4689
20
-6.5808
10
-8.0247
20
-6.6363
10
-7.9136
20
-6.8029
10
-7.7470
20
-6.8029
10
-7.7470
20
-6.8584
10
-7.6359
20
-6.8584
10
-7.6359
20
-6.9140
10
-7.4138
20
-6.9140
10
-7.3583
20
-7.0250
10
-7.0250
20
-7.0806
10
-6.9695
20
-7.1917
10
-6.6363
20
-7.1917
10
-6.5808
20
-7.3027
10
-6.4697
20
-7.3027
10
-6.4697
20
-7.3583
10
-6.1920
20
-7.3583
10
-6.1365
20
-7.4693
10
-5.8588
20
-7.4693
10
-5.8588
20
-7.5249
10
-5.6367
20
-7.5249
10
-5.6367
20
-7.5804
10
-5.3590
20
-7.6359
10
-5.3590
20
-7.6915
10
-5.0258
20
-7.6915
10
-5.0258
20
-7.7470
10
-4.8037
20
-7.7470
10
-4.8037
20
-7.8025
10
-4.5816
20
-7.8025
10
-4.5816
20
-7.8581
10
-4.4150
20
-7.8581
10
-4.4150
20
-7.8025
10
-4.3594
20
-7.8025
10
-4.3594
20
-7.8581
10
-4.2483
20
-7.8581
10
-4.2483
20
-7.9136
10
-3.9151
20
-7.9136
10
-3.9151
20
-7.9691
10
-3.6375
20
-7.9691
10
-3.6375
20
-8.0247
10
-3.1932
20
-8.0247
10
-3.1932
20
-8.0802
10
-2.9711
20
-8.0802
10
-2.9711
20
-8.1357
10
-1.9715
20
-8.1357
10
-1.9715
20
-8.1913
10
-1.5272
20
-8.1913
10
-1.5272
20
-8.2468
10
-1.3606
20
-8.2468
10
-1.3606
20
-8.1913
10
-1.0274
20
-8.1913
10
-1.0274
20
-8.2468
10
0.7497
20
-8.2468
10
0.7497
20
-8.1913
10
1.6383
20
-8.1913
10
1.6383
20
-8.1357
10
2.7489
20
-8.0802
10
2.7489
20
-8.0247
10
3.1377
20
-8.0247
10
3.1377
20
-7.9691
10
3.3043
20
-7.9691
10
3.3043
20
-7.9136
10
3.6930
20
-7.9136
10
3.6930
20
-7.8581
10
3.9151
20
-7.8581
10
3.9151
20
-7.8025
10
4.1928
20
-7.8025
10
4.1928
20
-7.7470
10
4.4150
20
-7.7470
10
4.4150
20
-7.6915
10
4.6926
20
-7.6915
10
4.6926
20
-7.6359
10
4.9148
20
-7.6359
10
4.9148
20
-7.5804
10
5.1924
20
-7.5804
10
5.1924
20
-7.5249
10
5.3590
20
-7.5249
10
5.3590
20
-7.4693
10
5.7478
20
-7.4138
10
5.7478
20
-7.3583
10
5.8588
20
-7.3583
10
5.8588
20
-7.3027
10
6.1365
20
-7.3027
10
6.1365
20
-7.2472
10
6.2476
20
-7.2472
10
6.2476
20
-7.1917
10
6.4697
20
-7.1917
10
6.4697
20
-7.1361
10
6.5808
20
-7.1361
10
6.5808
20
-7.0806
10
6.8029
20
-7.0806
10
6.8584
20
-6.9695
10
7.1917
20
-6.9140
10
7.1917
20
-6.8584
10
7.4693
20
-6.8029
10
7.4693
20
-6.7474
10
7.5804
20
-6.7474
10
7.5804
20
-6.6918
10
7.8025
20
-6.6918
10
7.8025
20
-6.6363
10
7.9136
20
-6.6363
10
7.9691
20
-6.5252
10
8.1357
20
-6.5252
10
8.1913
20
-6.4142
10
8.5245
20
-6.3586
10
8.5245
20
-6.3031
10
8.6355
20
-6.3031
10
8.6911
20
-6.1920
10
8.9132
20
-6.1365
10
8.9687
20
-6.0254
10
9.1353
20
-6.0254
10
9.1909
20
-5.9144
10
9.4130
20
-5.8588
10
9.5241
20
-5.6922
10
9.6907
20
-5.6922
10
9.8017
20
-5.5256
10
10.0239
20
-5.4701
10
10.1905
20
-5.2480
10
10.3571
20
-5.2480
10
10.3571
20
-5.1924
10
10.4126
20
-5.1924
10
10.4682
20
-5.0814
10
10.5792
20
-5.0814
10
10.7458
20
-4.8592
10
10.8569
20
-4.8592
10
10.9680
20
-4.6926
10
11.0790
20
-4.6926
10
11.2456
20
-4.4150
10
11.3567
20
-4.4150
10
11.5788
20
-4.1373
10
11.6899
20
-4.1373
10
11.6899
20
-4.0262
10
11.9120
20
-3.8596
10
11.9120
20
-3.7485
10
11.9676
20
-3.7485
10
12.0231
20
-3.6375
10
12.1342
20
-3.6375
10
12.1897
20
-3.4153
10
12.3563
20
-3.3043
10
12.3563
20
-3.1932
10
12.4674
20
-3.1377
10
12.4674
20
-3.0266
10
12.5784
20
-3.0266
10
12.5784
20
-2.8600
10
12.7450
20
-2.7489
10
12.8006
20
-2.4713
10
12.9672
20
-2.3602
10
12.9672
20
-2.1381
10
13.0783
20
-2.0825
10
13.0783
20
-1.8604
10
13.1893
20
-1.8049
10
13.1893
20
-1.5272
10
13.3004
20
-1.4717
10
13.3004
20
-1.1940
10
13.3559
20
-1.1940
10
13.3559
20
-1.0829
10
13.4115
20
-1.0829
10
13.4670
20
-0.1944
10
13.5225
20
-0.1944
10
13.4670
20
1.0274
10
13.4115
20
1.0274
10
13.3559
20
1.5827
10
13.2449
20
1.6383
10
13.2449
20
1.9159
10
13.1338
20
1.9715
10
13.1338
20
2.1936
10
13.0783
20
2.1936
10
13.0783
20
2.3047
10
12.9672
20
2.3602
10
12.9672
20
2.5823
10
12.8006
20
2.6934
10
12.6895
20
3.0821
10
12.4674
20
3.2487
10
12.4674
20
3.4153
10
12.2452
20
3.5819
10
12.1897
20
3.8041
10
12.0786
20
3.8041
10
12.0786
20
3.8596
10
11.9676
20
3.9151
10
11.9676
20
4.0817
10
11.8010
20
4.1373
10
11.8010
20
4.1928
10
11.6899
20
4.2483
10
11.6899
20
4.3594
10
11.5233
20
4.4150
10
11.5233
20
4.4705
10
11.4122
20
4.5260
10
11.4122
20
4.6371
10
11.2456
20
4.6926
10
11.0790
20
4.9148
10
10.9680
20
4.9148
10
10.7458
20
5.1924
10
10.6348
20
5.1924
10
10.5237
20
5.3590
10
10.3016
20
5.4146
10
10.1905
20
5.5812
10
10.0239
20
5.5812
10
9.8573
20
5.8033
10
9.6907
20
5.8033
10
9.6907
20
5.8588
10
9.5796
20
5.8588
10
9.5241
20
5.9699
10
9.2464
20
6.0254
10
9.2464
20
6.1365
10
9.0798
20
6.1365
10
9.0798
20
6.1920
10
8.9687
20
6.1920
10
8.9132
20
6.3031
10
8.6911
20
6.3031
10
8.6355
20
6.4142
10
8.4134
20
6.4142
10
8.3579
20
6.5252
10
8.0802
20
6.5808
10
8.0802
20
6.6363
10
7.9691
20
6.6363
10
7.9691
20
6.6918
10
7.8025
20
6.6918
10
7.8025
20
6.7474
10
7.6915
20
6.7474
10
7.6915
20
6.8029
10
7.4138
20
6.8029
10
7.4138
20
6.8584
10
7.3027
20
6.8584
10
7.3027
20
6.9140
10
7.1917
20
6.9140
10
7.1917
20
6.9695
10
7.0806
20
6.9695
10
7.0806
20
7.0250
10
6.7474
20
7.0250
10
6.6363
20
7.1917
10
6.3031
20
7.1917
10
6.3031
20
7.2472
10
6.1920
20
7.2472
10
6.1920
20
7.3027
10
5.9699
20
7.3027
10
5.9699
20
7.3583
10
5.7478
20
7.3583
10
5.7478
20
7.4138
10
5.4701
20
7.4138
10
5.4701
20
7.4693
10
5.3590
20
7.4693
10
5.3590
20
7.5249
10
4.9703
20
7.5249
10
4.9703
20
7.5804
10
4.8592
20
7.5804
10
4.8592
20
7.6359
10
4.4150
20
7.6359
10
4.4150
20
7.6915
10
4.1928
20
7.6915
10
4.1928
20
7.7470
10
3.9707
20
7.7470
10
3.9707
20
7.8025
10
3.5264
20
7.8025
10
3.5264
20
7.8581
10
3.1932
20
7.8581
10
3.1932
20
7.9136
10
2.9155
20
7.9136
10
2.9155
20
7.9691
10
1.8604
20
8.0247
10
1.8604
20
8.0802
10
1.2495
20
8.0802
10
1.2495
20
8.1357
10
0.9718
20
8.0802
10
0.9718
20
8.1357
10
0.5276
20
8.1357
10
0.5276
20
8.1913
10
0.3610
20
8.1913
10
0.3610
20
8.1357
10
-0.1944
20
8.1357
10
-0.1944
20
8.1913
0
LWPOLYLINE
8
STAMP_FACE
90
102
70
1
10
-16.6324
20
3.5819
10
-16.3548
20
3.5264
10
-16.3548
20
3.4709
10
-16.1882
20
3.4709
10
-16.0771
20
3.3043
10
-15.9105
20
3.3043
10
-15.8550
20
3.1377
10
-15.7994
20
3.1377
10
-15.7994
20
3.0266
10
-15.6883
20
3.0266
10
-15.6883
20
2.9155
10
-15.6328
20
2.9155
10
-15.6328
20
2.6379
10
-15.0775
20
2.5823
10
-14.9664
20
2.4157
10
-14.8553
20
2.4157
10
-14.8553
20
2.3602
10
-14.6887
20
2.3047
10
-14.6887
20
2.1936
10
-14.5221
20
2.0825
10
-14.5221
20
1.8604
10
-14.4666
20
1.8604
10
-14.4666
20
1.7493
10
-14.4111
20
1.7493
10
-14.4111
20
1.2495
10
-14.4666
20
1.2495
10
-14.5221
20
1.0274
10
-14.6887
20
0.9163
10
-14.6887
20
0.8052
10
-14.9109
20
0.6942
10
-14.7998
20
0.0278
10
-14.8553
20
0.0278
10
-14.8553
20
-0.0833
10
-14.9109
20
-0.0833
10
-14.9109
20
-0.3054
10
-15.0219
20
-0.3610
10
-15.0219
20
-0.5276
10
-15.0775
20
-0.5276
10
-15.1330
20
-0.6386
10
-15.2441
20
-0.6386
10
-15.2996
20
-0.8052
10
-15.5773
20
-0.8608
10
-15.5773
20
-0.9163
10
-15.9660
20
-0.9163
10
-15.9660
20
-0.9718
10
-16.0771
20
-0.9718
10
-16.0771
20
-0.9163
10
-16.4103
20
-0.8608
10
-16.5214
20
-0.6942
10
-16.6880
20
-0.6942
10
-16.7435
20
-0.8052
10
-17.0212
20
-0.8608
10
-17.0212
20
-0.9163
10
-17.1322
20
-0.9163
10
-17.1322
20
-0.9718
10
-17.2433
20
-0.9718
10
-17.2433
20
-0.9163
10
-17.5210
20
-0.9718
10
-17.5210
20
-0.9163
10
-17.6320
20
-0.9163
10
-17.6320
20
-0.8608
10
-17.7431
20
-0.8608
10
-17.7431
20
-0.8052
10
-17.9097
20
-0.8052
10
-17.9097
20
-0.7497
10
-18.2429
20
-0.4720
10
-18.2429
20
-0.3054
10
-18.2984
20
-0.3054
10
-18.3540
20
0.0278
10
-18.4095
20
0.0278
10
-18.2984
20
0.6386
10
-18.3540
20
0.6386
10
-18.4650
20
0.8052
10
-18.5761
20
0.8052
10
-18.6317
20
1.0829
10
-18.6872
20
1.0829
10
-18.6872
20
1.1940
10
-18.7983
20
1.2495
10
-18.7983
20
1.7493
10
-18.7427
20
1.7493
10
-18.7427
20
2.0270
10
-18.5761
20
2.1381
10
-18.5206
20
2.3602
10
-18.3540
20
2.3602
10
-18.2429
20
2.5268
10
-18.0763
20
2.5268
10
-18.0763
20
2.5823
10
-17.9652
20
2.5823
10
-17.9652
20
2.6379
10
-17.6320
20
2.5823
10
-17.6320
20
2.8600
10
-17.5765
20
2.8600
10
-17.5210
20
3.0821
10
-17.4654
20
3.0821
10
-17.4099
20
3.1932
10
-17.2988
20
3.1932
10
-17.2433
20
3.3598
10
-17.0767
20
3.3598
10
-17.0212
20
3.4709
10
-16.9101
20
3.4709
10
-16.9101
20
3.5264
10
-16.6324
20
3.5264
0
LWPOLYLINE
8
STAMP_FACE
90
100
70
1
10
16.2992
20
3.5819
10
16.4103
20
3.5819
10
16.4103
20
3.5264
10
16.6880
20
3.5264
10
16.6880
20
3.4709
10
16.8546
20
3.4709
10
16.9101
20
3.3598
10
17.0767
20
3.3598
10
17.0767
20
3.3043
10
17.1878
20
3.2487
10
17.1878
20
3.0821
10
17.3544
20
3.0266
10
17.3544
20
2.7489
10
17.4099
20
2.7489
10
17.4099
20
2.6379
10
17.9652
20
2.6379
10
17.9652
20
2.5823
10
18.0763
20
2.5823
10
18.0763
20
2.5268
10
18.1318
20
2.5268
10
18.1874
20
2.4157
10
18.2984
20
2.4157
10
18.2984
20
2.3602
10
18.4095
20
2.3047
10
18.4095
20
2.1936
10
18.5761
20
2.0825
10
18.5761
20
1.8604
10
18.6317
20
1.8604
10
18.6317
20
1.7493
10
18.6872
20
1.7493
10
18.6872
20
1.3050
10
18.5761
20
1.2495
10
18.5761
20
1.0829
10
18.4650
20
1.0274
10
18.4095
20
0.8052
10
18.2984
20
0.8052
10
18.2984
20
0.7497
10
18.1874
20
0.6942
10
18.2429
20
0.1944
10
18.2984
20
0.1944
10
18.2429
20
-0.2499
10
18.0763
20
-0.3610
10
18.0208
20
-0.6386
10
17.8542
20
-0.6386
10
17.7986
20
-0.8052
10
17.5765
20
-0.8052
10
17.5210
20
-0.9163
10
17.0212
20
-0.9163
10
17.0212
20
-0.8608
10
16.7990
20
-0.8608
10
16.7990
20
-0.8052
10
16.6324
20
-0.7497
10
16.6324
20
-0.6942
10
16.4103
20
-0.6942
10
16.3548
20
-0.8052
10
16.2437
20
-0.8052
10
16.2437
20
-0.8608
10
16.1326
20
-0.8608
10
16.1326
20
-0.9163
10
15.6328
20
-0.9163
10
15.6328
20
-0.8608
10
15.2441
20
-0.8052
10
15.1885
20
-0.6386
10
14.9664
20
-0.5831
10
14.9664
20
-0.4720
10
14.9109
20
-0.4720
10
14.9109
20
-0.3610
10
14.8553
20
-0.3610
10
14.8553
20
-0.2499
10
14.7998
20
-0.2499
10
14.7998
20
-0.0833
10
14.7443
20
-0.0833
10
14.7443
20
0.4720
10
14.7998
20
0.4720
10
14.7998
20
0.6386
10
14.4666
20
0.9163
10
14.4111
20
1.1384
10
14.3000
20
1.1940
10
14.2445
20
1.6938
10
14.3000
20
1.6938
10
14.3000
20
1.9715
10
14.4666
20
2.0825
10
14.5221
20
2.3602
10
14.6887
20
2.3602
10
14.7998
20
2.5268
10
14.9664
20
2.5268
10
14.9664
20
2.5823
10
15.1330
20
2.5823
10
15.1330
20
2.6379
10
15.4107
20
2.6379
10
15.4107
20
2.9155
10
15.5217
20
2.9711
10
15.5217
20
3.1377
10
15.5773
20
3.1377
10
15.6328
20
3.2487
10
15.7439
20
3.2487
10
15.7994
20
3.4153
10
16.0216
20
3.4153
10
16.0771
20
3.5264
10
16.2992
20
3.5264
0
LWPOLYLINE
8
STAMP_FACE
90
314
70
1
10
7.8025
20
3.5264
10
8.1913
20
3.5264
10
8.1913
20
3.4709
10
8.2468
20
3.4709
10
8.2468
20
3.2487
10
8.0802
20
3.1377
10
8.0802
20
2.9155
10
8.0247
20
2.9155
10
8.0247
20
1.9715
10
8.0802
20
1.9715
10
8.0802
20
1.9159
10
8.5800
20
1.8604
10
8.5800
20
1.8049
10
8.8577
20
1.8049
10
8.8577
20
1.7493
10
9.1909
20
1.7493
10
9.1909
20
1.8049
10
9.5796
20
1.8049
10
9.5796
20
1.7493
10
9.6351
20
1.7493
10
9.6351
20
1.5272
10
9.5241
20
1.4717
10
9.5241
20
1.2495
10
9.4685
20
1.2495
10
9.4685
20
0.8052
10
9.5241
20
0.8052
10
9.5796
20
0.0278
10
9.6351
20
0.0278
10
9.7462
20
-0.6386
10
9.8017
20
-0.6386
10
9.8573
20
-0.9718
10
9.9128
20
-0.9718
10
9.9128
20
-1.0829
10
9.9683
20
-1.0829
10
9.9683
20
-1.2495
10
10.0239
20
-1.2495
10
10.0239
20
-1.3606
10
10.0794
20
-1.3606
10
10.0794
20
-1.4717
10
10.1350
20
-1.4717
10
10.1350
20
-1.5827
10
10.1905
20
-1.5827
10
10.3016
20
-1.9159
10
10.4126
20
-1.9715
10
10.4126
20
-2.0825
10
10.5237
20
-2.1381
10
10.5237
20
-2.2491
10
10.6903
20
-2.3602
10
10.7458
20
-2.5268
10
10.6903
20
-2.5268
10
10.6903
20
-2.5823
10
10.5237
20
-2.5823
10
10.4682
20
-2.4713
10
10.3571
20
-2.4713
10
10.3571
20
-2.4157
10
10.0794
20
-2.1936
10
10.0794
20
-2.0825
10
9.8573
20
-1.9159
10
9.8573
20
-1.8049
10
9.6907
20
-1.6938
10
9.6351
20
-1.5272
10
9.4130
20
-1.5272
10
9.4130
20
-1.4717
10
9.2464
20
-1.4161
10
9.0243
20
-1.1384
10
8.8577
20
-1.1384
10
8.7466
20
-1.3050
10
8.6355
20
-1.3050
10
8.6355
20
-1.5272
10
8.8021
20
-1.6383
10
8.8021
20
-1.7493
10
8.8577
20
-1.7493
10
9.3575
20
-2.3047
10
9.4685
20
-2.3047
10
9.5796
20
-2.4713
10
9.6907
20
-2.4713
10
9.6907
20
-2.5268
10
9.8017
20
-2.5823
10
9.7462
20
-2.7489
10
9.5796
20
-2.7489
10
9.5796
20
-2.6934
10
9.3019
20
-2.6379
10
9.3019
20
-2.5823
10
9.2464
20
-2.5823
10
9.1909
20
-2.4713
10
9.0798
20
-2.4713
10
8.9132
20
-2.2491
10
8.8021
20
-2.2491
10
8.8021
20
-2.1936
10
8.4689
20
-1.9159
10
8.4689
20
-1.8049
10
8.4134
20
-1.8049
10
8.3579
20
-1.6938
10
8.1913
20
-1.6938
10
7.9136
20
-2.0270
10
7.8025
20
-2.0270
10
7.6915
20
-2.1936
10
7.5804
20
-2.1936
10
7.5804
20
-2.2491
10
7.5249
20
-2.2491
10
7.4138
20
-2.4157
10
7.3027
20
-2.4157
10
7.1361
20
-2.6379
10
7.0250
20
-2.6379
10
6.9140
20
-2.8045
10
6.8029
20
-2.8045
10
6.7474
20
-2.9155
10
6.6363
20
-2.9155
10
6.6363
20
-2.9711
10
6.5252
20
-2.9711
10
6.5252
20
-3.0266
10
6.4142
20
-3.0266
10
6.3586
20
-3.1377
10
6.1920
20
-3.1377
10
6.1920
20
-3.1932
10
5.8588
20
-3.1932
10
5.8588
20
-3.1377
10
5.5812
20
-3.1377
10
5.5812
20
-3.0821
10
5.3035
20
-3.0821
10
5.3035
20
-3.0266
10
5.0258
20
-3.0266
10
5.0258
20
-2.9711
10
4.8037
20
-2.9711
10
4.8037
20
-2.9155
10
4.4705
20
-2.8600
10
4.4705
20
-2.8045
10
4.4150
20
-2.8045
10
4.4150
20
-2.6379
10
4.4705
20
-2.6379
10
4.4705
20
-2.5823
10
4.8037
20
-2.6379
10
4.8037
20
-2.5823
10
5.5256
20
-2.5268
10
5.5256
20
-2.4713
10
5.8033
20
-2.4713
10
5.8033
20
-2.4157
10
6.2476
20
-2.3602
10
6.2476
20
-2.3047
10
6.3586
20
-2.3047
10
6.3586
20
-2.2491
10
6.5808
20
-2.2491
10
6.5808
20
-2.1936
10
6.6918
20
-2.1936
10
6.6918
20
-2.1381
10
6.8029
20
-2.1381
10
6.8029
20
-2.0825
10
6.9695
20
-2.0825
10
6.9695
20
-2.0270
10
7.1917
20
-1.9715
10
7.2472
20
-1.8604
10
7.4693
20
-1.8049
10
7.4693
20
-1.6383
10
7.4138
20
-1.6383
10
7.4138
20
-1.5827
10
7.2472
20
-1.4717
10
7.2472
20
-1.3606
10
7.1361
20
-1.3050
10
7.1361
20
-1.1384
10
7.0806
20
-1.1384
10
7.0806
20
-1.0274
10
7.0250
20
-1.0274
10
7.0250
20
-0.8052
10
6.9695
20
-0.8052
10
6.9140
20
-0.4165
10
6.7474
20
-0.4165
10
6.7474
20
-0.3610
10
6.5808
20
-0.3610
10
6.6363
20
-0.9718
10
6.6918
20
-0.9718
10
6.6918
20
-1.4161
10
6.6363
20
-1.4161
10
6.6363
20
-1.5827
10
6.5808
20
-1.5827
10
6.5808
20
-1.6938
10
6.5252
20
-1.6938
10
6.4697
20
-1.8049
10
6.3586
20
-1.8049
10
6.3586
20
-1.8604
10
6.2476
20
-1.8604
10
6.2476
20
-1.9159
10
5.5812
20
-1.9159
10
5.5812
20
-1.8604
10
5.3590
20
-1.8604
10
5.3590
20
-1.8049
10
5.1924
20
-1.8049
10
5.1924
20
-1.7493
10
4.9703
20
-1.5827
10
4.9703
20
-1.4161
10
5.0258
20
-1.4161
10
5.0258
20
-1.3050
10
5.1369
20
-1.2495
10
5.1369
20
-1.0829
10
5.1924
20
-1.0829
10
5.1924
20
-0.6386
10
5.2480
20
-0.6386
10
5.2480
20
-0.5831
10
5.4146
20
-0.5831
10
5.4146
20
-0.6386
10
5.4701
20
-0.6386
10
5.4701
20
-0.9163
10
5.5256
20
-0.9163
10
5.5256
20
-1.1384
10
5.5812
20
-1.1384
10
5.5812
20
-1.3050
10
5.6367
20
-1.3050
10
5.6367
20
-1.3606
10
6.0810
20
-1.4161
10
6.0810
20
-1.3606
10
6.2476
20
-1.3050
10
6.1920
20
-0.7497
10
6.1365
20
-0.7497
10
6.1365
20
-0.6386
10
6.0810
20
-0.6386
10
6.0810
20
-0.4720
10
5.9144
20
-0.3610
10
5.9144
20
-0.1388
10
5.9699
20
-0.1388
10
5.9699
20
-0.0833
10
6.0810
20
-0.0833
10
6.0810
20
-0.0278
10
6.4142
20
0.0833
10
6.4142
20
0.2499
10
6.2476
20
0.2499
10
6.2476
20
0.3054
10
6.1365
20
0.3054
10
6.1365
20
0.3610
10
6.0254
20
0.3610
10
6.0254
20
0.4165
10
5.9144
20
0.4720
10
5.9144
20
0.6386
10
6.1365
20
0.8052
10
6.1365
20
1.0274
10
6.1920
20
1.0274
10
6.2476
20
1.1384
10
6.4142
20
1.0829
10
6.4142
20
0.8608
10
6.4697
20
0.8608
10
6.4697
20
0.7497
10
6.5252
20
0.7497
10
6.5808
20
0.6386
10
6.7474
20
0.6386
10
6.7474
20
0.5831
10
7.4138
20
0.5831
10
7.4138
20
0.6386
10
7.5249
20
0.6386
10
7.5249
20
0.9163
10
7.3027
20
0.9163
10
7.3027
20
0.9718
10
6.9695
20
1.0274
10
6.9695
20
1.0829
10
6.8584
20
1.0829
10
6.8584
20
1.1384
10
6.5808
20
1.1384
10
6.5252
20
1.3050
10
6.3586
20
1.3050
10
6.3031
20
1.4161
10
6.1365
20
1.4161
10
6.0810
20
1.5272
10
5.8033
20
1.5827
10
5.8033
20
1.6383
10
5.6922
20
1.6383
10
5.6922
20
1.6938
10
5.3590
20
1.7493
10
5.3590
20
1.8049
10
5.2480
20
1.8604
10
5.2480
20
2.0270
10
5.3035
20
2.0270
10
5.3590
20
2.1381
10
5.5812
20
2.1936
10
5.6367
20
2.3047
10
5.9144
20
2.3602
10
5.9144
20
2.4157
10
6.2476
20
2.4157
10
6.2476
20
2.3602
10
6.3586
20
2.3602
10
6.3586
20
2.3047
10
6.6363
20
2.3047
10
6.6363
20
2.2491
10
6.9140
20
2.2491
10
6.9140
20
2.1936
10
7.1361
20
2.1936
10
7.1361
20
2.1381
10
7.5249
20
2.0825
10
7.4693
20
2.4713
10
7.0806
20
2.4713
10
7.0806
20
2.5268
10
6.8584
20
2.5268
10
6.8584
20
2.5823
10
6.6363
20
2.5823
10
6.6363
20
2.6379
10
6.5252
20
2.6379
10
6.5252
20
2.6934
10
6.3586
20
2.6934
10
6.3586
20
2.7489
10
6.2476
20
2.8045
10
6.2476
20
3.0266
10
6.3586
20
3.0266
10
6.3586
20
3.0821
10
6.7474
20
3.0821
10
6.7474
20
3.0266
10
6.9695
20
3.0266
10
6.9695
20
2.9711
10
7.0806
20
2.9711
10
7.0806
20
2.9155
10
7.4138
20
2.8600
10
7.4138
20
3.0266
10
7.3583
20
3.0266
10
7.3027
20
3.2487
10
7.3583
20
3.2487
10
7.4138
20
3.3598
10
7.5249
20
3.3598
10
7.5249
20
3.4153
10
7.8025
20
3.4709
0
LWPOLYLINE
8
STAMP_FACE
90
262
70
1
10
-1.5827
20
3.3598
10
-1.2495
20
3.3598
10
-1.1940
20
3.1377
10
-1.2495
20
3.1377
10
-1.2495
20
3.0266
10
-1.3050
20
3.0266
10
-1.3050
20
2.7489
10
-1.2495
20
2.7489
10
-1.1940
20
2.3602
10
-1.1384
20
2.3602
10
-1.1384
20
2.2491
10
-1.0829
20
2.2491
10
-1.0274
20
1.9715
10
-0.9163
20
1.9159
10
-0.9163
20
1.7493
10
-0.7497
20
1.6383
10
-0.7497
20
1.5272
10
-0.6942
20
1.5272
10
-0.6942
20
1.4717
10
-0.5831
20
1.4161
10
-0.5831
20
1.3050
10
-0.4165
20
1.1940
10
-0.4165
20
1.0274
10
-0.4720
20
1.0274
10
-0.4720
20
0.9718
10
-0.6386
20
1.0274
10
-0.6386
20
1.0829
10
-0.7497
20
1.0829
10
-0.8052
20
1.1940
10
-0.9718
20
1.1940
10
-1.1940
20
0.9163
10
-1.3050
20
0.9163
10
-1.3050
20
0.8608
10
-1.4161
20
0.8052
10
-1.4161
20
0.6386
10
-1.2495
20
0.5276
10
-1.2495
20
0.4165
10
-1.1384
20
0.4165
10
-1.1384
20
0.3610
10
-1.0829
20
0.3610
10
-0.9163
20
0.1388
10
-0.8052
20
0.1388
10
-0.6942
20
-0.0278
10
-0.5831
20
-0.0278
10
-0.5831
20
-0.0833
10
-0.4165
20
-0.1388
10
-0.3610
20
-0.2499
10
-0.1388
20
-0.3054
10
-0.1388
20
-0.4720
10
-0.3054
20
-0.5276
10
-0.3054
20
-0.4720
10
-0.5276
20
-0.4720
10
-0.5276
20
-0.4165
10
-0.8608
20
-0.3054
10
-0.8608
20
-0.2499
10
-1.0274
20
-0.1944
10
-1.0274
20
-0.1388
10
-1.2495
20
-0.1388
10
-1.2495
20
-0.2499
10
-1.3050
20
-0.2499
10
-1.2495
20
-0.7497
10
-1.0829
20
-0.8052
10
-1.0829
20
-0.8608
10
-0.7497
20
-0.8608
10
-0.7497
20
-0.9163
10
-0.3054
20
-0.9163
10
-0.3054
20
-0.9718
10
-0.1944
20
-0.9718
10
-0.1944
20
-1.1384
10
-0.3610
20
-1.1940
10
-0.3610
20
-1.2495
10
-0.4720
20
-1.2495
10
-0.4720
20
-1.3050
10
-0.9718
20
-1.2495
10
-0.9718
20
-1.4717
10
-0.9163
20
-1.4717
10
-0.8608
20
-1.6938
10
-0.7497
20
-1.7493
10
-0.7497
20
-1.8604
10
-0.6386
20
-1.9159
10
-0.6386
20
-2.0270
10
-0.5276
20
-2.0825
10
-0.5276
20
-2.1936
10
-0.4720
20
-2.1936
10
0.1944
20
-2.9155
10
0.1388
20
-2.9155
10
0.1388
20
-2.9711
10
-0.0833
20
-2.9711
10
-0.0833
20
-2.9155
10
-0.1944
20
-2.9155
10
-0.2499
20
-2.8045
10
-0.4165
20
-2.8045
10
-0.5276
20
-2.6379
10
-0.6386
20
-2.6379
10
-0.6386
20
-2.5823
10
-0.7497
20
-2.5268
10
-0.7497
20
-2.4157
10
-0.9163
20
-2.3602
10
-0.9718
20
-2.1936
10
-1.0274
20
-2.1936
10
-1.0274
20
-2.0825
10
-1.1940
20
-1.9715
10
-1.2495
20
-1.7493
10
-1.3050
20
-1.7493
10
-1.3606
20
-1.5827
10
-1.4161
20
-1.5827
10
-1.4161
20
-1.4161
10
-1.4717
20
-1.4161
10
-1.5827
20
-1.0829
10
-2.1381
20
-1.0274
10
-2.0825
20
-1.7493
10
-2.0270
20
-1.7493
10
-2.0270
20
-1.9715
10
-1.9715
20
-1.9715
10
-1.9715
20
-2.1936
10
-1.9159
20
-2.1936
10
-1.8604
20
-2.4713
10
-1.5272
20
-2.4713
10
-1.5272
20
-2.4157
10
-1.3606
20
-2.4157
10
-1.3606
20
-2.3602
10
-1.1940
20
-2.3602
10
-1.1940
20
-2.4713
10
-1.1384
20
-2.4713
10
-1.1384
20
-2.5268
10
-1.3050
20
-2.6379
10
-1.3050
20
-2.7489
10
-1.4717
20
-2.8600
10
-1.4717
20
-3.0266
10
-1.5827
20
-3.0821
10
-1.5827
20
-3.2487
10
-1.8049
20
-3.3598
10
-1.8049
20
-3.3043
10
-2.0270
20
-3.2487
10
-2.0270
20
-3.1932
10
-2.2491
20
-3.0266
10
-2.2491
20
-2.9155
10
-2.3047
20
-2.9155
10
-2.3047
20
-2.8045
10
-2.3602
20
-2.8045
10
-2.3602
20
-2.6934
10
-2.4157
20
-2.6934
10
-2.4157
20
-2.4713
10
-2.4713
20
-2.4713
10
-2.4713
20
-2.3602
10
-2.5268
20
-2.3602
10
-2.5268
20
-1.9159
10
-2.5823
20
-1.9159
10
-2.5823
20
-1.8049
10
-2.6379
20
-1.8049
10
-2.6934
20
-1.3050
10
-2.7489
20
-1.3050
10
-2.7489
20
-1.1940
10
-2.9155
20
-1.0829
10
-2.9155
20
-0.8608
10
-2.7489
20
-0.8052
10
-2.6379
20
-0.6386
10
-2.5268
20
-0.6386
10
-2.5268
20
-0.5831
10
-2.4157
20
-0.5831
10
-2.4157
20
-0.5276
10
-2.2491
20
-0.5276
10
-2.2491
20
-0.5831
10
-1.9715
20
-0.6386
10
-1.9715
20
-0.6942
10
-1.7493
20
-0.6942
10
-1.7493
20
-0.4720
10
-1.8049
20
-0.4720
10
-1.8049
20
-0.3610
10
-1.8604
20
-0.3610
10
-1.8604
20
-0.1388
10
-1.8049
20
-0.1388
10
-1.7493
20
-0.0278
10
-1.6383
20
-0.0278
10
-1.6383
20
0.0278
10
-1.4717
20
0.0278
10
-1.4717
20
0.1944
10
-1.5272
20
0.1944
10
-1.6383
20
0.3610
10
-1.8049
20
0.3610
10
-1.8049
20
0.3054
10
-1.8604
20
0.3054
10
-1.9159
20
0.1944
10
-2.0270
20
0.1944
10
-2.3047
20
-0.1388
10
-2.4157
20
-0.1388
10
-2.4713
20
-0.2499
10
-2.5823
20
-0.2499
10
-2.5823
20
-0.3054
10
-2.6379
20
-0.3054
10
-2.6934
20
-0.4165
10
-2.8045
20
-0.4165
10
-2.8600
20
-0.5276
10
-3.0266
20
-0.5276
10
-3.0266
20
-0.4720
10
-3.5264
20
-0.4720
10
-3.5264
20
-0.4165
10
-4.0262
20
-0.3610
10
-4.0262
20
-0.3054
10
-4.1373
20
-0.3054
10
-4.1373
20
-0.0833
10
-4.0262
20
-0.0833
10
-4.0262
20
-0.0278
10
-3.6930
20
-0.0278
10
-3.6930
20
0.0278
10
-3.5264
20
0.0278
10
-3.5264
20
0.0833
10
-3.3043
20
0.0833
10
-3.3043
20
0.1388
10
-2.9711
20
0.1944
10
-2.9711
20
0.2499
10
-2.8600
20
0.2499
10
-2.8600
20
0.3054
10
-2.6934
20
0.3054
10
-2.6934
20
0.3610
10
-2.3602
20
0.4720
10
-2.3047
20
0.5831
10
-2.1936
20
0.5831
10
-2.1936
20
0.6386
10
-2.0825
20
0.6942
10
-2.0825
20
0.8608
10
-2.1936
20
0.9163
10
-2.2491
20
1.1384
10
-2.3047
20
1.1384
10
-2.3602
20
1.3050
10
-2.5823
20
1.4717
10
-2.5268
20
1.8049
10
-2.7489
20
1.8049
10
-2.7489
20
1.8604
10
-3.0821
20
1.9159
10
-3.0821
20
1.9715
10
-3.1377
20
1.9715
10
-3.1377
20
2.1381
10
-3.0821
20
2.1381
10
-3.0266
20
2.2491
10
-2.8600
20
2.2491
10
-2.8600
20
2.3047
10
-2.6379
20
2.3047
10
-2.6379
20
2.3602
10
-2.5823
20
2.3602
10
-2.5823
20
2.3047
10
-2.3047
20
2.2491
10
-2.3047
20
2.1936
10
-2.1936
20
2.1936
10
-2.1936
20
2.1381
10
-2.0825
20
2.1381
10
-2.0825
20
2.0825
10
-1.5827
20
2.0270
10
-1.5827
20
2.1936
10
-1.6938
20
2.2491
10
-1.6938
20
2.3602
10
-1.7493
20
2.3602
10
-1.8604
20
2.6934
10
-2.0825
20
2.8600
10
-2.0270
20
3.1377
10
-1.9159
20
3.1377
10
-1.9159
20
3.1932
10
-1.8049
20
3.1932
10
-1.8049
20
3.2487
10
-1.6938
20
3.2487
10
-1.6938
20
3.3043
10
-1.5827
20
3.3043
0
LWPOLYLINE
8
STAMP_FACE
90
91
70
1
10
-16.7990
20
3.1932
10
-16.9656
20
3.1377
10
-16.9656
20
3.0821
10
-17.0767
20
3.0821
10
-17.0767
20
3.0266
10
-17.2433
20
2.9155
10
-17.2988
20
2.6379
10
-17.3544
20
2.6379
10
-17.3544
20
2.2491
10
-17.8542
20
2.3047
10
-17.8542
20
2.2491
10
-18.1874
20
2.1936
10
-18.1874
20
2.1381
10
-18.3540
20
2.0270
10
-18.3540
20
1.9159
10
-18.4650
20
1.8604
10
-18.4650
20
1.3050
10
-18.4095
20
1.3050
10
-18.4095
20
1.1384
10
-18.3540
20
1.1384
10
-18.1318
20
0.8608
10
-17.9652
20
0.8608
10
-17.9652
20
0.8052
10
-17.8542
20
0.7497
10
-17.9097
20
0.5831
10
-18.0208
20
0.5276
10
-18.0208
20
0.3610
10
-18.0763
20
0.3610
10
-18.0763
20
0.0278
10
-18.0208
20
0.0278
10
-17.9652
20
-0.3054
10
-17.9097
20
-0.3054
10
-17.7986
20
-0.4720
10
-17.6876
20
-0.4720
10
-17.6320
20
-0.5831
10
-17.0212
20
-0.5831
10
-17.0212
20
-0.5276
10
-16.9101
20
-0.5276
10
-16.9101
20
-0.4720
10
-16.7435
20
-0.3610
10
-16.6880
20
-0.1944
10
-16.5769
20
-0.1944
10
-16.5769
20
-0.2499
10
-16.4658
20
-0.2499
10
-16.4658
20
-0.3610
10
-16.4103
20
-0.3610
10
-16.2992
20
-0.5276
10
-15.7994
20
-0.6386
10
-15.7994
20
-0.5831
10
-15.5217
20
-0.5276
10
-15.4107
20
-0.3610
10
-15.2996
20
-0.3610
10
-15.2996
20
-0.2499
10
-15.2441
20
-0.2499
10
-15.2441
20
-0.1388
10
-15.1885
20
-0.1388
10
-15.1885
20
0.4720
10
-15.2441
20
0.4720
10
-15.2441
20
0.5831
10
-15.2996
20
0.5831
10
-15.3551
20
0.7497
10
-15.2996
20
0.7497
10
-15.2441
20
0.8608
10
-15.0219
20
0.9163
10
-15.0219
20
0.9718
10
-14.8553
20
1.0829
10
-14.8553
20
1.1940
10
-14.7998
20
1.1940
10
-14.7998
20
1.3050
10
-14.7443
20
1.3050
10
-14.7998
20
1.8604
10
-14.8553
20
1.8604
10
-14.8553
20
1.9715
10
-14.9109
20
1.9715
10
-14.9664
20
2.1381
10
-15.0775
20
2.1381
10
-15.0775
20
2.1936
10
-15.1885
20
2.1936
10
-15.1885
20
2.2491
10
-15.2996
20
2.2491
10
-15.2996
20
2.3047
10
-15.8550
20
2.2491
10
-15.8550
20
2.3047
10
-15.9105
20
2.3047
10
-15.9105
20
2.6934
10
-15.9660
20
2.6934
10
-16.0216
20
2.9155
10
-16.0771
20
2.9155
10
-16.1882
20
3.0821
10
-16.4103
20
3.1377
10
-16.4103
20
3.1932
0
LWPOLYLINE
8
STAMP_FACE
90
380
70
1
10
-7.1361
20
3.2487
10
-6.9140
20
3.2487
10
-6.9140
20
3.1932
10
-6.8584
20
3.1932
10
-6.8584
20
2.9711
10
-6.9140
20
2.9711
10
-6.9695
20
2.8045
10
-7.0250
20
2.8045
10
-7.0806
20
1.9159
10
-6.5808
20
1.8604
10
-6.5808
20
1.8049
10
-6.2476
20
1.8049
10
-6.2476
20
1.7493
10
-6.1920
20
1.7493
10
-6.1920
20
1.5827
10
-6.3031
20
1.5827
10
-6.3031
20
1.5272
10
-6.4142
20
1.5272
10
-6.4142
20
1.4717
10
-6.5252
20
1.4717
10
-6.5252
20
1.4161
10
-7.0806
20
1.4717
10
-7.0806
20
1.2495
10
-7.1361
20
1.2495
10
-7.0806
20
0.9718
10
-7.1361
20
0.9718
10
-7.1361
20
0.8052
10
-6.7474
20
0.8052
10
-6.7474
20
0.7497
10
-6.6363
20
0.7497
10
-6.6363
20
0.6942
10
-6.4142
20
0.6942
10
-6.4142
20
0.6386
10
-6.2476
20
0.6386
10
-6.2476
20
0.5831
10
-5.4146
20
0.5276
10
-5.4146
20
0.3610
10
-5.4701
20
0.3610
10
-5.4701
20
0.3054
10
-5.5812
20
0.3054
10
-5.6367
20
0.1944
10
-5.8033
20
0.1944
10
-5.8033
20
0.1388
10
-5.9144
20
0.1388
10
-5.9144
20
0.0833
10
-6.2476
20
0.1388
10
-6.2476
20
0.1944
10
-6.3586
20
0.1944
10
-6.3586
20
0.2499
10
-6.5808
20
0.2499
10
-6.5808
20
0.3054
10
-6.6918
20
0.3054
10
-6.6918
20
0.3610
10
-6.9695
20
0.3610
10
-6.9695
20
0.4165
10
-7.1361
20
0.4165
10
-7.1361
20
0.2499
10
-6.9695
20
0.1388
10
-6.9695
20
0.0278
10
-6.9140
20
0.0278
10
-6.8584
20
-0.0833
10
-6.6918
20
-0.1388
10
-6.6918
20
-0.2499
10
-6.4697
20
-0.4165
10
-6.4142
20
-0.5831
10
-6.2476
20
-0.6386
10
-6.2476
20
-0.7497
10
-6.1365
20
-0.7497
10
-5.7478
20
-1.1940
10
-5.6367
20
-1.1940
10
-5.6367
20
-1.2495
10
-5.5812
20
-1.2495
10
-5.5256
20
-1.3606
10
-5.4146
20
-1.3606
10
-5.2480
20
-1.5827
10
-5.1369
20
-1.5827
10
-5.1369
20
-1.8049
10
-5.4701
20
-1.7493
10
-5.5256
20
-1.6383
10
-5.6922
20
-1.6383
10
-5.8033
20
-1.4717
10
-5.9144
20
-1.4717
10
-5.9699
20
-1.3606
10
-6.0810
20
-1.3606
10
-6.0810
20
-1.3050
10
-6.1365
20
-1.3050
10
-6.3031
20
-1.0829
10
-6.4142
20
-1.0829
10
-6.9695
20
-0.4720
10
-7.1361
20
-0.4720
10
-7.1361
20
-0.4165
10
-7.4138
20
-0.3610
10
-7.4138
20
-0.3054
10
-7.6359
20
-0.3054
10
-7.6359
20
-0.5831
10
-7.5804
20
-0.5831
10
-7.5804
20
-0.6942
10
-7.2472
20
-0.6942
10
-7.2472
20
-0.7497
10
-7.1917
20
-0.7497
10
-7.1917
20
-0.9718
10
-7.3027
20
-0.9718
10
-7.3027
20
-1.0829
10
-7.3583
20
-1.0829
10
-7.3583
20
-1.1940
10
-7.4138
20
-1.1940
10
-7.4138
20
-1.4161
10
-7.3583
20
-1.4161
10
-7.3583
20
-1.4717
10
-7.1917
20
-1.4717
10
-7.1917
20
-1.5272
10
-7.0806
20
-1.5272
10
-7.0806
20
-1.5827
10
-6.9695
20
-1.5827
10
-6.9695
20
-1.6383
10
-6.8584
20
-1.6383
10
-6.8584
20
-1.6938
10
-6.6918
20
-1.6938
10
-6.6918
20
-1.7493
10
-6.5808
20
-1.7493
10
-6.5808
20
-1.8049
10
-6.4142
20
-1.8049
10
-6.4142
20
-1.8604
10
-6.3031
20
-1.8604
10
-6.3031
20
-1.9159
10
-6.0810
20
-1.9159
10
-6.0810
20
-1.8604
10
-5.9144
20
-1.9159
10
-5.9144
20
-2.1381
10
-5.9699
20
-2.1381
10
-5.9699
20
-2.1936
10
-6.0810
20
-2.1936
10
-6.1365
20
-2.3047
10
-6.3031
20
-2.3047
10
-6.3031
20
-2.3602
10
-6.5808
20
-2.3602
10
-6.6363
20
-2.2491
10
-6.7474
20
-2.2491
10
-6.8029
20
-2.1381
10
-7.0250
20
-2.0825
10
-7.0250
20
-2.0270
10
-7.1917
20
-1.9715
10
-7.2472
20
-1.8604
10
-7.4693
20
-1.8604
10
-7.4693
20
-2.2491
10
-7.4138
20
-2.2491
10
-7.4138
20
-2.5268
10
-7.3583
20
-2.5268
10
-7.3583
20
-2.6379
10
-7.0806
20
-2.6379
10
-7.0806
20
-2.5823
10
-6.9140
20
-2.5823
10
-6.9140
20
-2.5268
10
-6.7474
20
-2.5823
10
-6.7474
20
-2.7489
10
-7.0806
20
-3.0266
10
-7.0806
20
-3.1377
10
-7.2472
20
-3.2487
10
-7.2472
20
-3.3598
10
-7.3027
20
-3.3598
10
-7.3583
20
-3.4709
10
-7.4693
20
-3.4709
10
-7.4693
20
-3.4153
10
-7.6915
20
-3.2487
10
-7.6915
20
-3.1377
10
-7.7470
20
-3.1377
10
-7.7470
20
-3.0266
10
-7.8025
20
-3.0266
10
-7.8025
20
-2.8045
10
-7.8581
20
-2.8045
10
-7.8581
20
-2.4713
10
-7.9136
20
-2.4713
10
-7.8581
20
-1.5272
10
-8.1913
20
-1.4161
10
-8.2468
20
-1.3050
10
-8.3579
20
-1.3050
10
-8.3579
20
-1.2495
10
-8.4689
20
-1.2495
10
-8.4689
20
-1.1940
10
-8.5800
20
-1.1384
10
-8.5245
20
-0.9718
10
-8.3579
20
-0.9718
10
-8.3579
20
-1.0274
10
-8.2468
20
-1.0274
10
-8.2468
20
-1.0829
10
-8.0247
20
-1.0829
10
-7.9691
20
-1.1940
10
-7.8025
20
-1.1940
10
-7.8025
20
-0.8052
10
-8.0802
20
-0.5831
10
-8.1357
20
-0.4165
10
-8.2468
20
-0.4165
10
-8.2468
20
-0.3610
10
-8.3579
20
-0.3610
10
-8.3579
20
-0.3054
10
-8.7466
20
-0.3054
10
-8.7466
20
-0.4165
10
-8.8021
20
-0.4165
10
-8.8021
20
-0.4720
10
-8.9132
20
-0.5276
10
-8.9132
20
-0.6386
10
-9.1353
20
-0.8052
10
-9.1353
20
-0.9718
10
-9.2464
20
-1.0274
10
-9.3019
20
-1.2495
10
-9.4130
20
-1.3050
10
-9.4685
20
-1.6383
10
-9.4130
20
-1.6383
10
-9.4130
20
-1.7493
10
-9.3019
20
-1.8049
10
-9.3019
20
-1.9159
10
-9.2464
20
-1.9159
10
-8.8021
20
-2.4157
10
-8.6911
20
-2.4157
10
-8.5800
20
-2.5823
10
-8.4689
20
-2.5823
10
-8.4134
20
-2.6934
10
-8.3023
20
-2.6934
10
-8.3023
20
-2.7489
10
-8.1913
20
-2.8045
10
-8.2468
20
-2.9155
10
-8.4689
20
-2.9155
10
-8.4689
20
-2.8600
10
-8.6911
20
-2.8600
10
-8.6911
20
-2.8045
10
-8.8021
20
-2.8045
10
-8.8021
20
-2.7489
10
-8.9687
20
-2.7489
10
-8.9687
20
-2.6934
10
-9.1353
20
-2.6379
10
-9.2464
20
-2.4713
10
-9.3575
20
-2.4713
10
-9.4130
20
-2.3047
10
-9.4685
20
-2.3047
10
-9.6907
20
-2.0270
10
-9.8573
20
-2.0270
10
-9.8573
20
-2.1381
10
-9.9128
20
-2.1381
10
-9.9128
20
-2.2491
10
-10.0239
20
-2.3047
10
-10.0239
20
-2.4157
10
-10.0794
20
-2.4157
10
-10.0794
20
-2.5268
10
-10.1905
20
-2.5823
10
-10.1905
20
-2.6934
10
-10.2460
20
-2.6934
10
-10.5237
20
-3.0266
10
-10.6348
20
-3.0266
10
-10.6348
20
-3.0821
10
-11.4678
20
-3.0821
10
-11.4678
20
-3.0266
10
-11.9676
20
-2.9711
10
-11.9676
20
-2.9155
10
-12.0231
20
-2.9155
10
-12.0231
20
-2.7489
10
-11.7454
20
-2.6934
10
-11.7454
20
-2.6379
10
-11.4678
20
-2.5823
10
-11.4678
20
-2.5268
10
-11.3012
20
-2.5268
10
-11.2456
20
-2.4157
10
-11.0790
20
-2.4157
10
-11.0235
20
-2.3047
10
-10.8014
20
-2.2491
10
-10.8014
20
-2.1936
10
-10.6348
20
-2.1381
10
-10.5237
20
-1.9715
10
-10.4126
20
-1.9715
10
-10.4126
20
-1.9159
10
-10.0239
20
-1.5827
10
-10.0239
20
-1.3606
10
-10.0794
20
-1.3606
10
-10.0794
20
-1.1940
10
-10.1350
20
-1.1940
10
-10.1905
20
-0.8608
10
-10.2460
20
-0.8608
10
-10.3016
20
-0.2499
10
-10.3571
20
-0.2499
10
-10.3571
20
-0.0833
10
-10.4126
20
-0.0833
10
-10.4126
20
0.0833
10
-10.4682
20
0.0833
10
-10.4682
20
0.3054
10
-10.4126
20
0.3054
10
-10.3571
20
0.4165
10
-10.2460
20
0.4165
10
-10.2460
20
0.5831
10
-10.5792
20
0.6386
10
-10.5792
20
0.6942
10
-10.7458
20
0.6942
10
-10.7458
20
0.7497
10
-10.9680
20
0.7497
10
-10.9680
20
0.8052
10
-11.3012
20
0.9163
10
-11.3012
20
1.1384
10
-11.2456
20
1.1384
10
-11.2456
20
1.1940
10
-11.1346
20
1.1940
10
-11.1346
20
1.2495
10
-11.0235
20
1.2495
10
-11.0235
20
1.3050
10
-10.6903
20
1.3050
10
-10.6903
20
1.2495
10
-10.5237
20
1.2495
10
-10.4682
20
1.1384
10
-10.3571
20
1.1384
10
-10.3571
20
1.0829
10
-10.2460
20
1.0829
10
-10.2460
20
1.0274
10
-10.0794
20
1.0274
10
-10.0239
20
0.9163
10
-9.5241
20
0.8052
10
-9.5241
20
1.0274
10
-9.5796
20
1.0274
10
-9.6351
20
1.3606
10
-9.6907
20
1.3606
10
-9.6907
20
1.4717
10
-9.7462
20
1.4717
10
-9.7462
20
1.5827
10
-9.8017
20
1.5827
10
-9.8573
20
2.0270
10
-9.9683
20
2.0825
10
-9.9683
20
2.3047
10
-10.1350
20
2.4157
10
-10.1905
20
2.6934
10
-10.1350
20
2.6934
10
-10.0794
20
2.8045
10
-9.9128
20
2.8045
10
-9.8017
20
2.9711
10
-9.6351
20
2.9711
10
-9.6351
20
3.0266
10
-9.3575
20
3.0266
10
-9.3575
20
2.9711
10
-9.3019
20
2.9711
10
-9.3019
20
2.8600
10
-9.2464
20
2.8600
10
-9.3019
20
2.6934
10
-9.3575
20
2.6934
10
-9.3019
20
1.7493
10
-9.2464
20
1.7493
10
-9.2464
20
1.4717
10
-9.1909
20
1.4717
10
-9.1909
20
1.3606
10
-9.1353
20
1.3606
10
-9.0798
20
1.0274
10
-8.9132
20
1.0274
10
-8.8577
20
1.1384
10
-8.6911
20
1.1384
10
-8.6911
20
1.1940
10
-8.5800
20
1.1940
10
-8.5800
20
1.2495
10
-8.5245
20
1.2495
10
-8.5245
20
1.1940
10
-8.3579
20
1.1940
10
-8.3579
20
1.4161
10
-8.4134
20
1.4161
10
-8.4134
20
1.5272
10
-8.4689
20
1.5272
10
-8.5800
20
1.8604
10
-8.7466
20
1.9715
10
-8.7466
20
2.1381
10
-8.6911
20
2.1381
10
-8.5245
20
2.3602
10
-8.4134
20
2.3602
10
-8.4134
20
2.4157
10
-8.1913
20
2.4157
10
-8.1913
20
2.3602
10
-8.1357
20
2.3602
10
-8.1357
20
2.0825
10
-7.6359
20
2.1381
10
-7.5804
20
2.4713
10
-7.6359
20
2.4713
10
-7.6359
20
2.7489
10
-7.7470
20
2.8045
10
-7.7470
20
2.9155
10
-7.6915
20
2.9155
10
-7.6359
20
3.0821
10
-7.4693
20
3.0821
10
-7.4693
20
3.1377
10
-7.1361
20
3.1932
0
LWPOLYLINE
8
STAMP_FACE
90
89
70
1
10
16.1882
20
3.1932
10
16.0216
20
3.1377
10
15.9660
20
3.0266
10
15.8550
20
3.0266
10
15.7994
20
2.8600
10
15.6883
20
2.8045
10
15.6883
20
2.5823
10
15.6328
20
2.5823
10
15.6883
20
2.3047
10
15.6328
20
2.3047
10
15.6328
20
2.2491
10
15.1885
20
2.3047
10
15.1885
20
2.2491
10
15.0219
20
2.2491
10
15.0219
20
2.1936
10
14.7998
20
2.1381
10
14.7998
20
2.0825
10
14.6887
20
2.0270
10
14.6887
20
1.9159
10
14.6332
20
1.9159
10
14.5777
20
1.4161
10
14.6332
20
1.4161
10
14.6887
20
1.1384
10
14.7443
20
1.1384
10
14.9109
20
0.9163
10
15.1885
20
0.8608
10
15.1885
20
0.5831
10
15.0775
20
0.5276
10
15.0775
20
-0.1388
10
15.1885
20
-0.1944
10
15.1885
20
-0.3054
10
15.2441
20
-0.3054
10
15.4107
20
-0.5276
10
15.5773
20
-0.5276
10
15.5773
20
-0.5831
10
16.1326
20
-0.5831
10
16.1882
20
-0.4720
10
16.3548
20
-0.4165
10
16.3548
20
-0.3054
10
16.4103
20
-0.3054
10
16.4658
20
-0.1944
10
16.5769
20
-0.1944
10
16.5769
20
-0.2499
10
16.6880
20
-0.3054
10
16.6880
20
-0.4165
10
16.7990
20
-0.4165
10
16.8546
20
-0.5276
10
17.0767
20
-0.5276
10
17.0767
20
-0.5831
10
17.5765
20
-0.5276
10
17.5765
20
-0.4720
10
17.6876
20
-0.4720
10
17.6876
20
-0.4165
10
17.7986
20
-0.3610
10
17.7986
20
-0.2499
10
17.9097
20
-0.1944
10
17.9097
20
-0.0278
10
17.9652
20
-0.0278
10
17.9097
20
0.5276
10
17.7986
20
0.5831
10
17.7431
20
0.8052
10
17.7986
20
0.8052
10
17.7986
20
0.8608
10
17.9652
20
0.8608
10
17.9652
20
0.9163
10
18.2429
20
1.1384
10
18.2984
20
1.4161
10
18.3540
20
1.4161
10
18.2984
20
1.9159
10
18.1874
20
1.9715
10
18.1874
20
2.0825
10
18.1318
20
2.0825
10
18.0763
20
2.1936
10
17.7986
20
2.2491
10
17.7986
20
2.3047
10
17.6876
20
2.3047
10
17.6876
20
2.3602
10
17.1878
20
2.2491
10
17.1878
20
2.3047
10
17.1322
20
2.3047
10
17.1322
20
2.6934
10
17.0767
20
2.6934
10
17.0767
20
2.8045
10
16.9656
20
2.8600
10
16.9656
20
2.9711
10
16.9101
20
2.9711
10
16.7990
20
3.1377
10
16.6324
20
3.1377
10
16.6324
20
3.1932
0
LWPOLYLINE
8
STAMP_FACE
90
174
70
1
10
0.0278
20
2.7489
10
0.3054
20
2.7489
10
0.3054
20
2.6934
10
0.4165
20
2.6934
10
0.4720
20
2.5823
10
0.9163
20
2.5268
10
0.9163
20
2.4713
10
1.0829
20
2.4713
10
1.0829
20
2.4157
10
1.8049
20
2.3602
10
1.8049
20
2.3047
10
1.8604
20
2.3047
10
1.8604
20
2.1381
10
1.6938
20
2.0825
10
1.6938
20
2.0270
10
1.5827
20
2.0270
10
1.5827
20
1.9715
10
1.1940
20
1.9715
10
1.1940
20
2.0270
10
0.9718
20
2.0270
10
0.9718
20
2.0825
10
0.6942
20
2.1381
10
0.6942
20
2.1936
10
0.4720
20
2.1936
10
0.4720
20
1.9715
10
0.5276
20
1.9715
10
0.5276
20
1.8604
10
0.5831
20
1.8604
10
0.5831
20
1.7493
10
0.6386
20
1.7493
10
0.6942
20
1.5827
10
1.1940
20
1.6383
10
1.1940
20
1.4161
10
1.1384
20
1.4161
10
1.1384
20
1.3606
10
1.0274
20
1.3050
10
1.0274
20
1.1940
10
0.8608
20
1.0829
10
0.8608
20
0.9718
10
0.7497
20
0.9163
10
0.7497
20
0.7497
10
0.9163
20
0.7497
10
0.9163
20
0.6942
10
1.0829
20
0.6942
10
1.0829
20
0.6386
10
1.2495
20
0.6386
10
1.2495
20
0.5831
10
1.4161
20
0.5831
10
1.4161
20
0.5276
10
1.7493
20
0.5276
10
1.7493
20
0.4720
10
2.0270
20
0.4720
10
2.0270
20
0.4165
10
2.3602
20
0.4165
10
2.3602
20
0.3610
10
2.4157
20
0.3610
10
2.4157
20
0.1944
10
2.2491
20
0.1388
10
2.2491
20
0.0833
10
2.1381
20
0.0833
10
2.1381
20
0.0278
10
1.8049
20
0.0278
10
1.8049
20
0.0833
10
1.5827
20
0.0833
10
1.5827
20
0.1388
10
1.3050
20
0.1944
10
1.3050
20
0.2499
10
1.0829
20
0.2499
10
1.0829
20
0.0278
10
1.1384
20
0.0278
10
1.1384
20
-0.0833
10
1.1940
20
-0.0833
10
1.2495
20
-0.3610
10
1.3606
20
-0.4165
10
1.3606
20
-0.5276
10
1.4717
20
-0.5831
10
1.4717
20
-0.6942
10
1.5827
20
-0.7497
10
1.5827
20
-0.8608
10
1.7493
20
-0.9718
10
1.8049
20
-1.1940
10
2.1381
20
-1.4717
10
2.1936
20
-1.6383
10
2.3602
20
-1.6938
10
2.4157
20
-1.8604
10
2.5268
20
-1.8604
10
2.5823
20
-2.0270
10
2.5268
20
-2.0270
10
2.5268
20
-2.0825
10
2.1936
20
-2.0270
10
2.0825
20
-1.8604
10
1.9715
20
-1.8604
10
1.9159
20
-1.7493
10
1.8049
20
-1.7493
10
1.8049
20
-1.6938
10
1.3050
20
-1.2495
10
1.3050
20
-1.1384
10
1.1940
20
-1.0829
10
1.1940
20
-0.9718
10
1.0829
20
-0.9163
10
1.0829
20
-0.8052
10
0.9718
20
-0.7497
10
0.9718
20
-0.6386
10
0.9163
20
-0.6386
10
0.9163
20
-0.5831
10
0.7497
20
-0.5831
10
0.7497
20
-1.8049
10
0.8052
20
-1.8049
10
0.8608
20
-2.1381
10
1.2495
20
-2.1381
10
1.2495
20
-2.0825
10
1.3606
20
-2.0825
10
1.3606
20
-2.0270
10
1.5272
20
-2.0270
10
1.5272
20
-2.1381
10
1.5827
20
-2.1381
10
1.5827
20
-2.1936
10
1.1384
20
-2.5823
10
1.1384
20
-2.6934
10
1.0274
20
-2.7489
10
1.0274
20
-2.8600
10
0.9718
20
-2.8600
10
0.9163
20
-3.0266
10
0.6942
20
-3.0266
10
0.6942
20
-2.9711
10
0.4720
20
-2.8045
10
0.4720
20
-2.6934
10
0.4165
20
-2.6934
10
0.4165
20
-2.5823
10
0.3610
20
-2.5823
10
0.3610
20
-2.3602
10
0.3054
20
-2.3602
10
0.3054
20
-2.0825
10
0.2499
20
-2.0825
10
0.2499
20
-1.0274
10
0.3054
20
-1.0274
10
0.3610
20
-0.2499
10
0.1388
20
-0.1944
10
0.1388
20
-0.1388
10
0.0833
20
-0.1388
10
-0.1388
20
0.1388
10
-0.2499
20
0.1388
10
-0.3054
20
0.2499
10
-0.6386
20
0.3610
10
-0.6386
20
0.5831
10
-0.5831
20
0.5831
10
-0.4165
20
0.8052
10
-0.3054
20
0.8052
10
-0.2499
20
0.9163
10
0.0833
20
0.9718
10
0.0833
20
0.9163
10
0.1944
20
0.9163
10
0.1944
20
0.8608
10
0.3610
20
0.8608
10
0.3610
20
1.0274
10
0.3054
20
1.0274
10
0.3054
20
1.0829
10
0.3610
20
1.0829
10
0.3610
20
1.2495
10
0.4165
20
1.2495
10
0.4165
20
1.4717
10
0.3610
20
1.4717
10
-0.0833
20
1.9715
10
-0.1944
20
1.9715
10
-0.1944
20
2.0270
10
-0.3054
20
2.0270
10
-0.3054
20
2.0825
10
-0.4720
20
2.1381
10
-0.4720
20
2.4157
10
-0.3054
20
2.4713
10
-0.2499
20
2.5823
10
-0.1388
20
2.5823
10
-0.1388
20
2.6379
10
0.0278
20
2.6934
0
LWPOLYLINE
8
STAMP_FACE
90
76
70
1
10
-16.7990
20
2.5823
10
-16.4658
20
2.5823
10
-16.4658
20
2.5268
10
-16.2992
20
2.4713
10
-16.2992
20
2.3602
10
-16.2437
20
2.3602
10
-16.2437
20
2.2491
10
-16.1882
20
2.2491
10
-16.1882
20
1.8604
10
-15.6328
20
1.9159
10
-15.6328
20
1.8604
10
-15.5217
20
1.8604
10
-15.5217
20
1.8049
10
-15.3551
20
1.6938
10
-15.3551
20
1.5827
10
-15.2996
20
1.5827
10
-15.2996
20
1.3050
10
-15.3551
20
1.3050
10
-15.3551
20
1.1940
10
-15.4107
20
1.1940
10
-15.5217
20
1.0274
10
-15.8550
20
0.9718
10
-15.8550
20
0.8052
10
-15.7994
20
0.8052
10
-15.7994
20
0.6942
10
-15.7439
20
0.6942
10
-15.6883
20
0.5276
10
-15.6328
20
0.5276
10
-15.6328
20
0.1944
10
-15.6883
20
0.1944
10
-15.6883
20
0.0833
10
-15.7439
20
0.0833
10
-15.7994
20
-0.0278
10
-15.9105
20
-0.0278
10
-15.9105
20
-0.0833
10
-16.1882
20
-0.0833
10
-16.1882
20
-0.0278
10
-16.2992
20
-0.0278
10
-16.2992
20
0.0278
10
-16.5214
20
0.1944
10
-16.5214
20
0.3054
10
-16.6880
20
0.3054
10
-16.7435
20
0.1388
10
-16.7990
20
0.1388
10
-16.8546
20
0.0278
10
-16.9656
20
0.0278
10
-17.0212
20
-0.0833
10
-17.3544
20
-0.0833
10
-17.3544
20
-0.0278
10
-17.5765
20
0.1388
10
-17.5765
20
0.5831
10
-17.5210
20
0.5831
10
-17.5210
20
0.6942
10
-17.3544
20
0.8052
10
-17.3544
20
0.9718
10
-17.5210
20
0.9718
10
-17.5210
20
1.0274
10
-17.6876
20
1.0274
10
-17.7431
20
1.1384
10
-17.8542
20
1.1384
10
-17.9652
20
1.5272
10
-17.9097
20
1.5272
10
-17.9097
20
1.6938
10
-17.8542
20
1.6938
10
-17.7431
20
1.8604
10
-17.6320
20
1.8604
10
-17.6320
20
1.9159
10
-17.3544
20
1.9159
10
-17.3544
20
1.8604
10
-17.2433
20
1.8604
10
-17.2433
20
1.8049
10
-17.0767
20
1.8049
10
-17.0212
20
2.3602
10
-16.9656
20
2.3602
10
-16.9656
20
2.4713
10
-16.7990
20
2.5268
0
LWPOLYLINE
8
STAMP_FACE
90
74
70
1
10
16.2437
20
2.5823
10
16.5769
20
2.5823
10
16.5769
20
2.5268
10
16.7990
20
2.3602
10
16.7990
20
2.2491
10
16.8546
20
2.2491
10
16.8546
20
1.8604
10
17.4654
20
1.9159
10
17.4654
20
1.8604
10
17.5765
20
1.8604
10
17.5765
20
1.8049
10
17.7431
20
1.6938
10
17.7431
20
1.5272
10
17.7986
20
1.5272
10
17.7431
20
1.2495
10
17.6876
20
1.2495
10
17.5210
20
1.0274
10
17.2433
20
0.9718
10
17.2433
20
0.8052
10
17.3544
20
0.7497
10
17.3544
20
0.6386
10
17.4099
20
0.6386
10
17.4099
20
0.5276
10
17.4654
20
0.5276
10
17.4654
20
0.1944
10
17.4099
20
0.1944
10
17.4099
20
0.0833
10
17.3544
20
0.0833
10
17.2988
20
-0.0278
10
17.1878
20
-0.0278
10
17.1878
20
-0.0833
10
16.9656
20
-0.0833
10
16.9656
20
-0.0278
10
16.7435
20
0.0278
10
16.5769
20
0.3054
10
16.4103
20
0.3054
10
16.3548
20
0.1388
10
16.2992
20
0.1388
10
16.1882
20
-0.0278
10
16.0771
20
-0.0278
10
16.0771
20
-0.0833
10
15.7994
20
-0.0833
10
15.7994
20
-0.0278
10
15.6883
20
-0.0278
10
15.6883
20
0.0278
10
15.5773
20
0.0833
10
15.5773
20
0.2499
10
15.5217
20
0.2499
10
15.5217
20
0.5831
10
15.5773
20
0.5831
10
15.5773
20
0.6942
10
15.6883
20
0.7497
10
15.6883
20
0.9718
10
15.5217
20
0.9718
10
15.5217
20
1.0274
10
15.2996
20
1.0829
10
15.2996
20
1.1384
10
15.1885
20
1.1940
10
15.1885
20
1.3050
10
15.1330
20
1.3050
10
15.1330
20
1.6383
10
15.1885
20
1.6383
10
15.1885
20
1.7493
10
15.2441
20
1.7493
10
15.2996
20
1.8604
10
15.7439
20
1.9159
10
15.7439
20
1.8604
10
15.8550
20
1.8604
10
15.8550
20
1.8049
10
16.0216
20
1.8049
10
15.9660
20
2.2491
10
16.0216
20
2.2491
10
16.0771
20
2.4713
10
16.2437
20
2.5268
0
LWPOLYLINE
8
STAMP_FACE
90
17
70
1
10
6.4142
20
1.9159
10
6.3586
20
1.9159
10
6.3586
20
1.6938
10
6.4697
20
1.6383
10
6.5252
20
1.4717
10
6.8584
20
1.4717
10
6.8584
20
1.5272
10
6.9695
20
1.5272
10
6.9695
20
1.4717
10
7.0806
20
1.4717
10
7.1361
20
1.3606
10
7.4693
20
1.3050
10
7.4693
20
1.6938
10
7.1361
20
1.7493
10
7.1361
20
1.8049
10
6.8584
20
1.8049
10
6.8584
20
1.8604
0
LWPOLYLINE
8
STAMP_FACE
90
7
70
1
10
-7.8581
20
1.6383
10
-7.9136
20
1.6383
10
-7.9136
20
1.4161
10
-7.8581
20
1.4161
10
-7.7470
20
1.0829
10
-7.5804
20
1.0829
10
-7.5804
20
1.6383
0
LWPOLYLINE
8
STAMP_FACE
90
13
70
1
10
-1.8604
20
1.6383
10
-1.9159
20
1.6383
10
-1.9159
20
1.4717
10
-1.8604
20
1.4717
10
-1.7493
20
1.1384
10
-1.5272
20
1.1384
10
-1.5272
20
1.1940
10
-1.4161
20
1.1940
10
-1.3050
20
1.3606
10
-1.1940
20
1.3606
10
-1.1940
20
1.5827
10
-1.2495
20
1.5827
10
-1.2495
20
1.6383
0
LWPOLYLINE
8
STAMP_FACE
90
83
70
1
10
8.0802
20
1.5272
10
7.9691
20
1.4717
10
7.9691
20
1.1384
10
8.2468
20
1.0829
10
8.2468
20
1.0274
10
8.4689
20
1.0274
10
8.4689
20
0.9718
10
8.6911
20
0.9718
10
8.6911
20
0.9163
10
8.7466
20
0.9163
10
8.7466
20
0.7497
10
8.6911
20
0.7497
10
8.6911
20
0.6942
10
8.5245
20
0.6942
10
8.5245
20
0.6386
10
8.1357
20
0.6942
10
8.1357
20
0.7497
10
7.9136
20
0.7497
10
7.8581
20
0.4165
10
7.8025
20
0.4165
10
7.6915
20
0.2499
10
7.5804
20
0.2499
10
7.5804
20
0.1944
10
7.4693
20
0.1944
10
7.4693
20
0.1388
10
7.0250
20
0.1388
10
7.0250
20
0.0833
10
6.6918
20
0.1388
10
6.6918
20
-0.0278
10
7.0250
20
-0.0833
10
7.0250
20
-0.1388
10
7.4693
20
-0.0833
10
7.5249
20
-0.2499
10
7.6915
20
-0.2499
10
7.6915
20
-0.1944
10
7.8025
20
-0.1944
10
7.8025
20
-0.1388
10
7.9136
20
-0.1388
10
7.9136
20
-0.0833
10
8.1357
20
-0.0833
10
8.1357
20
0.1944
10
8.3023
20
0.2499
10
8.3023
20
0.3054
10
8.4134
20
0.3054
10
8.4134
20
0.3610
10
8.5245
20
0.3610
10
8.5245
20
0.4165
10
8.6355
20
0.4165
10
8.6355
20
0.3610
10
8.7466
20
0.3610
10
8.7466
20
-0.0833
10
8.8021
20
-0.0833
10
8.8021
20
-0.2499
10
8.8577
20
-0.2499
10
8.8577
20
-0.3610
10
8.9132
20
-0.3610
10
8.9132
20
-0.4720
10
8.9687
20
-0.4720
10
9.0798
20
-0.8052
10
9.1353
20
-0.8052
10
9.1353
20
-0.8608
10
9.3019
20
-0.8608
10
9.3019
20
-0.6942
10
9.2464
20
-0.6942
10
9.2464
20
-0.5276
10
9.1909
20
-0.5276
10
9.1909
20
-0.3054
10
9.1353
20
-0.3054
10
9.1353
20
-0.1388
10
9.0798
20
-0.1388
10
9.0798
20
0.0833
10
9.0243
20
0.0833
10
9.0243
20
0.4165
10
8.9687
20
0.4165
10
8.9687
20
0.7497
10
8.9132
20
0.7497
10
8.8577
20
1.3606
10
8.6911
20
1.3606
10
8.6911
20
1.4161
10
8.5245
20
1.4161
10
8.5245
20
1.4717
10
8.3579
20
1.4717
10
8.3579
20
1.5272
0
LWPOLYLINE
8
STAMP_FACE
90
27
70
1
10
-8.9132
20
0.8052
10
-8.9687
20
0.8052
10
-8.9687
20
0.6386
10
-8.9132
20
0.6386
10
-8.9132
20
0.5276
10
-8.8577
20
0.5276
10
-8.8577
20
0.4165
10
-8.8021
20
0.4165
10
-8.8021
20
0.3054
10
-8.7466
20
0.3054
10
-8.7466
20
0.1944
10
-8.6911
20
0.1944
10
-8.5800
20
-0.1388
10
-8.4134
20
-0.1388
10
-8.3023
20
0.0278
10
-8.1913
20
0.0278
10
-8.1913
20
0.0833
10
-8.0247
20
0.1388
10
-8.0247
20
0.1944
10
-7.6915
20
0.1944
10
-7.6915
20
0.4165
10
-7.8581
20
0.5276
10
-7.8581
20
0.6386
10
-8.0802
20
0.6386
10
-8.0802
20
0.6942
10
-8.3023
20
0.6942
10
-8.3023
20
0.7497
0
LWPOLYLINE
8
STAMP_FACE
90
9
70
1
10
0.1944
20
0.5276
10
0.1388
20
0.5276
10
0.1388
20
0.3054
10
0.1944
20
0.3054
10
0.2499
20
0.0833
10
0.4165
20
0.0833
10
0.4720
20
0.2499
10
0.5276
20
0.2499
10
0.5276
20
0.4720
0
LWPOLYLINE
8
STAMP_FACE
90
23
70
1
10
-9.6907
20
0.4165
10
-9.7462
20
0.4165
10
-9.7462
20
0.2499
10
-9.8017
20
0.2499
10
-9.8573
20
-0.1944
10
-9.8017
20
-0.1944
10
-9.7462
20
-0.9718
10
-9.5796
20
-0.9718
10
-9.5796
20
-0.8608
10
-9.5241
20
-0.8608
10
-9.4685
20
-0.6942
10
-9.3575
20
-0.6386
10
-9.3019
20
-0.4165
10
-9.2464
20
-0.4165
10
-9.1909
20
-0.3054
10
-9.0798
20
-0.3054
10
-9.0798
20
-0.2499
10
-8.9132
20
-0.1944
10
-8.9132
20
-0.0278
10
-8.9687
20
-0.0278
10
-9.0243
20
0.1388
10
-9.1909
20
0.2499
10
-9.1909
20
0.3610
0
LWPOLYLINE
8
STAMP_FACE
90
19
70
1
10
7.4693
20
-0.4720
10
7.4138
20
-0.4720
10
7.4138
20
-0.8608
10
7.4693
20
-0.8608
10
7.5249
20
-1.1940
10
7.5804
20
-1.1940
10
7.6915
20
-1.5272
10
7.9136
20
-1.5272
10
7.9691
20
-1.4161
10
8.0802
20
-1.4161
10
8.0802
20
-1.2495
10
7.9691
20
-1.1940
10
7.9691
20
-1.0829
10
7.9136
20
-1.0829
10
7.9136
20
-0.9718
10
7.8581
20
-0.9718
10
7.7470
20
-0.6386
10
7.6915
20
-0.6386
10
7.5804
20
-0.4720
0
LWPOLYLINE
8
STAMP_FACE
90
9
70
1
10
8.3023
20
-0.5276
10
8.2468
20
-0.5276
10
8.2468
20
-0.7497
10
8.3023
20
-0.7497
10
8.3579
20
-1.0274
10
8.6911
20
-0.9718
10
8.6911
20
-0.7497
10
8.5800
20
-0.6942
10
8.5800
20
-0.5831
0
LWPOLYLINE
8
STAMP_FACE
90
142
70
1
10
14.1334
20
-3.9707
10
14.3555
20
-3.9707
10
14.4111
20
-4.0817
10
14.7998
20
-4.0262
10
14.7998
20
-4.0817
10
14.8553
20
-4.0817
10
14.8553
20
-4.3039
10
14.9109
20
-4.3039
10
14.9109
20
-4.4150
10
14.9664
20
-4.4150
10
14.9664
20
-4.5260
10
15.0775
20
-4.5816
10
15.1330
20
-4.7482
10
15.2996
20
-4.7482
10
15.2996
20
-4.5816
10
15.3551
20
-4.5816
10
15.3551
20
-4.5260
10
15.5217
20
-4.5260
10
15.6328
20
-4.6926
10
15.9660
20
-4.7482
10
15.9660
20
-4.8592
10
16.0216
20
-4.8592
10
16.0216
20
-5.0814
10
15.9660
20
-5.0814
10
15.9660
20
-5.1369
10
15.7439
20
-5.1369
10
15.7439
20
-5.0814
10
15.5773
20
-5.0258
10
15.5773
20
-4.9703
10
15.3551
20
-4.9703
10
15.3551
20
-5.0258
10
15.2996
20
-5.0258
10
15.2996
20
-5.1924
10
15.4107
20
-5.1924
10
15.4107
20
-5.4146
10
15.1885
20
-5.5812
10
15.1885
20
-5.8033
10
15.4107
20
-5.8033
10
15.4662
20
-5.6922
10
15.5773
20
-5.6922
10
15.6328
20
-5.5812
10
15.7439
20
-5.5812
10
15.9105
20
-5.3590
10
16.1882
20
-5.3035
10
16.2437
20
-5.5256
10
16.1326
20
-5.5812
10
16.0771
20
-5.7478
10
15.9105
20
-5.7478
10
15.8550
20
-5.8588
10
15.7439
20
-5.8588
10
15.7439
20
-5.9144
10
15.6328
20
-5.9144
10
15.5773
20
-6.0254
10
15.4107
20
-6.0254
10
15.4107
20
-6.0810
10
15.3551
20
-6.0810
10
15.3551
20
-6.2476
10
15.4662
20
-6.3031
10
15.5217
20
-6.4697
10
15.7994
20
-6.4697
10
15.7994
20
-6.3586
10
15.8550
20
-6.3586
10
15.9105
20
-6.2476
10
16.0216
20
-6.3031
10
16.0216
20
-6.5252
10
15.9660
20
-6.5252
10
16.0216
20
-6.9140
10
15.9660
20
-6.9140
10
15.9660
20
-6.9695
10
15.6883
20
-7.0250
10
15.6883
20
-6.9695
10
15.4662
20
-6.9140
10
15.4662
20
-6.8584
10
15.2441
20
-6.6918
10
15.2441
20
-6.5808
10
15.1885
20
-6.5808
10
15.0775
20
-6.4142
10
14.9109
20
-6.4142
10
14.9109
20
-6.4697
10
14.7998
20
-6.4697
10
14.6887
20
-6.6363
10
14.5777
20
-6.6363
10
14.5777
20
-6.7474
10
14.5221
20
-6.7474
10
14.3555
20
-6.9695
10
14.0779
20
-7.0250
10
14.0779
20
-6.6363
10
14.1334
20
-6.6363
10
14.3000
20
-6.4142
10
14.4666
20
-6.4142
10
14.5221
20
-6.3031
10
14.7443
20
-6.2476
10
14.7443
20
-6.0810
10
14.4666
20
-6.0810
10
14.4666
20
-6.1365
10
14.2445
20
-6.0810
10
14.3000
20
-5.7478
10
14.1334
20
-5.7478
10
14.1334
20
-5.8033
10
14.0223
20
-5.8033
10
14.0223
20
-5.8588
10
13.9113
20
-5.9144
10
13.9113
20
-6.0810
10
14.1889
20
-6.0810
10
14.1889
20
-6.3031
10
13.9113
20
-6.3031
10
13.9113
20
-6.3586
10
13.8002
20
-6.3586
10
13.8002
20
-6.4142
10
13.6891
20
-6.4142
10
13.6891
20
-6.4697
10
13.4670
20
-6.4697
10
13.4115
20
-6.2476
10
13.4670
20
-6.2476
10
13.4670
20
-6.0810
10
13.5225
20
-6.0810
10
13.5225
20
-5.8033
10
13.5781
20
-5.8033
10
13.5781
20
-5.7478
10
13.7447
20
-5.7478
10
13.7447
20
-5.5812
10
13.6891
20
-5.5812
10
13.5781
20
-5.4146
10
13.4670
20
-5.4146
10
13.4115
20
-5.3035
10
13.1338
20
-5.2480
10
13.0227
20
-5.0258
10
13.0783
20
-5.0258
10
13.0783
20
-4.9148
10
13.1338
20
-4.9148
10
13.1338
20
-4.7482
10
13.4115
20
-4.7482
10
13.4115
20
-4.6926
10
13.5225
20
-4.6371
10
13.5225
20
-4.4150
10
13.5781
20
-4.4150
10
13.6336
20
-4.2483
10
13.7447
20
-4.2483
10
13.7447
20
-4.3039
10
14.0779
20
-4.2483
10
14.0779
20
-4.0262
10
14.1334
20
-4.0262
0
LWPOLYLINE
8
STAMP_FACE
90
122
70
1
10
-14.9664
20
-4.4705
10
-14.6332
20
-4.4705
10
-14.6332
20
-4.5260
10
-14.5221
20
-4.5816
10
-14.5221
20
-4.7482
10
-14.6332
20
-4.7482
10
-14.6332
20
-4.8037
10
-14.7443
20
-4.8592
10
-14.7998
20
-5.0814
10
-14.9109
20
-5.1369
10
-14.9109
20
-5.3035
10
-15.0219
20
-5.3590
10
-15.0775
20
-5.6922
10
-14.5221
20
-5.7478
10
-14.5221
20
-5.6922
10
-14.4666
20
-5.6922
10
-14.4666
20
-5.5256
10
-14.6332
20
-5.4146
10
-14.6887
20
-5.1369
10
-14.4666
20
-5.0814
10
-14.4666
20
-5.1369
10
-14.3000
20
-5.1924
10
-14.3000
20
-5.3035
10
-14.1334
20
-5.3035
10
-14.0779
20
-5.1369
10
-13.9668
20
-5.0814
10
-13.9668
20
-4.9148
10
-14.0779
20
-4.8592
10
-14.0779
20
-4.6926
10
-14.0223
20
-4.6926
10
-13.9668
20
-4.5816
10
-13.5225
20
-4.6371
10
-13.5225
20
-4.7482
10
-13.4670
20
-4.7482
10
-13.4670
20
-4.8037
10
-13.5781
20
-4.8592
10
-13.5781
20
-5.0814
10
-13.5225
20
-5.0814
10
-13.5225
20
-5.3035
10
-13.4670
20
-5.3035
10
-13.4670
20
-5.4146
10
-13.4115
20
-5.4146
10
-13.4115
20
-5.5256
10
-13.3559
20
-5.5256
10
-13.3559
20
-5.6922
10
-13.5781
20
-5.6922
10
-13.5781
20
-5.5812
10
-13.6336
20
-5.5812
10
-13.6891
20
-5.4701
10
-13.9113
20
-5.4701
10
-13.9113
20
-5.5256
10
-14.0223
20
-5.5812
10
-14.0223
20
-5.7478
10
-13.7447
20
-5.9699
10
-13.7447
20
-6.0810
10
-13.4670
20
-6.3031
10
-13.4670
20
-6.4142
10
-13.5225
20
-6.4142
10
-13.5225
20
-6.4697
10
-13.8557
20
-6.4697
10
-13.8557
20
-6.4142
10
-13.9668
20
-6.4142
10
-13.9668
20
-6.3031
10
-14.0779
20
-6.2476
10
-14.0779
20
-6.0810
10
-14.2445
20
-6.0810
10
-14.3000
20
-6.8029
10
-14.3555
20
-6.8029
10
-14.3555
20
-6.9695
10
-14.3000
20
-6.9695
10
-14.3000
20
-7.3583
10
-14.3555
20
-7.3583
10
-14.3555
20
-7.4138
10
-14.4666
20
-7.4138
10
-14.5221
20
-7.2472
10
-14.5777
20
-7.2472
10
-14.5777
20
-7.0250
10
-14.6332
20
-7.0250
10
-14.6332
20
-6.4142
10
-14.7998
20
-6.4142
10
-14.7998
20
-6.4697
10
-14.9109
20
-6.5252
10
-14.9109
20
-6.6363
10
-15.0219
20
-6.6918
10
-15.0775
20
-6.9695
10
-15.1330
20
-6.9695
10
-15.1885
20
-7.0806
10
-15.5217
20
-7.1917
10
-15.5217
20
-7.1361
10
-15.6328
20
-7.0806
10
-15.6328
20
-6.9140
10
-15.5773
20
-6.9140
10
-15.5773
20
-6.8029
10
-15.2441
20
-6.5252
10
-15.2441
20
-6.3586
10
-15.6328
20
-6.4142
10
-15.6328
20
-6.3586
10
-15.7439
20
-6.3031
10
-15.7439
20
-5.9699
10
-15.7994
20
-5.9699
10
-15.7994
20
-5.8588
10
-15.8550
20
-5.8588
10
-15.8550
20
-5.6922
10
-15.9105
20
-5.6922
10
-15.9660
20
-5.4701
10
-16.2992
20
-5.4701
10
-16.2992
20
-5.5256
10
-16.5769
20
-5.4701
10
-16.5769
20
-5.2480
10
-16.5214
20
-5.2480
10
-16.4103
20
-5.0814
10
-16.1326
20
-5.0258
10
-16.1326
20
-4.9703
10
-15.4107
20
-4.9703
10
-15.4107
20
-5.0258
10
-15.1885
20
-5.0258
10
-15.1885
20
-4.8592
10
-15.1330
20
-4.8592
10
-15.1330
20
-4.7482
10
-15.0775
20
-4.7482
10
-15.0775
20
-4.5260
10
-14.9664
20
-4.5260
0
LWPOLYLINE
8
STAMP_FACE
90
13
70
1
10
-15.5217
20
-5.1924
10
-15.5773
20
-5.1924
10
-15.5773
20
-5.2480
10
-15.7439
20
-5.2480
10
-15.7439
20
-5.4701
10
-15.6328
20
-5.5256
10
-15.6328
20
-5.6367
10
-15.4662
20
-5.6367
10
-15.4662
20
-5.5812
10
-15.4107
20
-5.5812
10
-15.4107
20
-5.4146
10
-15.3551
20
-5.4146
10
-15.3551
20
-5.1924
0
LWPOLYLINE
8
STAMP_FACE
90
9
70
1
10
-15.1885
20
-5.9144
10
-15.2441
20
-5.9144
10
-15.1885
20
-6.3031
10
-15.0219
20
-6.3031
10
-15.0219
20
-6.2476
10
-14.9664
20
-6.2476
10
-14.9664
20
-6.0254
10
-15.0219
20
-6.0254
10
-15.0775
20
-5.9144
0
LWPOLYLINE
8
STAMP_FACE
90
90
70
1
10
10.3571
20
-6.4697
10
10.5237
20
-6.4697
10
10.5237
20
-6.5252
10
10.5792
20
-6.5252
10
10.5792
20
-6.9695
10
10.6348
20
-6.9695
10
10.6903
20
-7.3027
10
11.0790
20
-7.3027
10
11.0790
20
-7.2472
10
11.2456
20
-7.2472
10
11.3012
20
-7.1361
10
11.4122
20
-7.1361
10
11.4678
20
-7.0250
10
11.6899
20
-7.0250
10
11.6899
20
-7.6359
10
11.7454
20
-7.6359
10
11.8010
20
-8.3023
10
11.7454
20
-8.3023
10
11.7454
20
-8.3579
10
11.5788
20
-8.3579
10
11.5788
20
-8.3023
10
11.3012
20
-8.3023
10
11.3012
20
-8.3579
10
11.1901
20
-8.3579
10
11.2456
20
-8.6911
10
11.3012
20
-8.6911
10
11.3567
20
-8.9687
10
11.4122
20
-8.9687
10
11.4122
20
-9.0798
10
11.4678
20
-9.0798
10
11.4678
20
-9.1909
10
11.5233
20
-9.1909
10
11.5233
20
-9.3575
10
11.5788
20
-9.3575
10
11.5788
20
-9.4685
10
11.6344
20
-9.4685
10
11.6344
20
-9.8017
10
11.4122
20
-9.8017
10
11.4122
20
-9.7462
10
11.3567
20
-9.7462
10
11.3567
20
-9.6351
10
11.3012
20
-9.6351
10
11.3012
20
-9.5241
10
11.1901
20
-9.4685
10
11.1901
20
-9.3019
10
11.1346
20
-9.3019
10
11.1346
20
-9.1909
10
11.0790
20
-9.1909
10
11.0790
20
-9.0798
10
11.0235
20
-9.0798
10
11.0235
20
-8.9132
10
10.9680
20
-8.9132
10
10.9680
20
-8.8021
10
10.9124
20
-8.8021
10
10.9124
20
-8.6911
10
10.8569
20
-8.6911
10
10.8569
20
-8.5245
10
10.5792
20
-8.5245
10
10.5792
20
-8.5800
10
10.4126
20
-8.5800
10
10.4126
20
-8.6355
10
10.3016
20
-8.6355
10
10.3016
20
-8.6911
10
9.9683
20
-8.7466
10
9.9128
20
-8.4689
10
9.8573
20
-8.4689
10
9.7462
20
-8.3023
10
9.6351
20
-8.3023
10
9.6351
20
-8.2468
10
9.5241
20
-8.2468
10
9.5241
20
-8.1913
10
9.3575
20
-8.1357
10
9.3575
20
-7.9691
10
9.5241
20
-7.8581
10
9.5241
20
-7.7470
10
9.5796
20
-7.7470
10
9.6907
20
-7.5804
10
9.8017
20
-7.5804
10
9.8017
20
-7.5249
10
10.2460
20
-7.5249
10
10.2460
20
-7.4693
10
10.3016
20
-7.4693
10
10.3016
20
-7.2472
10
10.2460
20
-7.2472
10
10.2460
20
-7.0806
10
10.0794
20
-6.9695
10
10.0794
20
-6.7474
10
10.1350
20
-6.7474
10
10.1350
20
-6.6363
10
10.3016
20
-6.5808
0
LWPOLYLINE
8
STAMP_FACE
90
106
70
1
10
-10.8569
20
-6.9140
10
-10.4126
20
-6.9695
10
-10.3016
20
-7.1361
10
-10.3571
20
-7.1361
10
-10.4126
20
-7.2472
10
-10.5237
20
-7.2472
10
-10.5237
20
-7.3027
10
-10.6903
20
-7.3027
10
-10.7458
20
-7.4138
10
-11.0235
20
-7.4693
10
-11.0235
20
-7.6359
10
-10.8569
20
-7.6915
10
-10.8569
20
-7.7470
10
-10.7458
20
-7.7470
10
-10.7458
20
-7.8025
10
-10.6903
20
-7.8025
10
-10.6348
20
-7.9136
10
-10.5237
20
-7.9136
10
-10.4682
20
-8.0247
10
-10.2460
20
-8.0802
10
-10.2460
20
-8.1357
10
-10.1905
20
-8.1357
10
-10.1905
20
-8.3023
10
-10.3016
20
-8.3023
10
-10.3016
20
-8.3579
10
-10.6903
20
-8.3579
10
-10.6903
20
-8.2468
10
-10.7458
20
-8.2468
10
-10.8014
20
-8.1357
10
-10.9124
20
-8.1357
10
-11.0235
20
-7.9691
10
-11.1346
20
-7.9691
10
-11.1346
20
-7.9136
10
-11.4122
20
-7.9136
10
-11.4122
20
-8.0247
10
-11.5233
20
-8.0802
10
-11.5233
20
-8.2468
10
-11.5788
20
-8.2468
10
-11.5788
20
-8.4689
10
-11.6344
20
-8.4689
10
-11.6899
20
-9.0798
10
-11.4678
20
-9.1353
10
-11.3567
20
-9.3019
10
-11.1346
20
-9.3575
10
-11.0235
20
-9.5241
10
-10.8014
20
-9.5796
10
-10.7458
20
-9.6907
10
-10.5237
20
-9.6907
10
-10.5237
20
-9.7462
10
-10.4682
20
-9.7462
10
-10.4682
20
-9.9128
10
-10.5792
20
-9.9128
10
-10.5792
20
-9.9683
10
-11.0235
20
-9.9683
10
-11.3012
20
-9.6351
10
-11.4122
20
-9.6351
10
-11.5233
20
-9.4685
10
-11.7454
20
-9.4130
10
-11.8010
20
-9.3019
10
-11.9120
20
-9.3019
10
-11.9120
20
-9.2464
10
-12.0786
20
-9.1909
10
-12.1342
20
-9.0798
10
-12.3008
20
-9.0798
10
-12.3008
20
-9.0243
10
-12.4118
20
-9.0243
10
-12.4674
20
-8.9132
10
-12.9672
20
-8.8021
10
-12.9672
20
-8.7466
10
-13.0783
20
-8.7466
10
-13.0783
20
-8.6911
10
-13.1893
20
-8.6355
10
-13.1893
20
-8.5245
10
-13.1338
20
-8.5245
10
-13.0783
20
-8.4134
10
-12.6340
20
-8.4134
10
-12.6340
20
-8.4689
10
-12.4118
20
-8.5245
10
-12.3563
20
-8.6355
10
-12.2452
20
-8.6355
10
-12.1897
20
-8.7466
10
-11.9676
20
-8.7466
10
-11.9676
20
-8.4134
10
-11.9120
20
-8.4134
10
-11.9120
20
-7.9691
10
-11.9676
20
-7.9691
10
-11.9676
20
-7.9136
10
-11.9120
20
-7.9136
10
-11.8565
20
-7.7470
10
-11.6344
20
-7.7470
10
-11.6344
20
-7.5804
10
-11.8010
20
-7.5249
10
-11.8010
20
-7.4693
10
-11.9676
20
-7.3583
10
-11.9676
20
-7.1917
10
-11.9120
20
-7.1917
10
-11.9120
20
-7.1361
10
-11.5233
20
-7.1361
10
-11.5233
20
-7.1917
10
-11.4122
20
-7.1917
10
-11.3567
20
-7.3583
10
-11.0790
20
-7.4138
10
-11.0790
20
-7.1361
10
-11.0235
20
-7.1361
10
-11.0235
20
-7.0250
10
-10.8569
20
-6.9695
0
LWPOLYLINE
8
STAMP_FACE
90
9
70
1
10
11.0790
20
-7.5249
10
10.9124
20
-7.5804
10
10.9680
20
-8.0247
10
11.0235
20
-8.0247
10
11.0235
20
-8.0802
10
11.4122
20
-8.0247
10
11.3567
20
-7.5804
10
11.3012
20
-7.5804
10
11.3012
20
-7.5249
0
LWPOLYLINE
8
STAMP_FACE
90
13
70
1
10
10.3016
20
-7.7470
10
10.2460
20
-7.7470
10
10.2460
20
-7.8025
10
10.0239
20
-7.8025
10
10.0239
20
-8.0247
10
10.1350
20
-8.0802
10
10.1350
20
-8.1913
10
10.1905
20
-8.1913
10
10.2460
20
-8.3023
10
10.6348
20
-8.2468
10
10.6348
20
-7.9691
10
10.5792
20
-7.9691
10
10.5237
20
-7.7470
0
LWPOLYLINE
8
STAMP_FACE
90
144
70
1
10
-7.6915
20
-8.1357
10
-7.3027
20
-8.1357
10
-7.3027
20
-8.1913
10
-7.1361
20
-8.2468
10
-7.0806
20
-8.3579
10
-6.9695
20
-8.3579
10
-6.9695
20
-8.4134
10
-6.8584
20
-8.4134
10
-6.8584
20
-8.4689
10
-6.7474
20
-8.4689
10
-6.7474
20
-8.5245
10
-6.6363
20
-8.5245
10
-6.6363
20
-8.5800
10
-6.5252
20
-8.5800
10
-6.5252
20
-8.6355
10
-6.3586
20
-8.6355
10
-6.3586
20
-8.6911
10
-6.2476
20
-8.6911
10
-6.2476
20
-8.7466
10
-6.1365
20
-8.7466
10
-6.1365
20
-8.8021
10
-5.8588
20
-8.8577
10
-5.8588
20
-8.9687
10
-5.9144
20
-8.9687
10
-5.9699
20
-9.0798
10
-6.2476
20
-9.0798
10
-6.2476
20
-9.0243
10
-6.4142
20
-9.0243
10
-6.4142
20
-8.9687
10
-6.5252
20
-8.9687
10
-6.5252
20
-8.9132
10
-6.6918
20
-8.9132
10
-6.6918
20
-8.9687
10
-6.7474
20
-8.9687
10
-6.7474
20
-9.2464
10
-6.6918
20
-9.2464
10
-6.6918
20
-9.3019
10
-6.5808
20
-9.3019
10
-6.5808
20
-9.3575
10
-6.2476
20
-9.3575
10
-6.2476
20
-9.4130
10
-6.1920
20
-9.4130
10
-6.1920
20
-9.5241
10
-6.3586
20
-9.6351
10
-6.4142
20
-10.0239
10
-6.4697
20
-10.0239
10
-6.4697
20
-10.1350
10
-6.5252
20
-10.1350
10
-6.5252
20
-10.4126
10
-6.2476
20
-10.4682
10
-6.2476
20
-10.5237
10
-6.1365
20
-10.5237
10
-6.1365
20
-10.5792
10
-5.9144
20
-10.5792
10
-5.8033
20
-10.7458
10
-5.8588
20
-10.7458
10
-5.9144
20
-10.8569
10
-6.0810
20
-10.8569
10
-6.0810
20
-10.9124
10
-6.2476
20
-10.9124
10
-6.2476
20
-10.8569
10
-6.4142
20
-10.8014
10
-6.4142
20
-10.7458
10
-6.6363
20
-10.7458
10
-6.6363
20
-11.2456
10
-6.6918
20
-11.2456
10
-6.7474
20
-11.4122
10
-6.8584
20
-11.4122
10
-6.8584
20
-11.4678
10
-6.9695
20
-11.4678
10
-6.9695
20
-11.4122
10
-7.0806
20
-11.3567
10
-6.9140
20
-10.5237
10
-7.0250
20
-10.5237
10
-7.0250
20
-10.4682
10
-7.1361
20
-10.4682
10
-7.1361
20
-10.4126
10
-7.3583
20
-10.4126
10
-7.3583
20
-10.3571
10
-7.6359
20
-10.3016
10
-7.6359
20
-10.2460
10
-7.8581
20
-10.2460
10
-7.8581
20
-10.4682
10
-7.9136
20
-10.4682
10
-7.9136
20
-10.6348
10
-7.9691
20
-10.6348
10
-7.9691
20
-10.8014
10
-7.6915
20
-10.8014
10
-7.6915
20
-10.8569
10
-7.6359
20
-10.8569
10
-7.6359
20
-11.0235
10
-7.6915
20
-11.0235
10
-7.6915
20
-11.0790
10
-7.8581
20
-11.0790
10
-7.8581
20
-11.1346
10
-8.0247
20
-11.1901
10
-8.0802
20
-11.3012
10
-8.2468
20
-11.3012
10
-8.2468
20
-11.2456
10
-8.3579
20
-11.1901
10
-8.3579
20
-11.0235
10
-8.4134
20
-11.0235
10
-8.4134
20
-10.7458
10
-8.3579
20
-10.7458
10
-8.3023
20
-10.4682
10
-8.2468
20
-10.4682
10
-8.2468
20
-10.3571
10
-8.1913
20
-10.3571
10
-8.1913
20
-10.0794
10
-8.4134
20
-10.0794
10
-8.4134
20
-10.0239
10
-8.6355
20
-10.0239
10
-8.6355
20
-9.9683
10
-8.8021
20
-9.9683
10
-8.8021
20
-9.9128
10
-8.8577
20
-9.9128
10
-8.8577
20
-9.7462
10
-8.6911
20
-9.6907
10
-8.6911
20
-9.6351
10
-8.3023
20
-9.6351
10
-8.3023
20
-9.6907
10
-8.1913
20
-9.6907
10
-8.1913
20
-9.7462
10
-7.9691
20
-9.7462
10
-7.9691
20
-9.5241
10
-7.9136
20
-9.5241
10
-7.9136
20
-9.3019
10
-7.8581
20
-9.3019
10
-7.8581
20
-9.1353
10
-7.9136
20
-9.1353
10
-7.9136
20
-8.9687
10
-7.8581
20
-8.9687
10
-7.8581
20
-8.9132
10
-7.3583
20
-8.8577
10
-7.2472
20
-9.0243
10
-7.0806
20
-9.0243
10
-7.0806
20
-8.6911
10
-7.1361
20
-8.6911
10
-7.1361
20
-8.6355
10
-7.4138
20
-8.5800
10
-7.4138
20
-8.5245
10
-7.7470
20
-8.4134
10
-7.7470
20
-8.1913
10
-7.6915
20
-8.1913
0
LWPOLYLINE
8
STAMP_FACE
90
110
70
1
10
6.8029
20
-8.1913
10
7.0806
20
-8.1913
10
7.0806
20
-8.4134
10
7.1361
20
-8.4134
10
7.1361
20
-8.5245
10
7.2472
20
-8.5800
10
7.2472
20
-8.6911
10
7.3027
20
-8.6911
10
7.5804
20
-9.0243
10
7.6915
20
-9.0243
10
7.6915
20
-9.0798
10
7.8025
20
-9.0798
10
7.8025
20
-9.1353
10
7.9136
20
-9.1909
10
7.8025
20
-9.4685
10
7.5249
20
-9.4685
10
7.5249
20
-9.6351
10
7.6915
20
-9.6907
10
7.6915
20
-9.7462
10
7.8025
20
-9.7462
10
7.8025
20
-9.8017
10
7.9136
20
-9.8573
10
7.8581
20
-10.1350
10
7.7470
20
-10.1350
10
7.7470
20
-10.3571
10
7.9136
20
-10.3571
10
7.9136
20
-10.1905
10
8.0802
20
-10.1905
10
8.0802
20
-10.1350
10
8.2468
20
-10.2460
10
8.2468
20
-10.3571
10
8.1913
20
-10.3571
10
8.1913
20
-10.7458
10
8.1357
20
-10.7458
10
8.0802
20
-10.9124
10
7.9136
20
-10.9124
10
7.8581
20
-10.7458
10
7.8025
20
-10.7458
10
7.8025
20
-10.6348
10
7.6359
20
-10.6348
10
7.5804
20
-10.7458
10
7.4138
20
-10.7458
10
7.4138
20
-10.9124
10
7.4693
20
-10.9124
10
7.5249
20
-11.0235
10
7.4693
20
-11.0235
10
7.4693
20
-11.0790
10
7.1917
20
-11.0790
10
7.1917
20
-11.2456
10
6.6918
20
-11.2456
10
6.6918
20
-11.1901
10
6.4697
20
-11.1901
10
6.4697
20
-11.1346
10
6.3586
20
-11.1346
10
6.3586
20
-11.0790
10
6.1365
20
-11.0790
10
6.1365
20
-11.1346
10
6.0810
20
-11.1346
10
6.0810
20
-11.3012
10
6.0254
20
-11.3012
10
6.0254
20
-11.4678
10
5.9699
20
-11.4678
10
5.9144
20
-11.5788
10
5.6367
20
-11.5788
10
5.6367
20
-11.6344
10
5.4701
20
-11.6344
10
5.4701
20
-11.6899
10
5.1369
20
-11.6899
10
5.1369
20
-11.6344
10
5.0814
20
-11.6344
10
5.0814
20
-11.4678
10
5.2480
20
-11.4122
10
5.2480
20
-11.3567
10
5.3590
20
-11.3567
10
5.4146
20
-11.2456
10
5.5256
20
-11.2456
10
5.5256
20
-11.1901
10
5.8033
20
-10.9680
10
5.8033
20
-10.8569
10
5.8588
20
-10.8569
10
5.8588
20
-10.6903
10
5.6922
20
-10.5792
10
5.6922
20
-10.4682
10
5.5812
20
-10.4126
10
5.5812
20
-10.3016
10
5.3035
20
-10.1350
10
5.3035
20
-9.9128
10
5.5812
20
-9.7462
10
5.5812
20
-9.5241
10
5.4701
20
-9.4685
10
5.4146
20
-9.3019
10
5.2480
20
-9.2464
10
5.1924
20
-9.0798
10
5.2480
20
-9.0798
10
5.2480
20
-8.9687
10
5.3035
20
-8.9687
10
5.4146
20
-8.8021
10
5.6367
20
-8.8021
10
5.6367
20
-8.8577
10
5.8588
20
-8.8577
10
5.8588
20
-8.9132
10
6.3031
20
-8.9132
10
6.3031
20
-8.8577
10
6.6918
20
-8.9132
10
6.6918
20
-8.8577
10
6.8584
20
-8.8577
10
6.8584
20
-8.6911
10
6.6918
20
-8.5800
10
6.6918
20
-8.4134
10
6.7474
20
-8.4134
0
LWPOLYLINE
8
STAMP_FACE
90
18
70
1
10
-10.9680
20
-8.4134
10
-10.6903
20
-8.4134
10
-10.6903
20
-8.5800
10
-10.9124
20
-8.7466
10
-10.9124
20
-8.8577
10
-10.9680
20
-8.8577
10
-11.0235
20
-8.9687
10
-11.1346
20
-8.9687
10
-11.1901
20
-9.0798
10
-11.3012
20
-9.0798
10
-11.3012
20
-9.0243
10
-11.4122
20
-8.9687
10
-11.4122
20
-8.9132
10
-11.3567
20
-8.9132
10
-11.3567
20
-8.6911
10
-11.3012
20
-8.6911
10
-11.1901
20
-8.5245
10
-10.9680
20
-8.4689
0
LWPOLYLINE
8
STAMP_FACE
90
9
70
1
10
7.0250
20
-8.9132
10
6.9695
20
-8.9132
10
6.9695
20
-9.0798
10
7.0250
20
-9.0798
10
7.0806
20
-9.1909
10
7.2472
20
-9.1909
10
7.2472
20
-9.0243
10
7.1917
20
-9.0243
10
7.1361
20
-8.9132
0
LWPOLYLINE
8
STAMP_FACE
90
94
70
1
10
1.9159
20
-9.0798
10
2.1381
20
-9.0798
10
2.1381
20
-9.1909
10
2.1936
20
-9.1909
10
2.1936
20
-9.2464
10
2.0825
20
-9.3019
10
2.0825
20
-9.4130
10
1.9715
20
-9.4685
10
1.9715
20
-9.6351
10
2.5823
20
-9.6351
10
2.5823
20
-9.6907
10
2.9155
20
-9.6351
10
2.9155
20
-9.6907
10
3.0266
20
-9.7462
10
2.9155
20
-9.9128
10
2.5823
20
-9.9683
10
2.5823
20
-10.1905
10
2.4713
20
-10.2460
10
2.4713
20
-10.5237
10
2.4157
20
-10.5237
10
2.4157
20
-10.6348
10
2.3602
20
-10.6348
10
2.3602
20
-10.8569
10
2.9711
20
-10.8569
10
2.9711
20
-10.8014
10
3.2487
20
-10.8569
10
3.2487
20
-11.0235
10
3.1932
20
-11.0235
10
3.1377
20
-11.1901
10
3.0821
20
-11.1901
10
3.0821
20
-11.5788
10
3.1377
20
-11.5788
10
3.1932
20
-12.1342
10
3.1377
20
-12.1342
10
3.0821
20
-12.3008
10
2.8600
20
-12.3008
10
2.8600
20
-12.2452
10
2.8045
20
-12.2452
10
2.8045
20
-12.0786
10
2.7489
20
-12.0786
10
2.7489
20
-11.3567
10
2.5823
20
-11.3567
10
2.5823
20
-11.4678
10
2.5268
20
-11.4678
10
2.5268
20
-11.8010
10
2.4713
20
-11.8010
10
2.4713
20
-11.9120
10
2.4157
20
-11.9120
10
2.3602
20
-12.0231
10
2.3047
20
-12.0231
10
2.2491
20
-11.9120
10
2.0270
20
-11.9120
10
2.0270
20
-11.8565
10
1.5827
20
-11.8565
10
1.5827
20
-12.0231
10
1.6383
20
-12.0231
10
1.6383
20
-12.0786
10
1.5827
20
-12.0786
10
1.5272
20
-12.2452
10
1.4161
20
-12.2452
10
1.3606
20
-12.5229
10
1.0274
20
-12.5229
10
1.0274
20
-12.4674
10
0.8608
20
-12.3563
10
0.8052
20
-12.1342
10
0.7497
20
-12.1342
10
0.6942
20
-11.3567
10
0.6386
20
-11.3567
10
0.6386
20
-11.2456
10
0.4720
20
-11.1346
10
0.4720
20
-10.9680
10
0.6386
20
-10.9124
10
0.6942
20
-10.8014
10
0.8052
20
-10.8014
10
0.8608
20
-10.6903
10
1.4161
20
-10.7458
10
1.4161
20
-10.4126
10
1.1940
20
-10.2460
10
1.2495
20
-10.0794
10
1.4161
20
-10.0239
10
1.4161
20
-9.8573
10
0.7497
20
-9.8573
10
0.7497
20
-9.8017
10
0.6942
20
-9.8017
10
0.6942
20
-9.6351
10
0.7497
20
-9.6351
10
0.8052
20
-9.5241
10
0.9718
20
-9.5241
10
0.9718
20
-9.4685
10
1.5827
20
-9.5241
10
1.5827
20
-9.3019
10
1.6383
20
-9.3019
10
1.7493
20
-9.1353
10
1.9159
20
-9.1353
0
LWPOLYLINE
8
STAMP_FACE
90
17
70
1
10
6.4697
20
-9.1353
10
6.4142
20
-9.1353
10
6.4142
20
-9.3019
10
6.4697
20
-9.3019
10
6.4697
20
-9.4685
10
6.5252
20
-9.4685
10
6.5252
20
-9.6351
10
6.5808
20
-9.6351
10
6.6363
20
-9.8573
10
6.8584
20
-9.8573
10
6.8584
20
-9.6907
10
6.9695
20
-9.6351
10
6.9695
20
-9.4685
10
6.9140
20
-9.4685
10
6.8584
20
-9.3575
10
6.6363
20
-9.3019
10
6.5808
20
-9.1353
0
LWPOLYLINE
8
STAMP_FACE
90
11
70
1
10
5.8588
20
-9.1909
10
5.8033
20
-9.1909
10
5.8033
20
-9.4130
10
5.8588
20
-9.4130
10
5.9144
20
-9.6351
10
5.9699
20
-9.6351
10
6.0254
20
-9.7462
10
6.1920
20
-9.7462
10
6.1920
20
-9.5241
10
6.1365
20
-9.5241
10
6.0254
20
-9.1909
0
LWPOLYLINE
8
STAMP_FACE
90
7
70
1
10
-7.4693
20
-9.2464
10
-7.5249
20
-9.2464
10
-7.5249
20
-9.4685
10
-7.1917
20
-9.4685
10
-7.1917
20
-9.3019
10
-7.2472
20
-9.3019
10
-7.2472
20
-9.2464
0
LWPOLYLINE
8
STAMP_FACE
90
108
70
1
10
-2.9711
20
-9.3019
10
-2.7489
20
-9.3019
10
-2.7489
20
-9.3575
10
-2.4713
20
-9.4130
10
-2.4713
20
-9.4685
10
-2.1936
20
-9.4685
10
-2.1936
20
-9.4130
10
-2.1381
20
-9.4130
10
-2.1381
20
-9.4685
10
-2.0270
20
-9.4685
10
-2.0270
20
-9.5796
10
-1.7493
20
-9.5796
10
-1.6938
20
-9.8573
10
-1.4717
20
-9.8573
10
-1.4717
20
-9.9128
10
-1.4161
20
-9.9128
10
-1.4161
20
-10.0794
10
-1.4717
20
-10.0794
10
-1.5272
20
-10.2460
10
-1.5827
20
-10.2460
10
-1.6383
20
-10.6903
10
-1.6938
20
-10.6903
10
-1.6938
20
-10.8014
10
-1.7493
20
-10.8014
10
-1.7493
20
-11.1901
10
-1.6938
20
-11.1901
10
-1.6938
20
-11.2456
10
-1.2495
20
-11.2456
10
-1.2495
20
-11.3012
10
-1.1940
20
-11.3012
10
-1.1940
20
-11.4678
10
-1.2495
20
-11.4678
10
-1.2495
20
-11.5233
10
-1.4161
20
-11.5233
10
-1.4161
20
-11.5788
10
-1.6938
20
-11.5788
10
-1.6938
20
-11.5233
10
-1.8604
20
-11.5233
10
-1.8604
20
-11.4678
10
-2.1381
20
-11.4678
10
-2.1381
20
-11.7454
10
-2.0825
20
-11.7454
10
-2.0270
20
-11.9676
10
-1.8049
20
-12.1342
10
-1.8049
20
-12.2452
10
-1.6383
20
-12.3008
10
-1.6938
20
-12.4674
10
-1.8604
20
-12.4674
10
-1.8604
20
-12.4118
10
-2.0825
20
-12.3563
10
-2.0825
20
-12.3008
10
-2.2491
20
-12.1897
10
-2.2491
20
-12.0786
10
-2.4157
20
-12.0231
10
-2.4157
20
-11.9120
10
-2.6379
20
-11.7454
10
-2.6379
20
-11.5788
10
-2.5268
20
-11.5233
10
-2.5268
20
-11.3012
10
-3.0266
20
-11.3012
10
-3.0266
20
-11.5233
10
-3.1932
20
-11.6344
10
-3.1932
20
-11.7454
10
-3.3598
20
-11.8010
10
-3.3598
20
-11.9120
10
-3.5819
20
-12.0786
10
-3.5819
20
-12.1897
10
-3.6375
20
-12.1897
10
-3.6930
20
-12.3008
10
-3.8596
20
-12.3008
10
-3.8596
20
-12.2452
10
-3.9707
20
-12.1897
10
-3.9707
20
-11.9120
10
-3.9151
20
-11.9120
10
-3.8596
20
-11.6899
10
-3.6930
20
-11.6344
10
-3.6375
20
-11.5233
10
-3.4709
20
-11.5233
10
-3.4709
20
-11.4678
10
-3.2487
20
-11.4122
10
-3.2487
20
-11.2456
10
-3.3043
20
-11.2456
10
-3.3043
20
-11.1901
10
-4.1928
20
-11.1901
10
-4.1928
20
-11.2456
10
-4.3594
20
-11.2456
10
-4.3594
20
-11.1901
10
-4.4705
20
-11.1346
10
-4.4705
20
-11.0235
10
-4.4150
20
-11.0235
10
-4.3039
20
-10.8569
10
-3.7485
20
-10.8014
10
-3.8041
20
-9.8573
10
-3.8596
20
-9.8573
10
-3.8596
20
-9.7462
10
-3.9151
20
-9.7462
10
-3.9151
20
-9.5796
10
-3.8596
20
-9.5796
10
-3.8041
20
-9.4685
10
-3.6375
20
-9.4685
10
-3.6375
20
-9.4130
10
-3.4709
20
-9.4130
10
-3.4709
20
-9.4685
10
-3.3598
20
-9.4685
10
-3.3598
20
-9.5241
10
-3.1932
20
-9.5241
10
-3.1377
20
-9.3575
10
-2.9711
20
-9.3575
0
LWPOLYLINE
8
STAMP_FACE
90
7
70
1
10
-6.8584
20
-9.4685
10
-6.9140
20
-9.4685
10
-6.9140
20
-9.6907
10
-6.8584
20
-9.6907
10
-6.8584
20
-9.7462
10
-6.6918
20
-9.7462
10
-6.6918
20
-9.5241
0
LWPOLYLINE
8
STAMP_FACE
90
5
70
1
10
-2.7489
20
-9.5796
10
-2.8045
20
-9.5796
10
-2.8045
20
-9.7462
10
-2.6379
20
-9.7462
10
-2.6379
20
-9.5796
0
LWPOLYLINE
8
STAMP_FACE
90
5
70
1
10
-7.5804
20
-9.6907
10
-7.6915
20
-9.7462
10
-7.6915
20
-9.9683
10
-7.3583
20
-10.0239
10
-7.3583
20
-9.7462
0
LWPOLYLINE
8
STAMP_FACE
90
5
70
1
10
-2.4713
20
-9.6907
10
-2.5268
20
-9.6907
10
-2.5268
20
-9.8573
10
-2.3602
20
-9.8573
10
-2.3602
20
-9.6907
0
LWPOLYLINE
8
STAMP_FACE
90
5
70
1
10
-3.4153
20
-9.7462
10
-3.4709
20
-9.7462
10
-3.4709
20
-9.9683
10
-3.1377
20
-9.9683
10
-3.1377
20
-9.8017
0
LWPOLYLINE
8
STAMP_FACE
90
5
70
1
10
-2.0270
20
-9.9128
10
-2.1381
20
-9.9683
10
-2.1381
20
-10.1350
10
-1.8604
20
-10.1350
10
-1.8604
20
-9.9683
0
LWPOLYLINE
8
STAMP_FACE
90
5
70
1
10
2.1936
20
-9.9128
10
2.1381
20
-9.9128
10
2.1381
20
-10.0794
10
2.3047
20
-10.0794
10
2.3047
20
-9.9128
0
LWPOLYLINE
8
STAMP_FACE
90
7
70
1
10
-7.0250
20
-9.9683
10
-7.0806
20
-9.9683
10
-7.0806
20
-10.1905
10
-7.0250
20
-10.1905
10
-7.0250
20
-10.2460
10
-6.8029
20
-10.2460
10
-6.8029
20
-9.9683
0
LWPOLYLINE
8
STAMP_FACE
90
5
70
1
10
5.9144
20
-10.0239
10
5.8588
20
-10.0239
10
5.9144
20
-10.3571
10
6.1365
20
-10.3571
10
6.1920
20
-10.0239
0
LWPOLYLINE
8
STAMP_FACE
90
5
70
1
10
7.4138
20
-10.0794
10
7.3583
20
-10.0794
10
7.3583
20
-10.2460
10
7.5249
20
-10.2460
10
7.5249
20
-10.0794
0
LWPOLYLINE
8
STAMP_FACE
90
5
70
1
10
-3.4153
20
-10.1905
10
-3.4709
20
-10.1905
10
-3.4709
20
-10.3571
10
-3.1377
20
-10.4126
10
-3.1377
20
-10.2460
0
LWPOLYLINE
8
STAMP_FACE
90
5
70
1
10
1.8049
20
-10.2460
10
1.7493
20
-10.2460
10
1.7493
20
-10.4126
10
2.1381
20
-10.4126
10
2.1381
20
-10.2460
0
LWPOLYLINE
8
STAMP_FACE
90
15
70
1
10
6.4142
20
-10.3016
10
6.3586
20
-10.3016
10
6.3586
20
-10.4126
10
6.3031
20
-10.4126
10
6.3031
20
-10.7458
10
6.4697
20
-10.8014
10
6.4697
20
-10.8569
10
6.5808
20
-10.8569
10
6.5808
20
-10.9124
10
6.9695
20
-10.9680
10
6.9695
20
-10.8014
10
6.6918
20
-10.5792
10
6.6918
20
-10.4682
10
6.5808
20
-10.4126
10
6.5808
20
-10.3016
0
LWPOLYLINE
8
STAMP_FACE
90
5
70
1
10
-2.0270
20
-10.4126
10
-2.0825
20
-10.4126
10
-2.0825
20
-10.5792
10
-1.9159
20
-10.5792
10
-1.9159
20
-10.4126
0
LWPOLYLINE
8
STAMP_FACE
90
5
70
1
10
7.2472
20
-10.5237
10
7.1917
20
-10.5237
10
7.1917
20
-10.6903
10
7.3583
20
-10.6903
10
7.3583
20
-10.5237
0
LWPOLYLINE
8
STAMP_FACE
90
5
70
1
10
-3.3598
20
-10.6348
10
-3.4153
20
-10.6348
10
-3.4153
20
-10.9124
10
-3.1932
20
-10.9124
10
-3.1932
20
-10.6348
0
LWPOLYLINE
8
STAMP_FACE
90
5
70
1
10
1.6938
20
-10.6348
10
1.6383
20
-10.6348
10
1.6383
20
-10.8014
10
1.8049
20
-10.8014
10
1.8049
20
-10.6348
0
LWPOLYLINE
8
STAMP_FACE
90
7
70
1
10
-2.8600
20
-10.7458
10
-2.9155
20
-10.7458
10
-2.9155
20
-10.9680
10
-2.8045
20
-10.9680
10
-2.8045
20
-11.0235
10
-2.5268
20
-11.0235
10
-2.5268
20
-10.8014
0
LWPOLYLINE
8
STAMP_FACE
90
5
70
1
10
-2.1936
20
-10.8014
10
-2.2491
20
-10.8014
10
-2.2491
20
-11.1346
10
-2.0270
20
-11.1346
10
-2.0270
20
-10.8569
0
LWPOLYLINE
8
STAMP_FACE
90
15
70
1
10
1.1384
20
-11.0235
10
1.0274
20
-11.0790
10
1.0274
20
-11.4122
10
1.0829
20
-11.4122
10
1.1384
20
-11.9676
10
1.1940
20
-11.9676
10
1.1940
20
-12.0231
10
1.3606
20
-12.0231
10
1.3606
20
-11.9676
10
1.5272
20
-11.9676
10
1.5272
20
-11.5788
10
1.3606
20
-11.4678
10
1.3606
20
-11.3567
10
1.5827
20
-11.1901
10
1.5827
20
-11.0235
0
LWPOLYLINE
8
STAMP_FACE
90
5
70
1
10
2.1381
20
-11.0790
10
2.0825
20
-11.0790
10
2.0825
20
-11.2456
10
2.4157
20
-11.2456
10
2.4157
20
-11.0790
0
LWPOLYLINE
8
STAMP_FACE
90
7
70
1
10
1.9159
20
-11.4122
10
1.8604
20
-11.4122
10
1.8604
20
-11.5788
10
1.9159
20
-11.5788
10
1.9159
20
-11.6344
10
2.2491
20
-11.6344
10
2.2491
20
-11.4678
0
ENDSEC
0
EOF
